Bitter Pro-Thin Italic.ufo
<glyph name="exclam" format="2">
	<advance width="329"/>
	<unicode hex="0021"/>
	<guideline x="121" y="97" angle="261"/>
	<guideline x="156" y="97" angle="261"/>
	<guideline x="56" y="201" angle="0"/>
	<outline>
		<contour>
			<point x="146" y="201" type="line"/>
			<point x="163" y="203" type="line"/>
			<point x="244" y="692" type="line"/>
			<point x="221" y="692" type="line"/>
		</contour>
		<contour>
			<point x="124" y="0" type="curve" smooth="yes"/>
			<point x="138" y="0"/>
			<point x="152" y="11"/>
			<point x="152" y="29" type="curve" smooth="yes"/>
			<point x="152" y="45"/>
			<point x="142" y="52"/>
			<point x="131" y="52" type="curve" smooth="yes"/>
			<point x="117" y="52"/>
			<point x="103" y="41"/>
			<point x="103" y="23" type="curve" smooth="yes"/>
			<point x="103" y="10"/>
			<point x="110" y="0"/>
		</contour>
	</outline>
</glyph>
<glyph name="numbersign" format="2">
	<advance width="612"/>
	<unicode hex="0023"/>
	<outline>
		<contour>
			<point x="102" y="498" type="line"/>
			<point x="99" y="480" type="line"/>
			<point x="565" y="480" type="line"/>
			<point x="567" y="498" type="line"/>
		</contour>
		<contour>
			<point x="23" y="230" type="line"/>
			<point x="20" y="212" type="line"/>
			<point x="486" y="212" type="line"/>
			<point x="488" y="230" type="line"/>
		</contour>
		<contour>
			<point x="270" y="692" type="line"/>
			<point x="66" y="0" type="line"/>
			<point x="85" y="0" type="line"/>
			<point x="289" y="692" type="line"/>
		</contour>
		<contour>
			<point x="496" y="692" type="line"/>
			<point x="293" y="0" type="line"/>
			<point x="312" y="0" type="line"/>
			<point x="516" y="692" type="line"/>
		</contour>
	</outline>
</glyph>
<glyph name="dollar" format="2">
	<advance width="603"/>
	<unicode hex="0024"/>
	<guideline x="303" y="218" angle="261"/>
	<guideline x="283" y="218" angle="261"/>
	<outline>
		<contour>
			<point x="236" y="0" type="curve" smooth="yes"/>
			<point x="368" y="0"/>
			<point x="489" y="71"/>
			<point x="489" y="205" type="curve" smooth="yes"/>
			<point x="489" y="420"/>
			<point x="175" y="316"/>
			<point x="175" y="505" type="curve" smooth="yes"/>
			<point x="175" y="610"/>
			<point x="273" y="673"/>
			<point x="388" y="673" type="curve" smooth="yes"/>
			<point x="436" y="673"/>
			<point x="485" y="662"/>
			<point x="528" y="638" type="curve"/>
			<point x="521" y="647" type="line"/>
			<point x="508" y="516" type="line"/>
			<point x="522" y="516" type="line"/>
			<point x="549" y="653" type="line"/>
			<point x="499" y="679"/>
			<point x="443" y="692"/>
			<point x="388" y="692" type="curve" smooth="yes"/>
			<point x="260" y="692"/>
			<point x="154" y="623"/>
			<point x="154" y="504" type="curve" smooth="yes"/>
			<point x="154" y="298"/>
			<point x="468" y="400"/>
			<point x="468" y="202" type="curve" smooth="yes"/>
			<point x="468" y="88"/>
			<point x="364" y="21"/>
			<point x="241" y="21" type="curve" smooth="yes"/>
			<point x="192" y="21"/>
			<point x="140" y="32"/>
			<point x="94" y="56" type="curve"/>
			<point x="97" y="47" type="line"/>
			<point x="106" y="181" type="line"/>
			<point x="92" y="181" type="line"/>
			<point x="65" y="42" type="line"/>
			<point x="118" y="14"/>
			<point x="178" y="0"/>
		</contour>
		<contour>
			<point x="226" y="-144" type="line"/>
			<point x="246" y="-144" type="line"/>
			<point x="271" y="15" type="line"/>
			<point x="251" y="14" type="line"/>
		</contour>
		<contour>
			<point x="356" y="678" type="line"/>
			<point x="376" y="679" type="line"/>
			<point x="399" y="824" type="line"/>
			<point x="379" y="824" type="line"/>
		</contour>
	</outline>
</glyph>
<glyph name="percent" format="2">
	<advance width="792"/>
	<unicode hex="0025"/>
	<outline>
		<contour>
			<point x="120" y="-6" type="line"/>
			<point x="143" y="-6" type="line"/>
			<point x="700" y="698" type="line"/>
			<point x="677" y="698" type="line"/>
		</contour>
		<contour>
			<point x="235" y="352" type="curve" smooth="yes"/>
			<point x="357" y="352"/>
			<point x="420" y="457"/>
			<point x="420" y="570" type="curve" smooth="yes"/>
			<point x="420" y="652"/>
			<point x="387" y="698"/>
			<point x="304" y="698" type="curve" smooth="yes"/>
			<point x="182" y="698"/>
			<point x="118" y="601"/>
			<point x="118" y="485" type="curve" smooth="yes"/>
			<point x="118" y="401"/>
			<point x="152" y="352"/>
		</contour>
		<contour>
			<point x="238" y="371" type="curve" smooth="yes"/>
			<point x="169" y="371"/>
			<point x="138" y="411"/>
			<point x="138" y="487" type="curve" smooth="yes"/>
			<point x="138" y="587"/>
			<point x="191" y="679"/>
			<point x="302" y="679" type="curve" smooth="yes"/>
			<point x="371" y="679"/>
			<point x="400" y="644"/>
			<point x="400" y="570" type="curve" smooth="yes"/>
			<point x="400" y="471"/>
			<point x="348" y="371"/>
		</contour>
		<contour>
			<point x="516" y="-6" type="curve" smooth="yes"/>
			<point x="638" y="-6"/>
			<point x="701" y="99"/>
			<point x="701" y="212" type="curve" smooth="yes"/>
			<point x="701" y="294"/>
			<point x="668" y="340"/>
			<point x="585" y="340" type="curve" smooth="yes"/>
			<point x="463" y="340"/>
			<point x="399" y="243"/>
			<point x="399" y="127" type="curve" smooth="yes"/>
			<point x="399" y="43"/>
			<point x="433" y="-6"/>
		</contour>
		<contour>
			<point x="519" y="13" type="curve" smooth="yes"/>
			<point x="450" y="13"/>
			<point x="419" y="53"/>
			<point x="419" y="129" type="curve" smooth="yes"/>
			<point x="419" y="229"/>
			<point x="472" y="321"/>
			<point x="583" y="321" type="curve" smooth="yes"/>
			<point x="652" y="321"/>
			<point x="681" y="286"/>
			<point x="681" y="212" type="curve" smooth="yes"/>
			<point x="681" y="113"/>
			<point x="629" y="13"/>
		</contour>
	</outline>
</glyph>
<glyph name="quotesingle" format="2">
	<advance width="199"/>
	<unicode hex="0027"/>
	<outline>
		<contour>
			<point x="138" y="554" type="line"/>
			<point x="154" y="554" type="line"/>
			<point x="193" y="762" type="line"/>
			<point x="164" y="762" type="line"/>
		</contour>
	</outline>
</glyph>
<glyph name="parenleft" format="2">
	<advance width="277"/>
	<unicode hex="0028"/>
	<guideline x="343" y="846" angle="0"/>
	<guideline x="-352" y="-102" angle="0"/>
	<outline>
		<contour>
			<point x="307" y="837" type="curve"/>
			<point x="296" y="848" type="line"/>
			<point x="145" y="690"/>
			<point x="43" y="481"/>
			<point x="43" y="264" type="curve" smooth="yes"/>
			<point x="43" y="137"/>
			<point x="76" y="9"/>
			<point x="146" y="-102" type="curve"/>
			<point x="160" y="-91" type="line"/>
			<point x="94" y="19"/>
			<point x="63" y="144"/>
			<point x="63" y="262" type="curve" smooth="yes"/>
			<point x="63" y="472"/>
			<point x="160" y="677"/>
		</contour>
	</outline>
</glyph>
<glyph name="hyphen" format="2">
	<advance width="409"/>
	<unicode hex="002D"/>
	<outline>
		<contour>
			<point x="336" y="303" type="line"/>
			<point x="87" y="303" type="line"/>
			<point x="84" y="284" type="line"/>
			<point x="333" y="284" type="line"/>
		</contour>
	</outline>
</glyph>
<glyph name="period" format="2">
	<advance width="169"/>
	<unicode hex="002E"/>
	<outline>
		<contour>
			<point x="44" y="0" type="curve" smooth="yes"/>
			<point x="58" y="0"/>
			<point x="72" y="11"/>
			<point x="72" y="29" type="curve" smooth="yes"/>
			<point x="72" y="45"/>
			<point x="62" y="52"/>
			<point x="51" y="52" type="curve" smooth="yes"/>
			<point x="37" y="52"/>
			<point x="23" y="41"/>
			<point x="23" y="23" type="curve" smooth="yes"/>
			<point x="23" y="10"/>
			<point x="30" y="0"/>
		</contour>
	</outline>
</glyph>
<glyph name="one" format="2">
	<advance width="372"/>
	<unicode hex="0031"/>
	<guideline x="220" y="231" angle="261"/>
	<guideline x="201" y="231" angle="261"/>
	<outline>
		<contour>
			<point x="187" y="23" type="line"/>
			<point x="293" y="695" type="line"/>
			<point x="279" y="695" type="line"/>
			<point x="76" y="576" type="line"/>
			<point x="82" y="561" type="line"/>
			<point x="276" y="669" type="line"/>
			<point x="271" y="673" type="line"/>
			<point x="168" y="23" type="line"/>
			<point x="176" y="31" type="line"/>
			<point x="18" y="17" type="line"/>
			<point x="16" y="0" type="line"/>
			<point x="309" y="0" type="line"/>
			<point x="311" y="17" type="line"/>
			<point x="182" y="31" type="line"/>
		</contour>
	</outline>
</glyph>
<glyph name="seven" format="2">
	<advance width="454"/>
	<unicode hex="0037"/>
	<outline>
		<contour>
			<point x="494" y="674" type="line"/>
			<point x="497" y="692" type="line"/>
			<point x="98" y="692" type="line"/>
			<point x="77" y="559" type="line"/>
			<point x="92" y="559" type="line"/>
			<point x="128" y="679" type="line"/>
			<point x="119" y="672" type="line"/>
			<point x="480" y="672" type="line"/>
			<point x="475" y="678" type="line"/>
			<point x="93" y="0" type="line"/>
			<point x="116" y="0" type="line"/>
		</contour>
	</outline>
</glyph>
<glyph name="question" format="2">
	<advance width="368"/>
	<unicode hex="003F"/>
	<guideline x="101" y="97" angle="261"/>
	<guideline x="136" y="97" angle="261"/>
	<guideline x="56" y="201" angle="0"/>
	<outline>
		<contour>
			<point x="105" y="201" type="curve"/>
			<point x="125" y="203" type="line"/>
			<point x="125" y="205"/>
			<point x="130" y="248"/>
			<point x="131" y="253" type="curve" smooth="yes"/>
			<point x="155" y="412"/>
			<point x="364" y="443"/>
			<point x="364" y="595" type="curve" smooth="yes"/>
			<point x="364" y="672"/>
			<point x="311" y="698"/>
			<point x="243" y="698" type="curve" smooth="yes"/>
			<point x="205" y="698"/>
			<point x="162" y="690"/>
			<point x="120" y="674" type="curve"/>
			<point x="125" y="657" type="line"/>
			<point x="165" y="671"/>
			<point x="206" y="679"/>
			<point x="241" y="679" type="curve" smooth="yes"/>
			<point x="300" y="679"/>
			<point x="343" y="657"/>
			<point x="343" y="593" type="curve" smooth="yes"/>
			<point x="343" y="454"/>
			<point x="145" y="435"/>
			<point x="112" y="256" type="curve" smooth="yes"/>
			<point x="109" y="241"/>
			<point x="108" y="227"/>
		</contour>
		<contour>
			<point x="86" y="0" type="curve" smooth="yes"/>
			<point x="100" y="0"/>
			<point x="114" y="11"/>
			<point x="114" y="29" type="curve" smooth="yes"/>
			<point x="114" y="45"/>
			<point x="104" y="52"/>
			<point x="93" y="52" type="curve" smooth="yes"/>
			<point x="79" y="52"/>
			<point x="65" y="41"/>
			<point x="65" y="23" type="curve" smooth="yes"/>
			<point x="65" y="10"/>
			<point x="72" y="0"/>
		</contour>
	</outline>
</glyph>
<glyph name="A" format="2">
	<advance width="662"/>
	<unicode hex="0041"/>
	<guideline x="1209" y="-200" angle="90"/>
	<guideline x="1188" y="-200" angle="90"/>
	<anchor x="288" y="0" name="bottom"/>
	<anchor x="614" y="0" name="ogonek"/>
	<anchor x="406" y="692" name="top"/>
	<outline>
		<contour>
			<point x="535" y="22" type="line"/>
			<point x="415" y="693" type="line"/>
			<point x="395" y="691" type="line"/>
			<point x="50" y="22" type="line"/>
			<point x="59" y="29" type="line"/>
			<point x="-32" y="15" type="line"/>
			<point x="-35" y="0" type="line"/>
			<point x="181" y="0" type="line"/>
			<point x="184" y="15" type="line"/>
			<point x="67" y="29" type="line"/>
			<point x="71" y="22" type="line"/>
			<point x="168" y="213" type="line"/>
			<point x="158" y="206" type="line"/>
			<point x="488" y="206" type="line"/>
			<point x="481" y="213" type="line"/>
			<point x="514" y="22" type="line"/>
			<point x="519" y="29" type="line"/>
			<point x="397" y="15" type="line"/>
			<point x="394" y="0" type="line"/>
			<point x="614" y="0" type="line"/>
			<point x="616" y="15" type="line"/>
			<point x="528" y="29" type="line"/>
		</contour>
		<contour>
			<point x="171" y="219" type="line"/>
			<point x="404" y="672" type="line"/>
			<point x="400" y="672" type="line"/>
			<point x="480" y="219" type="line"/>
			<point x="485" y="225" type="line"/>
			<point x="167" y="225" type="line"/>
		</contour>
	</outline>
</glyph>
<glyph name="B" format="2">
	<advance width="629"/>
	<unicode hex="0042"/>
	<anchor x="263" y="0" name="bottom"/>
	<anchor x="372" y="692" name="top"/>
	<outline>
		<contour>
			<point x="370" y="354" type="line"/>
			<point x="484" y="375"/>
			<point x="558" y="447"/>
			<point x="558" y="552" type="curve" smooth="yes"/>
			<point x="558" y="640"/>
			<point x="506" y="692"/>
			<point x="385" y="692" type="curve" smooth="yes"/>
			<point x="247" y="692" type="line"/>
			<point x="130" y="687" type="line"/>
			<point x="128" y="672" type="line"/>
			<point x="229" y="663" type="line"/>
			<point x="223" y="671" type="line"/>
			<point x="120" y="21" type="line"/>
			<point x="129" y="29" type="line"/>
			<point x="24" y="15" type="line"/>
			<point x="22" y="0" type="line"/>
			<point x="278" y="0" type="line" smooth="yes"/>
			<point x="433" y="0"/>
			<point x="530" y="81"/>
			<point x="530" y="211" type="curve" smooth="yes"/>
			<point x="530" y="302"/>
			<point x="479" y="354"/>
			<point x="373" y="358" type="curve"/>
		</contour>
		<contour>
			<point x="379" y="673" type="line" smooth="yes"/>
			<point x="494" y="673"/>
			<point x="537" y="626"/>
			<point x="537" y="549" type="curve" smooth="yes"/>
			<point x="537" y="435"/>
			<point x="444" y="364"/>
			<point x="302" y="364" type="curve" smooth="yes"/>
			<point x="188" y="364" type="line"/>
			<point x="193" y="355" type="line"/>
			<point x="244" y="678" type="line"/>
			<point x="236" y="673" type="line"/>
		</contour>
		<contour>
			<point x="280" y="19" type="curve" smooth="yes"/>
			<point x="133" y="19" type="line"/>
			<point x="139" y="15" type="line"/>
			<point x="193" y="355" type="line"/>
			<point x="185" y="345" type="line"/>
			<point x="353" y="345" type="line" smooth="yes"/>
			<point x="463" y="345"/>
			<point x="509" y="291"/>
			<point x="509" y="210" type="curve" smooth="yes"/>
			<point x="509" y="93"/>
			<point x="421" y="19"/>
		</contour>
	</outline>
</glyph>
<glyph name="H" format="2">
	<advance width="774"/>
	<unicode hex="0048"/>
	<guideline x="174" y="231" angle="261"/>
	<guideline x="154" y="231" angle="261"/>
	<guideline x="590" y="231" angle="261"/>
	<guideline x="610" y="231" angle="261"/>
	<anchor x="351" y="0" name="bottom"/>
	<anchor x="406" y="350" name="center"/>
	<anchor x="461" y="692" name="top"/>
	<anchor x="108" y="692" name="topleft"/>
	<outline>
		<contour>
			<point x="22" y="0" type="line"/>
			<point x="234" y="0" type="line"/>
			<point x="236" y="15" type="line"/>
			<point x="136" y="29" type="line"/>
			<point x="141" y="21" type="line"/>
			<point x="193" y="349" type="line"/>
			<point x="185" y="342" type="line"/>
			<point x="615" y="342" type="line"/>
			<point x="609" y="349" type="line"/>
			<point x="557" y="21" type="line"/>
			<point x="565" y="29" type="line"/>
			<point x="460" y="15" type="line"/>
			<point x="458" y="0" type="line"/>
			<point x="670" y="0" type="line"/>
			<point x="672" y="15" type="line"/>
			<point x="571" y="29" type="line"/>
			<point x="577" y="21" type="line"/>
			<point x="680" y="671" type="line"/>
			<point x="671" y="663" type="line"/>
			<point x="778" y="677" type="line"/>
			<point x="780" y="692" type="line"/>
			<point x="566" y="687" type="line"/>
			<point x="564" y="672" type="line"/>
			<point x="665" y="663" type="line"/>
			<point x="660" y="671" type="line"/>
			<point x="609" y="352" type="line"/>
			<point x="618" y="361" type="line"/>
			<point x="188" y="361" type="line"/>
			<point x="193" y="352" type="line"/>
			<point x="244" y="671" type="line"/>
			<point x="236" y="663" type="line"/>
			<point x="341" y="677" type="line"/>
			<point x="343" y="692" type="line"/>
			<point x="130" y="687" type="line"/>
			<point x="128" y="672" type="line"/>
			<point x="230" y="663" type="line"/>
			<point x="224" y="671" type="line"/>
			<point x="121" y="21" type="line"/>
			<point x="130" y="29" type="line"/>
			<point x="24" y="15" type="line"/>
		</contour>
	</outline>
</glyph>
<glyph name="J" format="2">
	<advance width="324"/>
	<unicode hex="004A"/>
	<guideline x="185" y="382" angle="261"/>
	<anchor x="125" y="0" name="bottom"/>
	<anchor x="234" y="692" name="top"/>
	<outline>
		<contour>
			<point x="119" y="687" type="line"/>
			<point x="117" y="672" type="line"/>
			<point x="228" y="663" type="line"/>
			<point x="221" y="671" type="line"/>
			<point x="116" y="8" type="line" smooth="yes"/>
			<point x="110" y="-32"/>
			<point x="94" y="-105"/>
			<point x="-9" y="-105" type="curve" smooth="yes"/>
			<point x="-22" y="-105"/>
			<point x="-32" y="-104"/>
			<point x="-43" y="-103" type="curve"/>
			<point x="-46" y="-121" type="line"/>
			<point x="-32" y="-123"/>
			<point x="-19" y="-124"/>
			<point x="-7" y="-124" type="curve" smooth="yes"/>
			<point x="111" y="-124"/>
			<point x="130" y="-32"/>
			<point x="136" y="9" type="curve" smooth="yes"/>
			<point x="241" y="671" type="line"/>
			<point x="233" y="663" type="line"/>
			<point x="338" y="677" type="line"/>
			<point x="340" y="692" type="line"/>
		</contour>
	</outline>
</glyph>
<glyph name="L" format="2">
	<advance width="523"/>
	<unicode hex="004C"/>
	<guideline x="494" y="231" angle="261"/>
	<guideline x="165" y="231" angle="261"/>
	<anchor x="275" y="0" name="bottom"/>
	<anchor x="433" y="357" name="center"/>
	<anchor x="238" y="692" name="top"/>
	<anchor x="448" y="692" name="topright"/>
	<outline>
		<contour>
			<point x="458" y="145" type="line"/>
			<point x="423" y="12" type="line"/>
			<point x="432" y="19" type="line"/>
			<point x="134" y="19" type="line"/>
			<point x="139" y="9" type="line"/>
			<point x="244" y="671" type="line"/>
			<point x="236" y="663" type="line"/>
			<point x="355" y="677" type="line"/>
			<point x="357" y="692" type="line"/>
			<point x="130" y="687" type="line"/>
			<point x="128" y="672" type="line"/>
			<point x="230" y="663" type="line"/>
			<point x="224" y="670" type="line"/>
			<point x="121" y="21" type="line"/>
			<point x="130" y="29" type="line"/>
			<point x="24" y="15" type="line"/>
			<point x="22" y="0" type="line"/>
			<point x="449" y="0" type="line"/>
			<point x="472" y="145" type="line"/>
		</contour>
	</outline>
</glyph>
<glyph name="O" format="2">
	<advance width="736"/>
	<unicode hex="004F"/>
	<guideline x="846" y="854" angle="90"/>
	<guideline x="432" y="661" angle="261"/>
	<anchor x="322" y="0" name="bottom"/>
	<anchor x="382" y="346" name="center"/>
	<anchor x="381" y="0" name="ogonek"/>
	<anchor x="459" y="692" name="top"/>
	<anchor x="85" y="692" name="topleft"/>
	<anchor x="619" y="692" name="topright"/>
	<outline>
		<contour>
			<point x="322" y="-6" type="curve" smooth="yes"/>
			<point x="537" y="-6"/>
			<point x="678" y="216"/>
			<point x="678" y="430" type="curve" smooth="yes"/>
			<point x="678" y="616"/>
			<point x="571" y="698"/>
			<point x="441" y="698" type="curve" smooth="yes"/>
			<point x="230" y="698"/>
			<point x="86" y="484"/>
			<point x="86" y="264" type="curve" smooth="yes"/>
			<point x="86" y="73"/>
			<point x="194" y="-6"/>
		</contour>
		<contour>
			<point x="324" y="14" type="curve" smooth="yes"/>
			<point x="203" y="14"/>
			<point x="107" y="93"/>
			<point x="107" y="266" type="curve" smooth="yes"/>
			<point x="107" y="470"/>
			<point x="241" y="678"/>
			<point x="438" y="678" type="curve" smooth="yes"/>
			<point x="559" y="678"/>
			<point x="657" y="599"/>
			<point x="657" y="426" type="curve" smooth="yes"/>
			<point x="657" y="222"/>
			<point x="521" y="14"/>
		</contour>
	</outline>
</glyph>
<glyph name="Q" format="2">
	<advance width="738"/>
	<unicode hex="0051"/>
	<anchor x="328" y="0" name="bottom"/>
	<anchor x="437" y="692" name="top"/>
	<outline>
		<contour>
			<point x="698" y="-94" type="line"/>
			<point x="651" y="-121"/>
			<point x="618" y="-134"/>
			<point x="586" y="-134" type="curve" smooth="yes"/>
			<point x="526" y="-134"/>
			<point x="472" y="-89"/>
			<point x="347" y="-2" type="curve"/>
			<point x="343" y="-5" type="line"/>
			<point x="546" y="8"/>
			<point x="678" y="224"/>
			<point x="678" y="430" type="curve" smooth="yes"/>
			<point x="678" y="616"/>
			<point x="571" y="698"/>
			<point x="441" y="698" type="curve" smooth="yes"/>
			<point x="230" y="698"/>
			<point x="86" y="483"/>
			<point x="86" y="263" type="curve" smooth="yes"/>
			<point x="86" y="73"/>
			<point x="194" y="-6"/>
			<point x="321" y="-6" type="curve"/>
			<point x="311" y="-2" type="line"/>
			<point x="456" y="-103"/>
			<point x="520" y="-155"/>
			<point x="586" y="-155" type="curve" smooth="yes"/>
			<point x="621" y="-155"/>
			<point x="658" y="-141"/>
			<point x="709" y="-110" type="curve"/>
		</contour>
		<contour>
			<point x="324" y="14" type="curve" smooth="yes"/>
			<point x="203" y="14"/>
			<point x="107" y="93"/>
			<point x="107" y="266" type="curve" smooth="yes"/>
			<point x="107" y="470"/>
			<point x="241" y="678"/>
			<point x="438" y="678" type="curve" smooth="yes"/>
			<point x="559" y="678"/>
			<point x="657" y="599"/>
			<point x="657" y="426" type="curve" smooth="yes"/>
			<point x="657" y="222"/>
			<point x="521" y="14"/>
		</contour>
	</outline>
</glyph>
<glyph name="T" format="2">
	<advance width="538"/>
	<unicode hex="0054"/>
	<anchor x="228" y="0" name="bottom"/>
	<anchor x="284" y="355" name="center"/>
	<anchor x="338" y="692" name="top"/>
	<outline>
		<contour>
			<point x="107" y="0" type="line"/>
			<point x="348" y="0" type="line"/>
			<point x="350" y="15" type="line"/>
			<point x="236" y="29" type="line"/>
			<point x="241" y="21" type="line"/>
			<point x="345" y="680" type="line"/>
			<point x="337" y="673" type="line"/>
			<point x="548" y="673" type="line"/>
			<point x="541" y="680" type="line"/>
			<point x="536" y="552" type="line"/>
			<point x="550" y="552" type="line"/>
			<point x="572" y="692" type="line"/>
			<point x="102" y="692" type="line"/>
			<point x="80" y="552" type="line"/>
			<point x="95" y="552" type="line"/>
			<point x="129" y="680" type="line"/>
			<point x="120" y="673" type="line"/>
			<point x="332" y="673" type="line"/>
			<point x="325" y="680" type="line"/>
			<point x="221" y="21" type="line"/>
			<point x="230" y="29" type="line"/>
			<point x="109" y="15" type="line"/>
		</contour>
	</outline>
</glyph>
<glyph name="W" format="2">
	<advance width="991"/>
	<unicode hex="0057"/>
	<anchor x="453" y="0" name="bottom"/>
	<anchor x="565" y="691" name="top"/>
	<outline>
		<contour>
			<point x="828" y="687" type="line"/>
			<point x="826" y="672" type="line"/>
			<point x="943" y="664" type="line"/>
			<point x="938" y="670" type="line"/>
			<point x="661" y="24" type="line"/>
			<point x="665" y="24" type="line"/>
			<point x="573" y="692" type="line"/>
			<point x="555" y="689" type="line"/>
			<point x="245" y="22" type="line"/>
			<point x="248" y="21" type="line"/>
			<point x="185" y="671" type="line"/>
			<point x="179" y="663" type="line"/>
			<point x="301" y="677" type="line"/>
			<point x="303" y="692" type="line"/>
			<point x="76" y="687" type="line"/>
			<point x="73" y="672" type="line"/>
			<point x="172" y="663" type="line"/>
			<point x="165" y="671" type="line"/>
			<point x="231" y="-2" type="line"/>
			<point x="253" y="-2" type="line"/>
			<point x="562" y="662" type="line"/>
			<point x="558" y="662" type="line"/>
			<point x="648" y="-2" type="line"/>
			<point x="669" y="-2" type="line"/>
			<point x="958" y="670" type="line"/>
			<point x="949" y="663" type="line"/>
			<point x="1048" y="677" type="line"/>
			<point x="1051" y="692" type="line"/>
		</contour>
	</outline>
</glyph>
<glyph name="X" format="2">
	<advance width="659"/>
	<unicode hex="0058"/>
	<outline>
		<contour>
			<point x="511" y="21" type="line"/>
			<point x="352" y="367" type="line"/>
			<point x="351" y="355" type="line"/>
			<point x="597" y="670" type="line"/>
			<point x="585" y="663" type="line"/>
			<point x="683" y="677" type="line"/>
			<point x="685" y="692" type="line"/>
			<point x="475" y="687" type="line"/>
			<point x="473" y="672" type="line"/>
			<point x="580" y="663" type="line"/>
			<point x="577" y="670" type="line"/>
			<point x="342" y="370" type="line"/>
			<point x="351" y="370" type="line"/>
			<point x="213" y="670" type="line"/>
			<point x="209" y="663" type="line"/>
			<point x="319" y="677" type="line"/>
			<point x="321" y="692" type="line"/>
			<point x="108" y="687" type="line"/>
			<point x="106" y="672" type="line"/>
			<point x="201" y="663" type="line"/>
			<point x="192" y="670" type="line"/>
			<point x="339" y="353" type="line"/>
			<point x="339" y="365" type="line"/>
			<point x="74" y="21" type="line"/>
			<point x="87" y="28" type="line"/>
			<point x="-12" y="15" type="line"/>
			<point x="-15" y="0" type="line"/>
			<point x="202" y="0" type="line"/>
			<point x="205" y="15" type="line"/>
			<point x="93" y="28" type="line"/>
			<point x="95" y="21" type="line"/>
			<point x="348" y="349" type="line"/>
			<point x="340" y="349" type="line"/>
			<point x="490" y="21" type="line"/>
			<point x="494" y="28" type="line"/>
			<point x="378" y="15" type="line"/>
			<point x="376" y="0" type="line"/>
			<point x="593" y="0" type="line"/>
			<point x="595" y="15" type="line"/>
			<point x="501" y="28" type="line"/>
		</contour>
	</outline>
</glyph>
<glyph name="asciicircum" format="2">
	<advance width="504"/>
	<unicode hex="005E"/>
	<outline>
		<contour>
			<point x="81" y="522" type="line"/>
			<point x="101" y="522" type="line"/>
			<point x="316" y="830" type="line"/>
			<point x="307" y="830" type="line"/>
			<point x="424" y="522" type="line"/>
			<point x="443" y="522" type="line"/>
			<point x="321" y="844" type="line"/>
			<point x="307" y="844" type="line"/>
		</contour>
	</outline>
</glyph>
<glyph name="g" format="2">
	<advance width="567"/>
	<unicode hex="0067"/>
	<anchor x="210" y="-230" name="bottom"/>
	<anchor x="330" y="522" name="top"/>
	<outline>
		<contour>
			<point x="207" y="-236" type="curve" smooth="yes"/>
			<point x="318" y="-236"/>
			<point x="390" y="-176"/>
			<point x="412" y="-35" type="curve" smooth="yes"/>
			<point x="500" y="522" type="line"/>
			<point x="486" y="522" type="line"/>
			<point x="473" y="483" type="line"/>
			<point x="481" y="485" type="line"/>
			<point x="427" y="517"/>
			<point x="380" y="528"/>
			<point x="337" y="528" type="curve" smooth="yes"/>
			<point x="176" y="528"/>
			<point x="58" y="372"/>
			<point x="58" y="185" type="curve" smooth="yes"/>
			<point x="58" y="52"/>
			<point x="118" y="-6"/>
			<point x="192" y="-6" type="curve" smooth="yes"/>
			<point x="270" y="-6"/>
			<point x="379" y="60"/>
			<point x="438" y="221" type="curve"/>
			<point x="433" y="221" type="line"/>
			<point x="392" y="-37" type="line" smooth="yes"/>
			<point x="372" y="-163"/>
			<point x="308" y="-217"/>
			<point x="209" y="-217" type="curve" smooth="yes"/>
			<point x="163" y="-217"/>
			<point x="110" y="-205"/>
			<point x="51" y="-184" type="curve"/>
			<point x="44" y="-205" type="line"/>
			<point x="105" y="-225"/>
			<point x="160" y="-236"/>
		</contour>
		<contour>
			<point x="193" y="13" type="curve" smooth="yes"/>
			<point x="130" y="13"/>
			<point x="79" y="64"/>
			<point x="79" y="186" type="curve" smooth="yes"/>
			<point x="79" y="363"/>
			<point x="187" y="509"/>
			<point x="336" y="509" type="curve" smooth="yes"/>
			<point x="381" y="509"/>
			<point x="428" y="496"/>
			<point x="478" y="467" type="curve"/>
			<point x="473" y="479" type="line"/>
			<point x="450" y="335" type="line"/>
			<point x="413" y="111"/>
			<point x="281" y="13"/>
		</contour>
	</outline>
</glyph>
<glyph name="k" format="2">
	<advance width="516"/>
	<unicode hex="006B"/>
	<anchor x="217" y="0" name="bottom"/>
	<anchor x="294" y="522" name="top"/>
	<outline>
		<contour>
			<point x="67" y="0" type="line"/>
			<point x="87" y="0" type="line"/>
			<point x="132" y="285" type="line"/>
			<point x="124" y="283" type="line"/>
			<point x="271" y="283" type="line"/>
			<point x="264" y="289" type="line"/>
			<point x="382" y="0" type="line"/>
			<point x="469" y="0" type="line"/>
			<point x="471" y="15" type="line"/>
			<point x="384" y="31" type="line"/>
			<point x="393" y="24" type="line"/>
			<point x="277" y="304" type="line"/>
			<point x="279" y="292" type="line"/>
			<point x="430" y="502" type="line"/>
			<point x="419" y="495" type="line"/>
			<point x="514" y="510" type="line"/>
			<point x="516" y="525" type="line"/>
			<point x="328" y="520" type="line"/>
			<point x="326" y="505" type="line"/>
			<point x="413" y="495" type="line"/>
			<point x="410" y="502" type="line"/>
			<point x="261" y="296" type="line"/>
			<point x="270" y="302" type="line"/>
			<point x="128" y="302" type="line"/>
			<point x="134" y="297" type="line"/>
			<point x="208" y="765" type="line"/>
			<point x="101" y="760" type="line"/>
			<point x="99" y="745" type="line"/>
			<point x="190" y="732" type="line"/>
			<point x="184" y="741" type="line"/>
		</contour>
	</outline>
</glyph>
<glyph name="t" format="2">
	<advance width="320"/>
	<unicode hex="0074"/>
	<guideline x="49" y="428" angle="261"/>
	<guideline x="146" y="334" angle="0"/>
	<guideline x="319" y="428" angle="261"/>
	<guideline x="148" y="428" angle="261"/>
	<guideline x="168" y="428" angle="261"/>
	<guideline x="360" y="428" angle="261"/>
	<anchor x="144" y="0" name="bottom"/>
	<anchor x="161" y="301" name="center"/>
	<anchor x="194" y="568" name="top"/>
	<anchor x="359" y="762" name="topright"/>
	<outline>
		<contour>
			<point x="265" y="25" type="curve"/>
			<point x="256" y="41" type="line"/>
			<point x="223" y="24"/>
			<point x="191" y="13"/>
			<point x="165" y="13" type="curve" smooth="yes"/>
			<point x="134" y="13"/>
			<point x="113" y="29"/>
			<point x="113" y="71" type="curve" smooth="yes"/>
			<point x="113" y="80"/>
			<point x="114" y="89"/>
			<point x="115" y="95" type="curve" smooth="yes"/>
			<point x="181" y="510" type="line"/>
			<point x="172" y="503" type="line"/>
			<point x="326" y="503" type="line"/>
			<point x="329" y="522" type="line"/>
			<point x="176" y="522" type="line"/>
			<point x="182" y="515" type="line"/>
			<point x="202" y="643" type="line"/>
			<point x="182" y="642" type="line"/>
			<point x="162" y="515" type="line"/>
			<point x="170" y="522" type="line"/>
			<point x="63" y="517" type="line"/>
			<point x="61" y="503" type="line"/>
			<point x="166" y="503" type="line"/>
			<point x="161" y="510" type="line"/>
			<point x="95" y="92" type="line" smooth="yes"/>
			<point x="94" y="85"/>
			<point x="93" y="78"/>
			<point x="93" y="68" type="curve" smooth="yes"/>
			<point x="93" y="18"/>
			<point x="120" y="-6"/>
			<point x="163" y="-6" type="curve" smooth="yes"/>
			<point x="191" y="-6"/>
			<point x="226" y="4"/>
		</contour>
	</outline>
</glyph>
<glyph name="u" format="2">
	<advance width="594"/>
	<unicode hex="0075"/>
	<guideline x="445" y="204" angle="261"/>
	<guideline x="183" y="574" angle="261"/>
	<anchor x="254" y="0" name="bottom"/>
	<anchor x="519" y="0" name="bottomright"/>
	<anchor x="439" y="0" name="ogonek"/>
	<anchor x="332" y="522" name="top"/>
	<anchor x="515" y="522" name="topright"/>
	<outline>
		<contour>
			<point x="208" y="-6" type="curve" smooth="yes"/>
			<point x="287" y="-4"/>
			<point x="392" y="56"/>
			<point x="453" y="221" type="curve"/>
			<point x="447" y="220" type="line"/>
			<point x="412" y="-2" type="line"/>
			<point x="519" y="2" type="line"/>
			<point x="521" y="17" type="line"/>
			<point x="431" y="29" type="line"/>
			<point x="436" y="22" type="line"/>
			<point x="515" y="522" type="line"/>
			<point x="495" y="522" type="line"/>
			<point x="465" y="335" type="line" smooth="yes"/>
			<point x="429" y="112"/>
			<point x="298" y="13"/>
			<point x="207" y="13" type="curve" smooth="yes"/>
			<point x="147" y="13"/>
			<point x="100" y="55"/>
			<point x="117" y="161" type="curve" smooth="yes"/>
			<point x="175" y="525" type="line"/>
			<point x="68" y="520" type="line"/>
			<point x="66" y="505" type="line"/>
			<point x="156" y="492" type="line"/>
			<point x="151" y="502" type="line"/>
			<point x="97" y="162" type="line" smooth="yes"/>
			<point x="78" y="44"/>
			<point x="133" y="-8"/>
		</contour>
	</outline>
</glyph>
<glyph name="z" format="2">
	<advance width="445"/>
	<unicode hex="007A"/>
	<anchor x="182" y="0" name="bottom"/>
	<anchor x="265" y="522" name="top"/>
	<outline>
		<contour>
			<point x="369" y="116" type="line"/>
			<point x="355" y="116" type="line"/>
			<point x="325" y="10" type="line"/>
			<point x="336" y="19" type="line"/>
			<point x="27" y="18" type="line"/>
			<point x="29" y="11" type="line"/>
			<point x="425" y="506" type="line"/>
			<point x="427" y="522" type="line"/>
			<point x="100" y="522" type="line"/>
			<point x="84" y="419" type="line"/>
			<point x="99" y="419" type="line"/>
			<point x="126" y="513" type="line"/>
			<point x="115" y="504" type="line"/>
			<point x="410" y="504" type="line"/>
			<point x="406" y="511" type="line"/>
			<point x="8" y="15" type="line"/>
			<point x="6" y="0" type="line"/>
			<point x="352" y="1" type="line"/>
		</contour>
	</outline>
</glyph>
<glyph name="braceleft" format="2">
	<advance width="295"/>
	<unicode hex="007B"/>
	<guideline x="349" y="838" angle="0"/>
	<guideline x="-352" y="-94" angle="0"/>
	<guideline x="234" y="307" angle="261"/>
	<outline>
		<contour>
			<point x="143" y="-94" type="curve" smooth="yes"/>
			<point x="170" y="-94" type="line"/>
			<point x="173" y="-78" type="line"/>
			<point x="78" y="-78"/>
			<point x="64" y="-60"/>
			<point x="78" y="30" type="curve" smooth="yes"/>
			<point x="114" y="258" type="line" smooth="yes"/>
			<point x="131" y="363"/>
			<point x="80" y="376"/>
			<point x="37" y="376" type="curve"/>
			<point x="37" y="368" type="line"/>
			<point x="80" y="368"/>
			<point x="133" y="379"/>
			<point x="150" y="484" type="curve" smooth="yes"/>
			<point x="186" y="712" type="line" smooth="yes"/>
			<point x="200" y="802"/>
			<point x="222" y="822"/>
			<point x="316" y="822" type="curve"/>
			<point x="318" y="838" type="line"/>
			<point x="289" y="838" type="line" smooth="yes"/>
			<point x="213" y="838"/>
			<point x="181" y="809"/>
			<point x="167" y="719" type="curve" smooth="yes"/>
			<point x="131" y="490" type="line" smooth="yes"/>
			<point x="121" y="428"/>
			<point x="93" y="382"/>
			<point x="25" y="382" type="curve"/>
			<point x="22" y="362" type="line"/>
			<point x="91" y="362"/>
			<point x="104" y="318"/>
			<point x="94" y="256" type="curve" smooth="yes"/>
			<point x="58" y="27" type="line" smooth="yes"/>
			<point x="42" y="-72"/>
			<point x="74" y="-94"/>
		</contour>
	</outline>
</glyph>
<glyph name="asciitilde" format="2">
	<advance width="707"/>
	<unicode hex="007E"/>
	<guideline x="126" y="330" angle="0"/>
	<guideline x="73" y="257" angle="0"/>
	<guideline x="73" y="257" angle="0"/>
	<guideline x="73" y="257" angle="0"/>
	<outline>
		<contour>
			<point x="473" y="302" type="curve" smooth="yes"/>
			<point x="517" y="302"/>
			<point x="558" y="326"/>
			<point x="597" y="374" type="curve"/>
			<point x="584" y="385" type="line"/>
			<point x="543" y="336"/>
			<point x="508" y="320"/>
			<point x="476" y="320" type="curve" smooth="yes"/>
			<point x="403" y="320"/>
			<point x="345" y="402"/>
			<point x="263" y="402" type="curve" smooth="yes"/>
			<point x="216" y="402"/>
			<point x="176" y="375"/>
			<point x="139" y="330" type="curve"/>
			<point x="153" y="319" type="line"/>
			<point x="194" y="369"/>
			<point x="229" y="384"/>
			<point x="261" y="384" type="curve" smooth="yes"/>
			<point x="333" y="384"/>
			<point x="391" y="302"/>
		</contour>
	</outline>
</glyph>
<glyph name="cent" format="2">
	<advance width="576"/>
	<unicode hex="00A2"/>
	<outline>
		<contour>
			<point x="251" y="-20" type="line"/>
			<point x="268" y="-20" type="line"/>
			<point x="290" y="118" type="line"/>
			<point x="284" y="109" type="line"/>
			<point x="340" y="112"/>
			<point x="402" y="134"/>
			<point x="470" y="181" type="curve"/>
			<point x="461" y="197" type="line"/>
			<point x="394" y="151"/>
			<point x="333" y="129"/>
			<point x="278" y="129" type="curve" smooth="yes"/>
			<point x="181" y="129"/>
			<point x="122" y="198"/>
			<point x="122" y="302" type="curve" smooth="yes"/>
			<point x="122" y="446"/>
			<point x="222" y="584"/>
			<point x="366" y="584" type="curve" smooth="yes"/>
			<point x="398" y="584"/>
			<point x="445" y="577"/>
			<point x="484" y="556" type="curve"/>
			<point x="478" y="457" type="line"/>
			<point x="496" y="457" type="line"/>
			<point x="515" y="561" type="line"/>
			<point x="475" y="589"/>
			<point x="421" y="603"/>
			<point x="357" y="603" type="curve"/>
			<point x="365" y="594" type="line"/>
			<point x="387" y="731" type="line"/>
			<point x="370" y="731" type="line"/>
			<point x="348" y="593" type="line"/>
			<point x="355" y="602" type="line"/>
			<point x="205" y="593"/>
			<point x="102" y="453"/>
			<point x="102" y="298" type="curve" smooth="yes"/>
			<point x="102" y="182"/>
			<point x="169" y="108"/>
			<point x="277" y="109" type="curve"/>
			<point x="272" y="118" type="line"/>
		</contour>
	</outline>
</glyph>
<glyph name="section" format="2">
	<advance width="560"/>
	<unicode hex="00A7"/>
	<guideline x="-224" y="-170" angle="0"/>
	<outline>
		<contour>
			<point x="179" y="-175" type="curve" smooth="yes"/>
			<point x="294" y="-175"/>
			<point x="377" y="-112"/>
			<point x="377" y="-4" type="curve" smooth="yes"/>
			<point x="377" y="143"/>
			<point x="141" y="159"/>
			<point x="141" y="288" type="curve" smooth="yes"/>
			<point x="141" y="356"/>
			<point x="205" y="412"/>
			<point x="256" y="442" type="curve"/>
			<point x="238" y="453" type="line"/>
			<point x="181" y="417"/>
			<point x="120" y="360"/>
			<point x="120" y="285" type="curve" smooth="yes"/>
			<point x="120" y="144"/>
			<point x="356" y="128"/>
			<point x="356" y="-6" type="curve" smooth="yes"/>
			<point x="356" y="-96"/>
			<point x="284" y="-156"/>
			<point x="183" y="-156" type="curve" smooth="yes"/>
			<point x="151" y="-156"/>
			<point x="117" y="-151"/>
			<point x="83" y="-141" type="curve"/>
			<point x="88" y="-150" type="line"/>
			<point x="97" y="-42" type="line"/>
			<point x="81" y="-42" type="line"/>
			<point x="57" y="-155" type="line"/>
			<point x="98" y="-168"/>
			<point x="140" y="-175"/>
		</contour>
		<contour>
			<point x="338" y="84" type="line"/>
			<point x="389" y="120"/>
			<point x="445" y="181"/>
			<point x="445" y="255" type="curve" smooth="yes"/>
			<point x="445" y="405"/>
			<point x="209" y="419"/>
			<point x="209" y="547" type="curve" smooth="yes"/>
			<point x="209" y="630"/>
			<point x="276" y="679"/>
			<point x="369" y="679" type="curve" smooth="yes"/>
			<point x="399" y="679"/>
			<point x="436" y="672"/>
			<point x="470" y="661" type="curve"/>
			<point x="465" y="670" type="line"/>
			<point x="462" y="581" type="line"/>
			<point x="478" y="581" type="line"/>
			<point x="495" y="670" type="line"/>
			<point x="454" y="689"/>
			<point x="409" y="698"/>
			<point x="371" y="698" type="curve" smooth="yes"/>
			<point x="267" y="698"/>
			<point x="188" y="643"/>
			<point x="188" y="546" type="curve" smooth="yes"/>
			<point x="188" y="407"/>
			<point x="424" y="387"/>
			<point x="424" y="255" type="curve" smooth="yes"/>
			<point x="424" y="188"/>
			<point x="369" y="130"/>
			<point x="324" y="96" type="curve"/>
		</contour>
	</outline>
</glyph>
<glyph name="dieresis" format="2">
	<advance width="418"/>
	<unicode hex="00A8"/>
	<guideline x="358" y="722" angle="0"/>
	<guideline x="315" y="663" angle="0"/>
	<guideline x="249" y="516" angle="261"/>
	<guideline x="358" y="516" angle="261"/>
	<guideline x="140" y="516" angle="261"/>
	<outline>
		<contour>
			<point x="190" y="663" type="curve" smooth="yes"/>
			<point x="206" y="663"/>
			<point x="218" y="678"/>
			<point x="218" y="696" type="curve" smooth="yes"/>
			<point x="218" y="712"/>
			<point x="209" y="722"/>
			<point x="196" y="722" type="curve" smooth="yes"/>
			<point x="180" y="722"/>
			<point x="168" y="708"/>
			<point x="168" y="690" type="curve" smooth="yes"/>
			<point x="168" y="674"/>
			<point x="177" y="663"/>
		</contour>
		<contour>
			<point x="359" y="663" type="curve" smooth="yes"/>
			<point x="375" y="663"/>
			<point x="387" y="678"/>
			<point x="387" y="696" type="curve" smooth="yes"/>
			<point x="387" y="712"/>
			<point x="378" y="722"/>
			<point x="365" y="722" type="curve" smooth="yes"/>
			<point x="349" y="722"/>
			<point x="337" y="708"/>
			<point x="337" y="690" type="curve" smooth="yes"/>
			<point x="337" y="674"/>
			<point x="346" y="663"/>
		</contour>
	</outline>
</glyph>
<glyph name="copyright" format="2">
	<advance width="913"/>
	<unicode hex="00A9"/>
	<outline>
		<contour>
			<point x="470" y="164" type="curve" smooth="yes"/>
			<point x="513" y="164"/>
			<point x="560" y="180"/>
			<point x="605" y="214" type="curve"/>
			<point x="594" y="229" type="line"/>
			<point x="552" y="198"/>
			<point x="509" y="183"/>
			<point x="471" y="183" type="curve" smooth="yes"/>
			<point x="396" y="183"/>
			<point x="338" y="239"/>
			<point x="338" y="344" type="curve" smooth="yes"/>
			<point x="338" y="449"/>
			<point x="396" y="513"/>
			<point x="483" y="513" type="curve" smooth="yes"/>
			<point x="510" y="513"/>
			<point x="540" y="507"/>
			<point x="572" y="493" type="curve"/>
			<point x="564" y="499" type="line"/>
			<point x="572" y="422" type="line"/>
			<point x="589" y="422" type="line"/>
			<point x="591" y="504" type="line"/>
			<point x="553" y="523"/>
			<point x="516" y="532"/>
			<point x="482" y="532" type="curve" smooth="yes"/>
			<point x="387" y="532"/>
			<point x="317" y="461"/>
			<point x="317" y="343" type="curve" smooth="yes"/>
			<point x="317" y="228"/>
			<point x="385" y="164"/>
		</contour>
		<contour>
			<point x="459" y="-6" type="curve" smooth="yes"/>
			<point x="670" y="-6"/>
			<point x="830" y="149"/>
			<point x="830" y="353" type="curve" smooth="yes"/>
			<point x="830" y="551"/>
			<point x="680" y="698"/>
			<point x="475" y="698" type="curve" smooth="yes"/>
			<point x="266" y="698"/>
			<point x="112" y="546"/>
			<point x="112" y="338" type="curve" smooth="yes"/>
			<point x="112" y="138"/>
			<point x="255" y="-6"/>
		</contour>
		<contour>
			<point x="461" y="13" type="curve" smooth="yes"/>
			<point x="267" y="13"/>
			<point x="133" y="151"/>
			<point x="133" y="341" type="curve" smooth="yes"/>
			<point x="133" y="536"/>
			<point x="275" y="679"/>
			<point x="473" y="679" type="curve" smooth="yes"/>
			<point x="667" y="679"/>
			<point x="809" y="541"/>
			<point x="809" y="352" type="curve" smooth="yes"/>
			<point x="809" y="157"/>
			<point x="659" y="13"/>
		</contour>
	</outline>
</glyph>
<glyph name="ordfeminine" format="2">
	<advance width="470"/>
	<unicode hex="00AA"/>
	<guideline x="211" y="317" angle="0"/>
	<outline>
		<contour>
			<point x="75" y="201" type="line"/>
			<point x="405" y="201" type="line"/>
			<point x="408" y="220" type="line"/>
			<point x="78" y="220" type="line"/>
		</contour>
		<contour>
			<point x="190" y="317" type="curve" smooth="yes"/>
			<point x="252" y="317"/>
			<point x="333" y="364"/>
			<point x="378" y="479" type="curve"/>
			<point x="370" y="478" type="line"/>
			<point x="344" y="320" type="line"/>
			<point x="424" y="322" type="line"/>
			<point x="426" y="335" type="line"/>
			<point x="356" y="344" type="line"/>
			<point x="364" y="335" type="line"/>
			<point x="424" y="694" type="line"/>
			<point x="411" y="694" type="line"/>
			<point x="401" y="666" type="line"/>
			<point x="407" y="668" type="line"/>
			<point x="366" y="691"/>
			<point x="331" y="699"/>
			<point x="299" y="699" type="curve" smooth="yes"/>
			<point x="178" y="699"/>
			<point x="90" y="587"/>
			<point x="90" y="453" type="curve" smooth="yes"/>
			<point x="90" y="358"/>
			<point x="135" y="317"/>
		</contour>
		<contour>
			<point x="191" y="336" type="curve" smooth="yes"/>
			<point x="147" y="336"/>
			<point x="110" y="371"/>
			<point x="110" y="454" type="curve" smooth="yes"/>
			<point x="110" y="576"/>
			<point x="189" y="680"/>
			<point x="298" y="680" type="curve" smooth="yes"/>
			<point x="332" y="680"/>
			<point x="367" y="671"/>
			<point x="405" y="650" type="curve"/>
			<point x="401" y="663" type="line"/>
			<point x="384" y="561" type="line" smooth="yes"/>
			<point x="358" y="404"/>
			<point x="257" y="336"/>
		</contour>
	</outline>
</glyph>
<glyph name="logicalnot" format="2">
	<advance width="684"/>
	<unicode hex="00AC"/>
	<outline>
		<contour>
			<point x="522" y="339" type="line"/>
			<point x="82" y="339" type="line"/>
			<point x="85" y="358" type="line"/>
			<point x="537" y="358" type="line"/>
			<point x="498" y="112" type="line"/>
			<point x="478" y="112" type="line"/>
			<point x="516" y="349" type="line"/>
		</contour>
	</outline>
</glyph>
<glyph name="degree" format="2">
	<advance width="414"/>
	<unicode hex="00B0"/>
	<outline>
		<contour>
			<point x="215" y="457" type="curve" smooth="yes"/>
			<point x="305" y="457"/>
			<point x="368" y="529"/>
			<point x="368" y="616" type="curve" smooth="yes"/>
			<point x="368" y="686"/>
			<point x="327" y="728"/>
			<point x="259" y="728" type="curve" smooth="yes"/>
			<point x="171" y="728"/>
			<point x="106" y="659"/>
			<point x="106" y="569" type="curve" smooth="yes"/>
			<point x="106" y="498"/>
			<point x="147" y="457"/>
		</contour>
		<contour>
			<point x="217" y="475" type="curve" smooth="yes"/>
			<point x="158" y="475"/>
			<point x="124" y="511"/>
			<point x="124" y="571" type="curve" smooth="yes"/>
			<point x="124" y="643"/>
			<point x="174" y="710"/>
			<point x="257" y="710" type="curve" smooth="yes"/>
			<point x="315" y="710"/>
			<point x="349" y="676"/>
			<point x="349" y="616" type="curve" smooth="yes"/>
			<point x="349" y="543"/>
			<point x="299" y="475"/>
		</contour>
	</outline>
</glyph>
<glyph name="plusminus" format="2">
	<advance width="581"/>
	<unicode hex="00B1"/>
	<guideline x="116" y="472" angle="261"/>
	<guideline x="331" y="466" angle="261"/>
	<guideline x="530" y="455" angle="261"/>
	<guideline x="311" y="466" angle="261"/>
	<outline>
		<contour>
			<point x="311" y="393" type="line"/>
			<point x="103" y="393" type="line"/>
			<point x="100" y="374" type="line"/>
			<point x="307" y="374" type="line"/>
			<point x="298" y="382" type="line"/>
			<point x="263" y="159" type="line"/>
			<point x="282" y="159" type="line"/>
			<point x="318" y="383" type="line"/>
			<point x="308" y="374" type="line"/>
			<point x="517" y="374" type="line"/>
			<point x="520" y="393" type="line"/>
			<point x="312" y="393" type="line"/>
			<point x="319" y="387" type="line"/>
			<point x="353" y="608" type="line"/>
			<point x="334" y="608" type="line"/>
			<point x="299" y="387" type="line"/>
		</contour>
		<contour>
			<point x="469" y="67" type="line"/>
			<point x="52" y="67" type="line"/>
			<point x="49" y="48" type="line"/>
			<point x="466" y="48" type="line"/>
		</contour>
	</outline>
</glyph>
<glyph name="Eth" format="2">
	<advance width="718"/>
	<unicode hex="00D0"/>
	<guideline x="371" y="231" angle="261"/>
	<guideline x="58" y="231" angle="261"/>
	<guideline x="490" y="378" angle="0"/>
	<anchor x="297" y="0" name="bottom"/>
	<anchor x="230" y="355" name="center"/>
	<anchor x="386" y="691" name="top"/>
	<outline>
		<contour>
			<point x="393" y="692" type="curve" smooth="yes"/>
			<point x="275" y="692" type="line"/>
			<point x="130" y="687" type="line"/>
			<point x="128" y="672" type="line"/>
			<point x="229" y="663" type="line"/>
			<point x="224" y="671" type="line"/>
			<point x="121" y="21" type="line"/>
			<point x="129" y="29" type="line"/>
			<point x="24" y="15" type="line"/>
			<point x="22" y="0" type="line"/>
			<point x="295" y="0" type="line" smooth="yes"/>
			<point x="517" y="0"/>
			<point x="659" y="210"/>
			<point x="659" y="429" type="curve" smooth="yes"/>
			<point x="659" y="616"/>
			<point x="555" y="692"/>
		</contour>
		<contour>
			<point x="297" y="19" type="curve" smooth="yes"/>
			<point x="133" y="19" type="line"/>
			<point x="139" y="14" type="line"/>
			<point x="244" y="678" type="line"/>
			<point x="236" y="673" type="line"/>
			<point x="387" y="673" type="line" smooth="yes"/>
			<point x="543" y="673"/>
			<point x="638" y="598"/>
			<point x="638" y="426" type="curve" smooth="yes"/>
			<point x="638" y="220"/>
			<point x="502" y="19"/>
		</contour>
		<contour>
			<point x="76" y="345" type="line"/>
			<point x="378.194" y="345" type="line"/>
			<point x="381.291" y="364" type="line"/>
			<point x="79" y="364" type="line"/>
		</contour>
	</outline>
</glyph>
<glyph name="Thorn" format="2">
	<advance width="557"/>
	<unicode hex="00DE"/>
	<anchor x="128" y="0" name="bottom"/>
	<anchor x="237" y="692" name="top"/>
	<outline>
		<contour>
			<point x="22" y="0" type="line"/>
			<point x="234" y="0" type="line"/>
			<point x="236" y="15" type="line"/>
			<point x="136" y="29" type="line"/>
			<point x="141" y="21" type="line"/>
			<point x="162" y="154" type="line"/>
			<point x="152" y="149" type="line"/>
			<point x="251" y="149" type="line" smooth="yes"/>
			<point x="415" y="149"/>
			<point x="526" y="254"/>
			<point x="526" y="397" type="curve" smooth="yes"/>
			<point x="526" y="501"/>
			<point x="468" y="556"/>
			<point x="346" y="556" type="curve" smooth="yes"/>
			<point x="217" y="556" type="line"/>
			<point x="225" y="551" type="line"/>
			<point x="244" y="671" type="line"/>
			<point x="236" y="663" type="line"/>
			<point x="341" y="677" type="line"/>
			<point x="343" y="692" type="line"/>
			<point x="130" y="687" type="line"/>
			<point x="128" y="672" type="line"/>
			<point x="230" y="663" type="line"/>
			<point x="224" y="671" type="line"/>
			<point x="121" y="21" type="line"/>
			<point x="130" y="29" type="line"/>
			<point x="24" y="15" type="line"/>
		</contour>
		<contour>
			<point x="163" y="160" type="line"/>
			<point x="224" y="545" type="line"/>
			<point x="214" y="537" type="line"/>
			<point x="343" y="537" type="line" smooth="yes"/>
			<point x="450" y="537"/>
			<point x="505" y="490"/>
			<point x="505" y="395" type="curve" smooth="yes"/>
			<point x="505" y="267"/>
			<point x="405" y="168"/>
			<point x="253" y="168" type="curve" smooth="yes"/>
			<point x="155" y="168" type="line"/>
		</contour>
	</outline>
</glyph>
<glyph name="ae" format="2">
	<advance width="791"/>
	<unicode hex="00E6"/>
	<guideline x="522" y="248" angle="0"/>
	<anchor x="351" y="0" name="bottom"/>
	<anchor x="433" y="522" name="top"/>
	<outline>
		<contour>
			<point x="373" y="166" type="curve"/>
			<point x="361" y="192" type="line"/>
			<point x="361" y="122"/>
			<point x="246" y="13"/>
			<point x="169" y="13" type="curve" smooth="yes"/>
			<point x="99" y="13"/>
			<point x="63" y="51"/>
			<point x="63" y="113" type="curve" smooth="yes"/>
			<point x="63" y="227"/>
			<point x="219" y="239"/>
			<point x="363" y="239" type="curve" smooth="yes"/>
			<point x="373" y="239" type="line"/>
			<point x="365" y="247" type="line"/>
			<point x="362" y="228"/>
			<point x="361" y="207"/>
			<point x="361" y="192" type="curve" smooth="yes"/>
			<point x="361" y="69"/>
			<point x="426" y="-6"/>
			<point x="531" y="-6" type="curve" smooth="yes"/>
			<point x="582" y="-6"/>
			<point x="640" y="12"/>
			<point x="699" y="47" type="curve"/>
			<point x="690" y="63" type="line"/>
			<point x="635" y="30"/>
			<point x="580" y="13"/>
			<point x="533" y="13" type="curve" smooth="yes"/>
			<point x="445" y="13"/>
			<point x="382" y="71"/>
			<point x="382" y="195" type="curve" smooth="yes"/>
			<point x="382" y="213"/>
			<point x="383" y="230"/>
			<point x="386" y="248" type="curve"/>
			<point x="379" y="242" type="line"/>
			<point x="539" y="246"/>
			<point x="763" y="271"/>
			<point x="763" y="416" type="curve" smooth="yes"/>
			<point x="763" y="485"/>
			<point x="713" y="528"/>
			<point x="630" y="528" type="curve" smooth="yes"/>
			<point x="525" y="528"/>
			<point x="445" y="457"/>
			<point x="401" y="367" type="curve"/>
			<point x="403" y="364" type="line"/>
			<point x="406" y="394"/>
			<point x="410" y="409"/>
			<point x="410" y="430" type="curve" smooth="yes"/>
			<point x="410" y="490"/>
			<point x="364" y="528"/>
			<point x="296" y="528" type="curve" smooth="yes"/>
			<point x="247" y="528"/>
			<point x="186" y="514"/>
			<point x="122" y="491" type="curve"/>
			<point x="116" y="392" type="line"/>
			<point x="133" y="392" type="line"/>
			<point x="153" y="490" type="line"/>
			<point x="145" y="479" type="line"/>
			<point x="194" y="497"/>
			<point x="245" y="509"/>
			<point x="290" y="509" type="curve" smooth="yes"/>
			<point x="354" y="509"/>
			<point x="389" y="477"/>
			<point x="389" y="422" type="curve" smooth="yes"/>
			<point x="389" y="379"/>
			<point x="373" y="317"/>
			<point x="365" y="253" type="curve"/>
			<point x="375" y="258" type="line"/>
			<point x="363" y="258" type="line" smooth="yes"/>
			<point x="211" y="258"/>
			<point x="42" y="248"/>
			<point x="42" y="111" type="curve" smooth="yes"/>
			<point x="42" y="36"/>
			<point x="87" y="-6"/>
			<point x="165" y="-6" type="curve" smooth="yes"/>
			<point x="247" y="-6"/>
			<point x="373" y="102"/>
		</contour>
		<contour>
			<point x="387" y="255" type="line"/>
			<point x="407" y="388"/>
			<point x="495" y="509"/>
			<point x="627" y="509" type="curve" smooth="yes"/>
			<point x="697" y="509"/>
			<point x="742" y="475"/>
			<point x="742" y="415" type="curve" smooth="yes"/>
			<point x="742" y="281"/>
			<point x="516" y="265"/>
			<point x="382" y="261" type="curve"/>
		</contour>
	</outline>
</glyph>
<glyph name="idieresis" format="2">
	<advance width="263"/>
	<unicode hex="00EF"/>
	<outline>
		<contour>
			<point x="80" y="-2" type="line"/>
			<point x="187" y="2" type="line"/>
			<point x="189" y="17" type="line"/>
			<point x="99" y="29" type="line"/>
			<point x="104" y="22" type="line"/>
			<point x="184" y="525" type="line"/>
			<point x="77" y="520" type="line"/>
			<point x="75" y="505" type="line"/>
			<point x="168" y="492" type="line"/>
			<point x="160" y="502" type="line"/>
		</contour>
		<contour>
			<point x="114" y="663" type="curve" smooth="yes"/>
			<point x="130" y="663"/>
			<point x="142" y="678"/>
			<point x="142" y="696" type="curve" smooth="yes"/>
			<point x="142" y="712"/>
			<point x="133" y="722"/>
			<point x="120" y="722" type="curve" smooth="yes"/>
			<point x="104" y="722"/>
			<point x="92" y="708"/>
			<point x="92" y="690" type="curve" smooth="yes"/>
			<point x="92" y="674"/>
			<point x="101" y="663"/>
		</contour>
		<contour>
			<point x="271" y="663" type="curve" smooth="yes"/>
			<point x="287" y="663"/>
			<point x="299" y="678"/>
			<point x="299" y="696" type="curve" smooth="yes"/>
			<point x="299" y="712"/>
			<point x="290" y="722"/>
			<point x="277" y="722" type="curve" smooth="yes"/>
			<point x="261" y="722"/>
			<point x="249" y="708"/>
			<point x="249" y="690" type="curve" smooth="yes"/>
			<point x="249" y="674"/>
			<point x="258" y="663"/>
		</contour>
	</outline>
</glyph>
<glyph name="oslash" format="2">
	<advance width="580"/>
	<unicode hex="00F8"/>
	<guideline x="81" y="231" angle="261"/>
	<guideline x="499" y="229" angle="261"/>
	<guideline x="286" y="229" angle="261"/>
	<anchor x="331.338" y="522" name="top"/>
	<outline>
		<contour>
			<point x="522" y="590" type="line"/>
			<point x="442" y="482" type="line"/>
			<point x="438" y="477" type="line"/>
			<point x="128" y="60" type="line"/>
			<point x="123" y="53" type="line"/>
			<point x="39" y="-60" type="line"/>
			<point x="53" y="-71" type="line"/>
			<point x="134" y="39" type="line"/>
			<point x="139" y="45" type="line"/>
			<point x="451" y="465" type="line"/>
			<point x="455" y="470" type="line"/>
			<point x="537" y="580" type="line"/>
		</contour>
		<contour>
			<point x="333" y="528" type="curve" smooth="yes"/>
			<point x="166" y="528"/>
			<point x="76" y="367"/>
			<point x="76" y="205" type="curve" smooth="yes"/>
			<point x="76" y="58"/>
			<point x="147" y="-6"/>
			<point x="248" y="-6" type="curve" smooth="yes"/>
			<point x="416" y="-6"/>
			<point x="505" y="157"/>
			<point x="505" y="318" type="curve" smooth="yes"/>
			<point x="505" y="461"/>
			<point x="437" y="528"/>
		</contour>
		<contour>
			<point x="330" y="509" type="curve" smooth="yes"/>
			<point x="431" y="509"/>
			<point x="484" y="441"/>
			<point x="484" y="315" type="curve" smooth="yes"/>
			<point x="484" y="163"/>
			<point x="399" y="13"/>
			<point x="252" y="13" type="curve" smooth="yes"/>
			<point x="152" y="13"/>
			<point x="97" y="82"/>
			<point x="97" y="208" type="curve" smooth="yes"/>
			<point x="97" y="358"/>
			<point x="180" y="509"/>
		</contour>
	</outline>
</glyph>
<glyph name="dcroat" format="2">
	<advance width="583"/>
	<unicode hex="0111"/>
	<guideline x="551" y="316" angle="261"/>
	<outline>
		<contour>
			<point x="192" y="-6" type="curve" smooth="yes"/>
			<point x="270" y="-6"/>
			<point x="379" y="60"/>
			<point x="438" y="221" type="curve"/>
			<point x="432" y="220" type="line"/>
			<point x="397" y="-2" type="line"/>
			<point x="504" y="2" type="line"/>
			<point x="506" y="17" type="line"/>
			<point x="413" y="29" type="line"/>
			<point x="420" y="19" type="line"/>
			<point x="538" y="765" type="line"/>
			<point x="426" y="760" type="line"/>
			<point x="424" y="746" type="line"/>
			<point x="520" y="732" type="line"/>
			<point x="514" y="739" type="line"/>
			<point x="473" y="480" type="line"/>
			<point x="481" y="485" type="line"/>
			<point x="427" y="517"/>
			<point x="380" y="528"/>
			<point x="337" y="528" type="curve" smooth="yes"/>
			<point x="176" y="528"/>
			<point x="58" y="372"/>
			<point x="58" y="185" type="curve" smooth="yes"/>
			<point x="58" y="52"/>
			<point x="118" y="-6"/>
		</contour>
		<contour>
			<point x="193" y="13" type="curve" smooth="yes"/>
			<point x="130" y="13"/>
			<point x="79" y="64"/>
			<point x="79" y="186" type="curve" smooth="yes"/>
			<point x="79" y="363"/>
			<point x="187" y="509"/>
			<point x="336" y="509" type="curve" smooth="yes"/>
			<point x="381" y="509"/>
			<point x="428" y="496"/>
			<point x="478" y="467" type="curve"/>
			<point x="473" y="479" type="line"/>
			<point x="450" y="335" type="line"/>
			<point x="413" y="111"/>
			<point x="281" y="13"/>
		</contour>
		<contour>
			<point x="295" y="622" type="line"/>
			<point x="605" y="622" type="line"/>
			<point x="608" y="641" type="line"/>
			<point x="298" y="641" type="line"/>
		</contour>
	</outline>
</glyph>
<glyph name="hbar" format="2">
	<advance width="581"/>
	<unicode hex="0127"/>
	<guideline x="175" y="574" angle="261"/>
	<guideline x="73" y="574" angle="261"/>
	<outline>
		<contour>
			<point x="407" y="-2" type="line"/>
			<point x="514" y="2" type="line"/>
			<point x="516" y="17" type="line"/>
			<point x="423" y="29" type="line"/>
			<point x="430" y="19" type="line"/>
			<point x="485" y="360" type="line" smooth="yes"/>
			<point x="504" y="477"/>
			<point x="448" y="528"/>
			<point x="375" y="528" type="curve" smooth="yes"/>
			<point x="297" y="528"/>
			<point x="192" y="470"/>
			<point x="129" y="301" type="curve"/>
			<point x="134" y="302" type="line"/>
			<point x="209" y="765" type="line"/>
			<point x="102" y="760" type="line"/>
			<point x="100" y="745" type="line"/>
			<point x="191" y="732" type="line"/>
			<point x="185" y="742" type="line"/>
			<point x="67" y="0" type="line"/>
			<point x="87" y="0" type="line"/>
			<point x="117" y="187" type="line" smooth="yes"/>
			<point x="153" y="412"/>
			<point x="284" y="509"/>
			<point x="375" y="509" type="curve" smooth="yes"/>
			<point x="435" y="509"/>
			<point x="482" y="467"/>
			<point x="465" y="361" type="curve" smooth="yes"/>
		</contour>
		<contour>
			<point x="81" y="622" type="line"/>
			<point x="383" y="622" type="line"/>
			<point x="386" y="641" type="line"/>
			<point x="84" y="641" type="line"/>
		</contour>
	</outline>
</glyph>
<glyph name="iogonek" format="2">
	<advance width="263"/>
	<unicode hex="012F"/>
	<guideline x="245" y="394" angle="260.9759"/>
	<outline>
		<contour>
			<point x="80" y="-2" type="line"/>
			<point x="187" y="2" type="line"/>
			<point x="189" y="17" type="line"/>
			<point x="96" y="29" type="line"/>
			<point x="103" y="19" type="line"/>
			<point x="184" y="525" type="line"/>
			<point x="77" y="520" type="line"/>
			<point x="75" y="505" type="line"/>
			<point x="168" y="492" type="line"/>
			<point x="160" y="502" type="line"/>
		</contour>
		<contour>
			<point x="79" y="-216" type="curve" smooth="yes"/>
			<point x="95" y="-216"/>
			<point x="111" y="-214"/>
			<point x="128" y="-211" type="curve"/>
			<point x="127" y="-193" type="line"/>
			<point x="113" y="-196"/>
			<point x="100" y="-197"/>
			<point x="89" y="-197" type="curve" smooth="yes"/>
			<point x="36" y="-197"/>
			<point x="8" y="-174"/>
			<point x="8" y="-134" type="curve" smooth="yes"/>
			<point x="8" y="-84"/>
			<point x="51" y="-28"/>
			<point x="134" y="7" type="curve"/>
			<point x="113" y="16" type="line"/>
			<point x="31" y="-21"/>
			<point x="-13" y="-83"/>
			<point x="-13" y="-138" type="curve" smooth="yes"/>
			<point x="-13" y="-185"/>
			<point x="18" y="-216"/>
		</contour>
		<contour>
			<point x="196" y="663" type="curve" smooth="yes"/>
			<point x="213" y="663"/>
			<point x="225" y="677"/>
			<point x="225" y="696" type="curve" smooth="yes"/>
			<point x="225" y="712"/>
			<point x="216" y="722"/>
			<point x="202" y="722" type="curve" smooth="yes"/>
			<point x="185" y="722"/>
			<point x="173" y="707"/>
			<point x="173" y="689" type="curve" smooth="yes"/>
			<point x="173" y="673"/>
			<point x="182" y="663"/>
		</contour>
	</outline>
</glyph>
<glyph name="kgreenlandic" format="2">
	<advance width="529"/>
	<unicode hex="0138"/>
	<guideline x="533" y="297" angle="0"/>
	<outline>
		<contour>
			<point x="80" y="0" type="line"/>
			<point x="100" y="0" type="line"/>
			<point x="145" y="287" type="line"/>
			<point x="137" y="278" type="line"/>
			<point x="284" y="278" type="line"/>
			<point x="277" y="285" type="line"/>
			<point x="395" y="0" type="line"/>
			<point x="482" y="0" type="line"/>
			<point x="484" y="15" type="line"/>
			<point x="397" y="31" type="line"/>
			<point x="406" y="24" type="line"/>
			<point x="290" y="300" type="line"/>
			<point x="292" y="288" type="line"/>
			<point x="443" y="502" type="line"/>
			<point x="432" y="495" type="line"/>
			<point x="527" y="510" type="line"/>
			<point x="529" y="525" type="line"/>
			<point x="341" y="520" type="line"/>
			<point x="339" y="505" type="line"/>
			<point x="426" y="495" type="line"/>
			<point x="423" y="502" type="line"/>
			<point x="274" y="292" type="line"/>
			<point x="283" y="297" type="line"/>
			<point x="141" y="297" type="line"/>
			<point x="145" y="287" type="line"/>
			<point x="183" y="525" type="line"/>
			<point x="76" y="520" type="line"/>
			<point x="74" y="505" type="line"/>
			<point x="165" y="492" type="line"/>
			<point x="159" y="501" type="line"/>
		</contour>
	</outline>
</glyph>
<glyph name="lslash" format="2">
	<advance width="284"/>
	<unicode hex="0142"/>
	<guideline x="178" y="481" angle="261"/>
	<outline>
		<contour>
			<point x="85" y="-2" type="line"/>
			<point x="192" y="2" type="line"/>
			<point x="194" y="17" type="line"/>
			<point x="104" y="29" type="line"/>
			<point x="109" y="22" type="line"/>
			<point x="227" y="765" type="line"/>
			<point x="120" y="760" type="line"/>
			<point x="118" y="745" type="line"/>
			<point x="209" y="732" type="line"/>
			<point x="203" y="741" type="line"/>
		</contour>
		<contour>
			<point x="51" y="334" type="line"/>
			<point x="265" y="438" type="line"/>
			<point x="261" y="455" type="line"/>
			<point x="47" y="351" type="line"/>
		</contour>
	</outline>
</glyph>
<glyph name="eng" format="2">
	<advance width="590"/>
	<unicode hex="014B"/>
	<outline>
		<contour>
			<point x="281" y="-236" type="curve" smooth="yes"/>
			<point x="372" y="-236"/>
			<point x="410" y="-187"/>
			<point x="428" y="-75" type="curve" smooth="yes"/>
			<point x="498" y="360" type="line" smooth="yes"/>
			<point x="517" y="477"/>
			<point x="462" y="528"/>
			<point x="388" y="528" type="curve" smooth="yes"/>
			<point x="310" y="528"/>
			<point x="205" y="470"/>
			<point x="142" y="301" type="curve"/>
			<point x="147" y="302" type="line"/>
			<point x="184" y="525" type="line"/>
			<point x="77" y="520" type="line"/>
			<point x="75" y="505" type="line"/>
			<point x="166" y="492" type="line"/>
			<point x="160" y="502" type="line"/>
			<point x="80" y="0" type="line"/>
			<point x="100" y="0" type="line"/>
			<point x="130" y="187" type="line" smooth="yes"/>
			<point x="166" y="412"/>
			<point x="297" y="509"/>
			<point x="388" y="509" type="curve" smooth="yes"/>
			<point x="448" y="509"/>
			<point x="495" y="467"/>
			<point x="478" y="361" type="curve" smooth="yes"/>
			<point x="408" y="-77" type="line" smooth="yes"/>
			<point x="391" y="-182"/>
			<point x="360" y="-217"/>
			<point x="277" y="-217" type="curve" smooth="yes"/>
			<point x="269" y="-217"/>
			<point x="259" y="-217"/>
			<point x="249" y="-216" type="curve"/>
			<point x="246" y="-234" type="line"/>
			<point x="258" y="-235"/>
			<point x="268" y="-236"/>
		</contour>
	</outline>
</glyph>
<glyph name="florin" format="2">
	<advance width="438"/>
	<unicode hex="0192"/>
	<guideline x="366" y="218" angle="261"/>
	<guideline x="96" y="218" angle="261"/>
	<outline>
		<contour>
			<point x="23" y="-200" type="curve" smooth="yes"/>
			<point x="146" y="-200"/>
			<point x="161" y="-97"/>
			<point x="170" y="-40" type="curve" smooth="yes"/>
			<point x="242" y="411" type="line"/>
			<point x="235" y="404" type="line"/>
			<point x="395" y="404" type="line"/>
			<point x="398" y="422" type="line"/>
			<point x="237" y="422" type="line"/>
			<point x="242" y="414" type="line"/>
			<point x="277" y="632" type="line" smooth="yes"/>
			<point x="285" y="682"/>
			<point x="298" y="752"/>
			<point x="405" y="752" type="curve" smooth="yes"/>
			<point x="418" y="752"/>
			<point x="435" y="751"/>
			<point x="451" y="749" type="curve"/>
			<point x="455" y="767" type="line"/>
			<point x="437" y="769"/>
			<point x="421" y="771"/>
			<point x="402" y="771" type="curve" smooth="yes"/>
			<point x="283" y="771"/>
			<point x="264" y="683"/>
			<point x="256" y="629" type="curve" smooth="yes"/>
			<point x="222" y="414" type="line"/>
			<point x="231" y="422" type="line"/>
			<point x="128" y="418" type="line"/>
			<point x="126" y="404" type="line"/>
			<point x="229" y="404" type="line"/>
			<point x="222" y="411" type="line"/>
			<point x="150" y="-41" type="line" smooth="yes"/>
			<point x="140" y="-104"/>
			<point x="127" y="-181"/>
			<point x="17" y="-181" type="curve" smooth="yes"/>
			<point x="4" y="-181"/>
			<point x="-6" y="-180"/>
			<point x="-9" y="-180" type="curve"/>
			<point x="-12" y="-198" type="line"/>
			<point x="0" y="-199"/>
			<point x="11" y="-200"/>
		</contour>
	</outline>
</glyph>
<glyph name="ohorn" format="2">
	<advance width="564"/>
	<unicode hex="01A1"/>
	<anchor x="242" y="0" name="bottom"/>
	<anchor x="326" y="522" name="top"/>
	<outline>
		<contour>
			<point x="413" y="494" type="line"/>
			<point x="508" y="497"/>
			<point x="552" y="535"/>
			<point x="552" y="612" type="curve" smooth="yes"/>
			<point x="552" y="625"/>
			<point x="551" y="640"/>
			<point x="547" y="656" type="curve"/>
			<point x="527" y="649" type="line"/>
			<point x="529" y="634"/>
			<point x="531" y="621"/>
			<point x="531" y="609" type="curve" smooth="yes"/>
			<point x="531" y="538"/>
			<point x="488" y="513"/>
			<point x="387" y="512" type="curve"/>
		</contour>
		<contour>
			<point x="319" y="528" type="curve" smooth="yes"/>
			<point x="152" y="528"/>
			<point x="62" y="367"/>
			<point x="62" y="205" type="curve" smooth="yes"/>
			<point x="62" y="58"/>
			<point x="133" y="-6"/>
			<point x="234" y="-6" type="curve" smooth="yes"/>
			<point x="402" y="-6"/>
			<point x="491" y="157"/>
			<point x="491" y="318" type="curve" smooth="yes"/>
			<point x="491" y="461"/>
			<point x="423" y="528"/>
		</contour>
		<contour>
			<point x="316" y="509" type="curve" smooth="yes"/>
			<point x="417" y="509"/>
			<point x="470" y="441"/>
			<point x="470" y="315" type="curve" smooth="yes"/>
			<point x="470" y="163"/>
			<point x="385" y="13"/>
			<point x="238" y="13" type="curve" smooth="yes"/>
			<point x="138" y="13"/>
			<point x="83" y="82"/>
			<point x="83" y="208" type="curve" smooth="yes"/>
			<point x="83" y="358"/>
			<point x="166" y="509"/>
		</contour>
	</outline>
</glyph>
<glyph name="ringhalfleft" format="2">
	<advance width="275"/>
	<unicode hex="02BF"/>
	<guideline x="254" y="627" angle="0"/>
	<guideline x="351" y="770" angle="0"/>
	<guideline x="197" y="724" angle="0"/>
	<guideline x="154" y="665" angle="0"/>
	<guideline x="271" y="868" angle="261"/>
	<guideline x="196" y="868" angle="261"/>
	<guideline x="234" y="868" angle="261"/>
	<anchor x="179" y="522" name="_top"/>
	<outline>
		<contour>
			<point x="233" y="627" type="curve"/>
			<point x="236" y="644" type="line"/>
			<point x="206" y="644"/>
			<point x="188" y="661"/>
			<point x="188" y="688" type="curve" smooth="yes"/>
			<point x="188" y="722"/>
			<point x="215" y="753"/>
			<point x="253" y="753" type="curve"/>
			<point x="256" y="770" type="line"/>
			<point x="211" y="770"/>
			<point x="169" y="738"/>
			<point x="169" y="687" type="curve" smooth="yes"/>
			<point x="169" y="644"/>
			<point x="200" y="627"/>
		</contour>
	</outline>
</glyph>
<glyph name="ring" format="2">
	<advance width="348"/>
	<unicode hex="02DA"/>
	<guideline x="256" y="637" angle="0"/>
	<guideline x="353" y="770" angle="0"/>
	<guideline x="199" y="724" angle="0"/>
	<guideline x="156" y="665" angle="0"/>
	<guideline x="141" y="522" angle="261"/>
	<guideline x="289" y="522" angle="261"/>
	<guideline x="214" y="522" angle="261"/>
	<anchor x="214" y="522" name="_top"/>
	<outline>
		<contour>
			<point x="231" y="632" type="curve" smooth="yes"/>
			<point x="276" y="632"/>
			<point x="318" y="664"/>
			<point x="318" y="715" type="curve" smooth="yes"/>
			<point x="318" y="758"/>
			<point x="287" y="775"/>
			<point x="255" y="775" type="curve" smooth="yes"/>
			<point x="210" y="775"/>
			<point x="168" y="743"/>
			<point x="168" y="692" type="curve" smooth="yes"/>
			<point x="168" y="649"/>
			<point x="199" y="632"/>
		</contour>
		<contour>
			<point x="234" y="649" type="curve" smooth="yes"/>
			<point x="205" y="649"/>
			<point x="187" y="666"/>
			<point x="187" y="693" type="curve" smooth="yes"/>
			<point x="187" y="727"/>
			<point x="214" y="758"/>
			<point x="252" y="758" type="curve" smooth="yes"/>
			<point x="281" y="758"/>
			<point x="299" y="741"/>
			<point x="299" y="714" type="curve" smooth="yes"/>
			<point x="299" y="680"/>
			<point x="272" y="649"/>
		</contour>
	</outline>
</glyph>
<glyph name="tilde" format="2">
	<advance width="476"/>
	<unicode hex="02DC"/>
	<guideline x="251" y="637" angle="0"/>
	<guideline x="348" y="770" angle="0"/>
	<guideline x="194" y="724" angle="0"/>
	<guideline x="151" y="665" angle="0"/>
	<outline>
		<contour>
			<point x="364" y="657" type="curve" smooth="yes"/>
			<point x="394" y="657"/>
			<point x="422" y="675"/>
			<point x="449" y="720" type="curve"/>
			<point x="435" y="729" type="line"/>
			<point x="411" y="693"/>
			<point x="391" y="678"/>
			<point x="368" y="678" type="curve" smooth="yes"/>
			<point x="325" y="678"/>
			<point x="298" y="730"/>
			<point x="247" y="730" type="curve" smooth="yes"/>
			<point x="218" y="730"/>
			<point x="190" y="713"/>
			<point x="163" y="668" type="curve"/>
			<point x="177" y="659" type="line"/>
			<point x="200" y="694"/>
			<point x="221" y="709"/>
			<point x="245" y="709" type="curve" smooth="yes"/>
			<point x="288" y="709"/>
			<point x="313" y="657"/>
		</contour>
	</outline>
</glyph>
<glyph name="gravecomb" format="2">
	<advance width="382"/>
	<unicode hex="0300"/>
	<guideline x="305" y="634" angle="0"/>
	<guideline x="404" y="772" angle="0"/>
	<guideline x="250" y="724" angle="0"/>
	<guideline x="207" y="665" angle="0"/>
	<guideline x="252" y="590" angle="261"/>
	<anchor x="232" y="522" name="_top"/>
	<anchor x="268" y="692" name="top"/>
	<outline>
		<contour>
			<point x="196" y="772" type="line"/>
			<point x="177" y="748" type="line"/>
			<point x="334" y="634" type="line"/>
			<point x="344" y="647" type="line"/>
		</contour>
	</outline>
</glyph>
<glyph name="acutecomb" format="2">
	<advance width="360"/>
	<unicode hex="0301"/>
	<guideline x="304" y="634" angle="0"/>
	<guideline x="401" y="772" angle="0"/>
	<guideline x="247" y="724" angle="0"/>
	<guideline x="204" y="665" angle="0"/>
	<guideline x="188" y="818" angle="261"/>
	<guideline x="348" y="818" angle="261"/>
	<guideline x="214" y="818" angle="261"/>
	<anchor x="167" y="522" name="_top"/>
	<anchor x="194" y="692" name="top"/>
	<outline>
		<contour>
			<point x="138" y="634" type="line"/>
			<point x="301" y="745" type="line"/>
			<point x="283" y="772" type="line"/>
			<point x="127" y="648" type="line"/>
		</contour>
	</outline>
</glyph>
<glyph name="hookabovecomb" format="2">
	<advance width="331"/>
	<unicode hex="0309"/>
	<guideline x="162" y="613" angle="0"/>
	<guideline x="252" y="770" angle="0"/>
	<guideline x="217" y="724" angle="0"/>
	<guideline x="174" y="665" angle="0"/>
	<guideline x="212" y="580" angle="261"/>
	<guideline x="192" y="580" angle="261"/>
	<anchor x="193" y="522" name="_top"/>
	<anchor x="221" y="692" name="top"/>
	<outline>
		<contour>
			<point x="197" y="613" type="line"/>
			<point x="217" y="613" type="line"/>
			<point x="224" y="654" type="line"/>
			<point x="276" y="661"/>
			<point x="304" y="689"/>
			<point x="304" y="727" type="curve" smooth="yes"/>
			<point x="304" y="766"/>
			<point x="275" y="780"/>
			<point x="239" y="780" type="curve" smooth="yes"/>
			<point x="220" y="780"/>
			<point x="200" y="776"/>
			<point x="180" y="768" type="curve"/>
			<point x="184" y="752" type="line"/>
			<point x="200" y="758"/>
			<point x="219" y="761"/>
			<point x="236" y="761" type="curve" smooth="yes"/>
			<point x="264" y="761"/>
			<point x="283" y="753"/>
			<point x="283" y="726" type="curve" smooth="yes"/>
			<point x="283" y="693"/>
			<point x="254" y="671"/>
			<point x="206" y="669" type="curve"/>
		</contour>
	</outline>
</glyph>
<glyph name="strokeshortcomb" format="2">
	<advance width="453"/>
	<unicode hex="0335"/>
	<guideline x="118" y="491" angle="261"/>
	<guideline x="410" y="491" angle="261"/>
	<guideline x="264" y="491" angle="261"/>
	<anchor x="234" y="300" name="_center"/>
	<outline>
		<contour>
			<point x="86" y="290" type="line"/>
			<point x="378" y="290" type="line"/>
			<point x="381" y="309" type="line"/>
			<point x="89" y="309" type="line"/>
		</contour>
	</outline>
</glyph>
<glyph name="Pi" format="2">
	<advance width="772"/>
	<unicode hex="03A0"/>
	<outline>
		<contour>
			<point x="628" y="-5" type="curve" smooth="yes"/>
			<point x="647" y="-5"/>
			<point x="669" y="-1"/>
			<point x="695" y="8" type="curve"/>
			<point x="689" y="26" type="line"/>
			<point x="667" y="18"/>
			<point x="649" y="14"/>
			<point x="633" y="14" type="curve" smooth="yes"/>
			<point x="587" y="14"/>
			<point x="571" y="50"/>
			<point x="582" y="119" type="curve" smooth="yes"/>
			<point x="670" y="671" type="line"/>
			<point x="661" y="663" type="line"/>
			<point x="768" y="677" type="line"/>
			<point x="770" y="692" type="line"/>
			<point x="247" y="692" type="line"/>
			<point x="131" y="687" type="line"/>
			<point x="129" y="672" type="line"/>
			<point x="231" y="663" type="line"/>
			<point x="225" y="671" type="line"/>
			<point x="122" y="21" type="line"/>
			<point x="131" y="29" type="line"/>
			<point x="25" y="15" type="line"/>
			<point x="23" y="0" type="line"/>
			<point x="235" y="0" type="line"/>
			<point x="237" y="15" type="line"/>
			<point x="137" y="29" type="line"/>
			<point x="142" y="21" type="line"/>
			<point x="246" y="678" type="line"/>
			<point x="237" y="672" type="line"/>
			<point x="657" y="673" type="line"/>
			<point x="651" y="678" type="line"/>
			<point x="562" y="118" type="line" smooth="yes"/>
			<point x="549" y="35"/>
			<point x="572" y="-5"/>
		</contour>
	</outline>
</glyph>
<glyph name="Dje-cy" format="2">
	<advance width="704"/>
	<unicode hex="0402"/>
	<guideline x="286" y="149" angle="90"/>
	<outline>
		<contour>
			<point x="429" y="-5" type="curve" smooth="yes"/>
			<point x="576" y="-5"/>
			<point x="627" y="126"/>
			<point x="627" y="247" type="curve" smooth="yes"/>
			<point x="627" y="367"/>
			<point x="576" y="407"/>
			<point x="483" y="407" type="curve" smooth="yes"/>
			<point x="424" y="407"/>
			<point x="349" y="391"/>
			<point x="283" y="366" type="curve"/>
			<point x="291" y="363" type="line"/>
			<point x="341" y="680" type="line"/>
			<point x="333" y="673" type="line"/>
			<point x="560" y="673" type="line"/>
			<point x="553" y="680" type="line"/>
			<point x="547" y="547" type="line"/>
			<point x="561" y="547" type="line"/>
			<point x="584" y="692" type="line"/>
			<point x="102" y="692" type="line"/>
			<point x="79" y="547" type="line"/>
			<point x="94" y="547" type="line"/>
			<point x="129" y="680" type="line"/>
			<point x="120" y="673" type="line"/>
			<point x="328" y="673" type="line"/>
			<point x="322" y="680" type="line"/>
			<point x="218" y="21" type="line"/>
			<point x="226" y="29" type="line"/>
			<point x="116" y="15" type="line"/>
			<point x="114" y="0" type="line"/>
			<point x="234" y="0" type="line"/>
			<point x="290" y="357" type="line"/>
			<point x="281" y="348" type="line"/>
			<point x="346" y="371"/>
			<point x="420" y="388"/>
			<point x="479" y="388" type="curve" smooth="yes"/>
			<point x="562" y="388"/>
			<point x="606" y="354"/>
			<point x="606" y="246" type="curve" smooth="yes"/>
			<point x="606" y="138"/>
			<point x="562" y="15"/>
			<point x="442" y="15" type="curve" smooth="yes"/>
			<point x="433" y="15"/>
			<point x="425" y="15"/>
			<point x="416" y="15" type="curve"/>
			<point x="411" y="-4" type="line"/>
			<point x="428" y="-5"/>
			<point x="423" y="-5"/>
		</contour>
	</outline>
</glyph>
<glyph name="E-cy" format="2">
	<advance width="658"/>
	<unicode hex="0404"/>
	<outline>
		<contour>
			<point x="120" y="352" type="line"/>
			<point x="488" y="352" type="line"/>
			<point x="491" y="371" type="line"/>
			<point x="123" y="371" type="line"/>
		</contour>
		<contour>
			<point x="94" y="80"/>
			<point x="185" y="-6"/>
			<point x="315" y="-6" type="curve" smooth="yes"/>
			<point x="394" y="-6"/>
			<point x="478" y="26"/>
			<point x="561" y="93" type="curve"/>
			<point x="550" y="109" type="line"/>
			<point x="472" y="45"/>
			<point x="392" y="14"/>
			<point x="319" y="14" type="curve" smooth="yes"/>
			<point x="199" y="14"/>
			<point x="115" y="96"/>
			<point x="115" y="263" type="curve" smooth="yes"/>
			<point x="115" y="466"/>
			<point x="239" y="678"/>
			<point x="441" y="678" type="curve" smooth="yes"/>
			<point x="497" y="678"/>
			<point x="564" y="662"/>
			<point x="616" y="638" type="curve"/>
			<point x="610" y="646" type="line"/>
			<point x="599" y="516" type="line"/>
			<point x="614" y="516" type="line"/>
			<point x="639" y="650" type="line"/>
			<point x="575" y="683"/>
			<point x="506" y="698"/>
			<point x="448" y="698" type="curve" smooth="yes"/>
			<point x="230" y="698"/>
			<point x="94" y="483"/>
			<point x="94" y="261" type="curve" smooth="yes"/>
		</contour>
	</outline>
</glyph>
<glyph name="Shcha-cy" format="2">
	<advance width="955"/>
	<unicode hex="0429"/>
	<guideline x="342" y="19" angle="0"/>
	<outline>
		<contour>
			<point x="816" y="-163" type="line"/>
			<point x="831" y="-163" type="line"/>
			<point x="859" y="19" type="line"/>
			<point x="747" y="19" type="line"/>
			<point x="754" y="10" type="line"/>
			<point x="859" y="671" type="line"/>
			<point x="850" y="663" type="line"/>
			<point x="957" y="677" type="line"/>
			<point x="959" y="692" type="line"/>
			<point x="745" y="687" type="line"/>
			<point x="743" y="672" type="line"/>
			<point x="844" y="663" type="line"/>
			<point x="839" y="671" type="line"/>
			<point x="735" y="15" type="line"/>
			<point x="743" y="19" type="line"/>
			<point x="442" y="19" type="line"/>
			<point x="448" y="15" type="line"/>
			<point x="552" y="671" type="line"/>
			<point x="543" y="663" type="line"/>
			<point x="650" y="677" type="line"/>
			<point x="652" y="692" type="line"/>
			<point x="438" y="687" type="line"/>
			<point x="436" y="672" type="line"/>
			<point x="537" y="663" type="line"/>
			<point x="532" y="671" type="line"/>
			<point x="428" y="14" type="line"/>
			<point x="435" y="19" type="line"/>
			<point x="134" y="19" type="line"/>
			<point x="141" y="14" type="line"/>
			<point x="245" y="671" type="line"/>
			<point x="237" y="663" type="line"/>
			<point x="342" y="677" type="line"/>
			<point x="344" y="692" type="line"/>
			<point x="131" y="687" type="line"/>
			<point x="129" y="672" type="line"/>
			<point x="231" y="663" type="line"/>
			<point x="225" y="671" type="line"/>
			<point x="122" y="21" type="line"/>
			<point x="131" y="29" type="line"/>
			<point x="25" y="15" type="line"/>
			<point x="23" y="0" type="line"/>
			<point x="831" y="0" type="line"/>
			<point x="827" y="3" type="line"/>
		</contour>
	</outline>
</glyph>
<glyph name="Softsign-cy" format="2">
	<advance width="586"/>
	<unicode hex="042C"/>
	<guideline x="61" y="231" angle="261"/>
	<outline>
		<contour>
			<point x="24" y="0" type="line"/>
			<point x="267" y="0" type="line" smooth="yes"/>
			<point x="429" y="0"/>
			<point x="522" y="89"/>
			<point x="522" y="236" type="curve" smooth="yes"/>
			<point x="522" y="350"/>
			<point x="458" y="403"/>
			<point x="334" y="403" type="curve" smooth="yes"/>
			<point x="196" y="403" type="line"/>
			<point x="201" y="397" type="line"/>
			<point x="245" y="672" type="line"/>
			<point x="238" y="663" type="line"/>
			<point x="341" y="677" type="line"/>
			<point x="343" y="692" type="line"/>
			<point x="133" y="687" type="line"/>
			<point x="131" y="672" type="line"/>
			<point x="231" y="663" type="line"/>
			<point x="225" y="671" type="line"/>
			<point x="122" y="21" type="line"/>
			<point x="131" y="29" type="line"/>
			<point x="26" y="15" type="line"/>
		</contour>
		<contour>
			<point x="141" y="16" type="line"/>
			<point x="200" y="391" type="line"/>
			<point x="192" y="384" type="line"/>
			<point x="330" y="384" type="line" smooth="yes"/>
			<point x="446" y="384"/>
			<point x="501" y="340"/>
			<point x="501" y="233" type="curve" smooth="yes"/>
			<point x="501" y="100"/>
			<point x="417" y="19"/>
			<point x="270" y="19" type="curve" smooth="yes"/>
			<point x="135" y="19" type="line"/>
		</contour>
	</outline>
</glyph>
<glyph name="de-cy" format="2">
	<advance width="592"/>
	<unicode hex="0434"/>
	<outline>
		<contour>
			<point x="237" y="-5" type="curve" smooth="yes"/>
			<point x="448" y="-5"/>
			<point x="530" y="236"/>
			<point x="530" y="452" type="curve" smooth="yes"/>
			<point x="530" y="655"/>
			<point x="449" y="767"/>
			<point x="289" y="767" type="curve" smooth="yes"/>
			<point x="259" y="767"/>
			<point x="226" y="763"/>
			<point x="191" y="754" type="curve"/>
			<point x="191" y="734" type="line"/>
			<point x="227" y="743"/>
			<point x="260" y="747"/>
			<point x="286" y="747" type="curve" smooth="yes"/>
			<point x="436" y="747"/>
			<point x="509" y="642"/>
			<point x="509" y="452" type="curve" smooth="yes"/>
			<point x="509" y="252"/>
			<point x="438" y="15"/>
			<point x="238" y="15" type="curve" smooth="yes"/>
			<point x="138" y="15"/>
			<point x="81" y="74"/>
			<point x="81" y="204" type="curve" smooth="yes"/>
			<point x="81" y="365"/>
			<point x="170" y="477"/>
			<point x="304" y="477" type="curve" smooth="yes"/>
			<point x="377" y="477"/>
			<point x="457" y="443"/>
			<point x="514" y="382" type="curve"/>
			<point x="516" y="407" type="line"/>
			<point x="457" y="469"/>
			<point x="380" y="497"/>
			<point x="308" y="497" type="curve" smooth="yes"/>
			<point x="150" y="497"/>
			<point x="60" y="360"/>
			<point x="60" y="200" type="curve" smooth="yes"/>
			<point x="60" y="50"/>
			<point x="136" y="-5"/>
		</contour>
	</outline>
</glyph>
<glyph name="el-cy" format="2">
	<advance width="534"/>
	<unicode hex="043B"/>
	<anchor x="459" y="0" name="bottomright"/>
	<outline>
		<contour>
			<point x="-42" y="-10" type="line"/>
			<point x="-47" y="1" type="line"/>
			<point x="-31" y="-3"/>
			<point x="-18" y="-6"/>
			<point x="-4" y="-6" type="curve" smooth="yes"/>
			<point x="118" y="-6"/>
			<point x="174" y="178"/>
			<point x="227" y="510" type="curve"/>
			<point x="216" y="503" type="line"/>
			<point x="436" y="503" type="line"/>
			<point x="432" y="510" type="line"/>
			<point x="352" y="0" type="line"/>
			<point x="457" y="0" type="line"/>
			<point x="459" y="15" type="line"/>
			<point x="369" y="29" type="line"/>
			<point x="374" y="21" type="line"/>
			<point x="453" y="522" type="line"/>
			<point x="114" y="522" type="line"/>
			<point x="112" y="508" type="line"/>
			<point x="211" y="497" type="line"/>
			<point x="207" y="505" type="line"/>
			<point x="156" y="206"/>
			<point x="111" y="17"/>
			<point x="-10" y="17" type="curve" smooth="yes"/>
			<point x="-21" y="17"/>
			<point x="-31" y="19"/>
			<point x="-41" y="22" type="curve"/>
			<point x="-33" y="29" type="line"/>
		</contour>
	</outline>
</glyph>
<glyph name="em-cy" format="2">
	<advance width="733"/>
	<unicode hex="043C"/>
	<guideline x="477" y="325" angle="90"/>
	<anchor x="656" y="0" name="bottomright"/>
	<outline>
		<contour>
			<point x="-35" y="-10" type="line"/>
			<point x="-40" y="1" type="line"/>
			<point x="-24" y="-3"/>
			<point x="-11" y="-6"/>
			<point x="3" y="-6" type="curve" smooth="yes"/>
			<point x="123" y="-6"/>
			<point x="160" y="176"/>
			<point x="213" y="510" type="curve"/>
			<point x="203" y="513" type="line"/>
			<point x="339" y="76" type="line"/>
			<point x="356" y="79" type="line"/>
			<point x="635" y="509" type="line"/>
			<point x="630" y="509" type="line"/>
			<point x="549" y="-2" type="line"/>
			<point x="656" y="2" type="line"/>
			<point x="658" y="17" type="line"/>
			<point x="565" y="29" type="line"/>
			<point x="572" y="20" type="line"/>
			<point x="653" y="525" type="line"/>
			<point x="623" y="522" type="line"/>
			<point x="345" y="94" type="line"/>
			<point x="352" y="94" type="line"/>
			<point x="218" y="525" type="line"/>
			<point x="101" y="522" type="line"/>
			<point x="99" y="508" type="line"/>
			<point x="196" y="498" type="line"/>
			<point x="194" y="505" type="line"/>
			<point x="143" y="206"/>
			<point x="118" y="17"/>
			<point x="-3" y="17" type="curve" smooth="yes"/>
			<point x="-14" y="17"/>
			<point x="-24" y="19"/>
			<point x="-34" y="22" type="curve"/>
			<point x="-26" y="29" type="line"/>
		</contour>
	</outline>
</glyph>
<glyph name="ef-cy" format="2">
	<advance width="677"/>
	<unicode hex="0444"/>
	<outline>
		<contour>
			<point x="275" y="-209" type="line"/>
			<point x="428" y="765" type="line"/>
			<point x="321" y="760" type="line"/>
			<point x="319" y="745" type="line"/>
			<point x="410" y="731" type="line"/>
			<point x="404" y="739" type="line"/>
			<point x="251" y="-232" type="line"/>
			<point x="358" y="-228" type="line"/>
			<point x="360" y="-213" type="line"/>
			<point x="269" y="-201" type="line"/>
		</contour>
		<contour>
			<point x="384" y="525" type="curve" smooth="yes"/>
			<point x="176" y="525"/>
			<point x="60" y="384"/>
			<point x="60" y="210" type="curve" smooth="yes"/>
			<point x="60" y="66"/>
			<point x="140" y="-3"/>
			<point x="290" y="-3" type="curve" smooth="yes"/>
			<point x="506" y="-3"/>
			<point x="618" y="139"/>
			<point x="618" y="306" type="curve" smooth="yes"/>
			<point x="618" y="452"/>
			<point x="533" y="525"/>
		</contour>
		<contour>
			<point x="380" y="506" type="curve" smooth="yes"/>
			<point x="519" y="506"/>
			<point x="597" y="441"/>
			<point x="597" y="304" type="curve" smooth="yes"/>
			<point x="597" y="144"/>
			<point x="490" y="16"/>
			<point x="292" y="16" type="curve" smooth="yes"/>
			<point x="153" y="16"/>
			<point x="81" y="79"/>
			<point x="81" y="212" type="curve" smooth="yes"/>
			<point x="81" y="366"/>
			<point x="177" y="506"/>
		</contour>
	</outline>
</glyph>
<glyph name="ereversed-cy" format="2">
	<advance width="513"/>
	<unicode hex="044D"/>
	<anchor x="274" y="522" name="top"/>
	<outline>
		<contour>
			<point x="22" y="66" type="line"/>
			<point x="72" y="17"/>
			<point x="129" y="-6"/>
			<point x="187" y="-6" type="curve" smooth="yes"/>
			<point x="342" y="-6"/>
			<point x="449" y="162"/>
			<point x="449" y="328" type="curve" smooth="yes"/>
			<point x="449" y="459"/>
			<point x="383" y="528"/>
			<point x="273" y="528" type="curve" smooth="yes"/>
			<point x="224" y="528"/>
			<point x="166" y="514"/>
			<point x="102" y="486" type="curve"/>
			<point x="89" y="382" type="line"/>
			<point x="107" y="382" type="line"/>
			<point x="135" y="488" type="line"/>
			<point x="130" y="479" type="line"/>
			<point x="181" y="499"/>
			<point x="227" y="509"/>
			<point x="268" y="509" type="curve" smooth="yes"/>
			<point x="369" y="509"/>
			<point x="429" y="446"/>
			<point x="429" y="326" type="curve" smooth="yes"/>
			<point x="429" y="175"/>
			<point x="334" y="13"/>
			<point x="191" y="13" type="curve" smooth="yes"/>
			<point x="138" y="13"/>
			<point x="86" y="35"/>
			<point x="37" y="81" type="curve"/>
		</contour>
		<contour>
			<point x="163" y="263" type="line"/>
			<point x="432" y="263" type="line"/>
			<point x="435" y="282" type="line"/>
			<point x="168" y="282" type="line"/>
		</contour>
	</outline>
</glyph>
<glyph name="dzhe-cy" format="2">
	<advance width="597"/>
	<unicode hex="045F"/>
	<guideline x="188" y="-58" angle="0"/>
	<outline>
		<contour>
			<point x="184" y="-233" type="line"/>
			<point x="216" y="-233" type="line"/>
			<point x="266" y="-58" type="line"/>
			<point x="249" y="-58" type="line"/>
		</contour>
		<contour>
			<point x="208" y="-6" type="curve" smooth="yes"/>
			<point x="287" y="-4"/>
			<point x="392" y="56"/>
			<point x="453" y="221" type="curve"/>
			<point x="447" y="220" type="line"/>
			<point x="412" y="-2" type="line"/>
			<point x="519" y="2" type="line"/>
			<point x="521" y="17" type="line"/>
			<point x="428" y="29" type="line"/>
			<point x="435" y="19" type="line"/>
			<point x="515" y="522" type="line"/>
			<point x="495" y="522" type="line"/>
			<point x="465" y="335" type="line" smooth="yes"/>
			<point x="429" y="112"/>
			<point x="297" y="13"/>
			<point x="209" y="13" type="curve" smooth="yes"/>
			<point x="146" y="13"/>
			<point x="100" y="55"/>
			<point x="117" y="161" type="curve" smooth="yes"/>
			<point x="175" y="525" type="line"/>
			<point x="68" y="520" type="line"/>
			<point x="66" y="505" type="line"/>
			<point x="156" y="492" type="line"/>
			<point x="151" y="502" type="line"/>
			<point x="97" y="162" type="line" smooth="yes"/>
			<point x="78" y="44"/>
			<point x="133" y="-8"/>
		</contour>
	</outline>
</glyph>
<glyph name="Semisoftsign-cy" format="2">
	<advance width="598"/>
	<unicode hex="048C"/>
	<guideline x="98" y="390" angle="261"/>
	<outline>
		<contour>
			<point x="122" y="539" type="line"/>
			<point x="398" y="539" type="line"/>
			<point x="401" y="558" type="line"/>
			<point x="125" y="558" type="line"/>
		</contour>
		<contour>
			<point x="36" y="0" type="line"/>
			<point x="279" y="0" type="line" smooth="yes"/>
			<point x="441" y="0"/>
			<point x="534" y="89"/>
			<point x="534" y="236" type="curve" smooth="yes"/>
			<point x="534" y="350"/>
			<point x="470" y="403"/>
			<point x="346" y="403" type="curve" smooth="yes"/>
			<point x="208" y="403" type="line"/>
			<point x="213" y="397" type="line"/>
			<point x="257" y="672" type="line"/>
			<point x="250" y="663" type="line"/>
			<point x="353" y="677" type="line"/>
			<point x="355" y="692" type="line"/>
			<point x="145" y="687" type="line"/>
			<point x="143" y="672" type="line"/>
			<point x="243" y="663" type="line"/>
			<point x="237" y="671" type="line"/>
			<point x="134" y="21" type="line"/>
			<point x="143" y="29" type="line"/>
			<point x="38" y="15" type="line"/>
		</contour>
		<contour>
			<point x="153" y="16" type="line"/>
			<point x="212" y="391" type="line"/>
			<point x="204" y="384" type="line"/>
			<point x="342" y="384" type="line" smooth="yes"/>
			<point x="458" y="384"/>
			<point x="513" y="340"/>
			<point x="513" y="233" type="curve" smooth="yes"/>
			<point x="513" y="100"/>
			<point x="429" y="19"/>
			<point x="282" y="19" type="curve" smooth="yes"/>
			<point x="147" y="19" type="line"/>
		</contour>
	</outline>
</glyph>
<glyph name="semisoftsign-cy" format="2">
	<advance width="469"/>
	<unicode hex="048D"/>
	<guideline x="54" y="373" angle="260"/>
	<outline>
		<contour>
			<point x="103" y="12" type="line"/>
			<point x="148" y="300" type="line"/>
			<point x="141" y="293" type="line"/>
			<point x="267" y="293" type="line" smooth="yes"/>
			<point x="357" y="293"/>
			<point x="397" y="256"/>
			<point x="397" y="188" type="curve" smooth="yes"/>
			<point x="397" y="74"/>
			<point x="329" y="19"/>
			<point x="190" y="19" type="curve" smooth="yes"/>
			<point x="98" y="19" type="line"/>
		</contour>
		<contour>
			<point x="149" y="306" type="line"/>
			<point x="222" y="765" type="line"/>
			<point x="115" y="760" type="line"/>
			<point x="113" y="745" type="line"/>
			<point x="206" y="732" type="line"/>
			<point x="198" y="742" type="line"/>
			<point x="82" y="0" type="line"/>
			<point x="185" y="0" type="line" smooth="yes"/>
			<point x="337" y="0"/>
			<point x="418" y="64"/>
			<point x="418" y="192" type="curve" smooth="yes"/>
			<point x="418" y="268"/>
			<point x="368" y="312"/>
			<point x="274" y="312" type="curve" smooth="yes"/>
			<point x="145" y="312" type="line"/>
		</contour>
		<contour>
			<point x="75" y="503" type="line"/>
			<point x="335" y="503" type="line"/>
			<point x="338" y="522" type="line"/>
			<point x="78" y="522" type="line"/>
		</contour>
	</outline>
</glyph>
<glyph name="ertick-cy" format="2">
	<advance width="584"/>
	<unicode hex="048F"/>
	<outline>
		<contour>
			<point x="-42" y="-230" type="line"/>
			<point x="162" y="-230" type="line"/>
			<point x="164" y="-215" type="line"/>
			<point x="59" y="-201" type="line"/>
			<point x="67" y="-209" type="line"/>
			<point x="103" y="16" type="line"/>
			<point x="83" y="15" type="line"/>
			<point x="339" y="-61"/>
			<point x="522" y="78"/>
			<point x="522" y="337" type="curve" smooth="yes"/>
			<point x="522" y="471"/>
			<point x="462" y="528"/>
			<point x="388" y="528" type="curve" smooth="yes"/>
			<point x="310" y="528"/>
			<point x="201" y="462"/>
			<point x="142" y="301" type="curve"/>
			<point x="147" y="293" type="line"/>
			<point x="184" y="525" type="line"/>
			<point x="77" y="520" type="line"/>
			<point x="75" y="505" type="line"/>
			<point x="166" y="492" type="line"/>
			<point x="160" y="502" type="line"/>
			<point x="47" y="-209" type="line"/>
			<point x="54" y="-201" type="line"/>
			<point x="-40" y="-215" type="line"/>
		</contour>
		<contour>
			<point x="103" y="15" type="line"/>
			<point x="130" y="187" type="line" smooth="yes"/>
			<point x="165" y="411"/>
			<point x="299" y="509"/>
			<point x="387" y="509" type="curve" smooth="yes"/>
			<point x="450" y="509"/>
			<point x="501" y="458"/>
			<point x="501" y="336" type="curve" smooth="yes"/>
			<point x="501" y="94"/>
			<point x="338" y="-40"/>
			<point x="96" y="32" type="curve"/>
		</contour>
		<contour>
			<point x="405" y="-72" type="line"/>
			<point x="420" y="-61" type="line"/>
			<point x="285" y="124" type="line"/>
			<point x="270" y="113" type="line"/>
		</contour>
	</outline>
</glyph>
<glyph name="Gheupturn-cy" format="2">
	<advance width="506"/>
	<unicode hex="0490"/>
	<outline>
		<contour>
			<point x="532" y="685" type="line"/>
			<point x="572" y="834" type="line"/>
			<point x="587" y="834" type="line"/>
			<point x="561" y="673" type="line"/>
			<point x="236" y="673" type="line"/>
			<point x="245" y="678" type="line"/>
			<point x="141" y="21" type="line"/>
			<point x="135" y="29" type="line"/>
			<point x="254" y="15" type="line"/>
			<point x="252" y="0" type="line"/>
			<point x="22" y="0" type="line"/>
			<point x="24" y="15" type="line"/>
			<point x="129" y="29" type="line"/>
			<point x="121" y="21" type="line"/>
			<point x="224" y="671" type="line"/>
			<point x="230" y="663" type="line"/>
			<point x="128" y="672" type="line"/>
			<point x="130" y="687" type="line"/>
			<point x="247" y="692" type="line"/>
			<point x="543" y="692" type="line"/>
		</contour>
	</outline>
</glyph>
<glyph name="ghestroke-cy" format="2">
	<advance width="439"/>
	<unicode hex="0493"/>
	<guideline x="-44" y="264" angle="0"/>
	<guideline x="86" y="472" angle="261"/>
	<outline>
		<contour>
			<point x="117" y="0" type="line"/>
			<point x="197" y="514" type="line"/>
			<point x="192" y="503" type="line"/>
			<point x="432" y="503" type="line"/>
			<point x="428" y="512" type="line"/>
			<point x="423" y="398" type="line"/>
			<point x="437" y="398" type="line"/>
			<point x="458" y="522" type="line"/>
			<point x="194" y="522" type="line"/>
			<point x="93" y="520" type="line"/>
			<point x="91" y="505" type="line"/>
			<point x="181" y="491" type="line"/>
			<point x="176" y="499" type="line"/>
			<point x="97" y="0" type="line"/>
		</contour>
		<contour>
			<point x="53" y="265" type="line"/>
			<point x="322" y="265" type="line"/>
			<point x="325" y="284" type="line"/>
			<point x="56" y="284" type="line"/>
		</contour>
	</outline>
</glyph>
<glyph name="Ghemiddlehook-cy" format="2">
	<advance width="630"/>
	<unicode hex="0494"/>
	<outline>
		<contour>
			<point x="304" y="-57" type="curve" smooth="yes"/>
			<point x="478" y="-57"/>
			<point x="534" y="134"/>
			<point x="534" y="250" type="curve" smooth="yes"/>
			<point x="534" y="365"/>
			<point x="479" y="407"/>
			<point x="386" y="407" type="curve" smooth="yes"/>
			<point x="331" y="407"/>
			<point x="264" y="392"/>
			<point x="190" y="366" type="curve"/>
			<point x="199" y="363" type="line"/>
			<point x="249" y="680" type="line"/>
			<point x="241" y="673" type="line"/>
			<point x="521" y="673" type="line"/>
			<point x="514" y="680" type="line"/>
			<point x="508" y="552" type="line"/>
			<point x="522" y="552" type="line"/>
			<point x="545" y="692" type="line"/>
			<point x="251" y="692" type="line"/>
			<point x="135" y="687" type="line"/>
			<point x="133" y="672" type="line"/>
			<point x="234" y="662" type="line"/>
			<point x="228" y="669" type="line"/>
			<point x="126" y="21" type="line"/>
			<point x="134" y="29" type="line"/>
			<point x="24" y="15" type="line"/>
			<point x="22" y="0" type="line"/>
			<point x="142" y="0" type="line"/>
			<point x="198" y="357" type="line"/>
			<point x="189" y="348" type="line"/>
			<point x="259" y="373"/>
			<point x="324" y="388"/>
			<point x="378" y="388" type="curve" smooth="yes"/>
			<point x="462" y="388"/>
			<point x="513" y="352"/>
			<point x="513" y="245" type="curve" smooth="yes"/>
			<point x="513" y="127"/>
			<point x="450" y="-37"/>
			<point x="312" y="-37" type="curve" smooth="yes"/>
			<point x="303" y="-37"/>
			<point x="292" y="-37"/>
			<point x="288" y="-37" type="curve"/>
			<point x="284" y="-56" type="line"/>
			<point x="293" y="-57"/>
			<point x="302" y="-57"/>
		</contour>
	</outline>
</glyph>
<glyph name="kastroke-cy" format="2">
	<advance width="519"/>
	<unicode hex="049F"/>
	<guideline x="7" y="450" angle="90"/>
	<guideline x="42" y="373" angle="260"/>
	<outline>
		<contour>
			<point x="79" y="602" type="line"/>
			<point x="329" y="602" type="line"/>
			<point x="332" y="621" type="line"/>
			<point x="82" y="621" type="line"/>
		</contour>
		<contour>
			<point x="69" y="0" type="line"/>
			<point x="89" y="0" type="line"/>
			<point x="134" y="285" type="line"/>
			<point x="126" y="283" type="line"/>
			<point x="273" y="283" type="line"/>
			<point x="266" y="289" type="line"/>
			<point x="384" y="0" type="line"/>
			<point x="471" y="0" type="line"/>
			<point x="473" y="15" type="line"/>
			<point x="386" y="31" type="line"/>
			<point x="395" y="24" type="line"/>
			<point x="279" y="304" type="line"/>
			<point x="281" y="292" type="line"/>
			<point x="432" y="502" type="line"/>
			<point x="421" y="495" type="line"/>
			<point x="516" y="510" type="line"/>
			<point x="518" y="525" type="line"/>
			<point x="330" y="520" type="line"/>
			<point x="328" y="505" type="line"/>
			<point x="415" y="495" type="line"/>
			<point x="412" y="502" type="line"/>
			<point x="263" y="296" type="line"/>
			<point x="272" y="302" type="line"/>
			<point x="130" y="302" type="line"/>
			<point x="136" y="297" type="line"/>
			<point x="210" y="765" type="line"/>
			<point x="103" y="760" type="line"/>
			<point x="101" y="745" type="line"/>
			<point x="192" y="732" type="line"/>
			<point x="186" y="741" type="line"/>
		</contour>
	</outline>
</glyph>
<glyph name="kabashkir-cy" format="2">
	<advance width="623"/>
	<unicode hex="04A1"/>
	<outline>
		<contour>
			<point x="173" y="0" type="line"/>
			<point x="193" y="0" type="line"/>
			<point x="235" y="269" type="line"/>
			<point x="227" y="263" type="line"/>
			<point x="378" y="263" type="line"/>
			<point x="369" y="268" type="line"/>
			<point x="488" y="0" type="line"/>
			<point x="575" y="0" type="line"/>
			<point x="577" y="15" type="line"/>
			<point x="491" y="31" type="line"/>
			<point x="499" y="24" type="line"/>
			<point x="382" y="284" type="line"/>
			<point x="382" y="271" type="line"/>
			<point x="536" y="502" type="line"/>
			<point x="525" y="495" type="line"/>
			<point x="620" y="510" type="line"/>
			<point x="622" y="525" type="line"/>
			<point x="434" y="520" type="line"/>
			<point x="432" y="505" type="line"/>
			<point x="519" y="495" type="line"/>
			<point x="516" y="502" type="line"/>
			<point x="364" y="276" type="line"/>
			<point x="375" y="282" type="line"/>
			<point x="230" y="282" type="line"/>
			<point x="236" y="274" type="line"/>
			<point x="276" y="522" type="line"/>
			<point x="78" y="522" type="line"/>
			<point x="58" y="398" type="line"/>
			<point x="73" y="398" type="line"/>
			<point x="104" y="510" type="line"/>
			<point x="95" y="503" type="line"/>
			<point x="261" y="503" type="line"/>
			<point x="254" y="510" type="line"/>
		</contour>
	</outline>
</glyph>
<glyph name="pemiddlehook-cy" format="2">
	<advance width="837"/>
	<unicode hex="04A7"/>
	<guideline x="334" y="287" angle="0"/>
	<guideline x="462" y="461" angle="0"/>
	<guideline x="400" y="377" angle="0"/>
	<outline>
		<contour>
			<point x="551" y="-236" type="curve" smooth="yes"/>
			<point x="715" y="-236"/>
			<point x="773" y="-28"/>
			<point x="773" y="110" type="curve" smooth="yes"/>
			<point x="773" y="261"/>
			<point x="704" y="303"/>
			<point x="631" y="303" type="curve" smooth="yes"/>
			<point x="566" y="303"/>
			<point x="497" y="269"/>
			<point x="467" y="232" type="curve"/>
			<point x="465" y="212" type="line"/>
			<point x="491" y="247"/>
			<point x="562" y="285"/>
			<point x="628" y="285" type="curve" smooth="yes"/>
			<point x="693" y="285"/>
			<point x="753" y="249"/>
			<point x="753" y="112" type="curve" smooth="yes"/>
			<point x="753" y="-9"/>
			<point x="706" y="-217"/>
			<point x="551" y="-217" type="curve" smooth="yes"/>
			<point x="535" y="-217"/>
			<point x="519" y="-215"/>
			<point x="502" y="-211" type="curve"/>
			<point x="496" y="-229" type="line"/>
			<point x="516" y="-234"/>
			<point x="535" y="-236"/>
		</contour>
		<contour>
			<point x="415" y="0" type="line"/>
			<point x="435" y="0" type="line"/>
			<point x="493" y="360" type="line" smooth="yes"/>
			<point x="512" y="477"/>
			<point x="457" y="528"/>
			<point x="386" y="528" type="curve" smooth="yes"/>
			<point x="311" y="528"/>
			<point x="206" y="470"/>
			<point x="143" y="301" type="curve"/>
			<point x="148" y="302" type="line"/>
			<point x="185" y="525" type="line"/>
			<point x="78" y="520" type="line"/>
			<point x="76" y="505" type="line"/>
			<point x="167" y="492" type="line"/>
			<point x="161" y="502" type="line"/>
			<point x="81" y="0" type="line"/>
			<point x="101" y="0" type="line"/>
			<point x="131" y="187" type="line" smooth="yes"/>
			<point x="167" y="412"/>
			<point x="298" y="509"/>
			<point x="386" y="509" type="curve" smooth="yes"/>
			<point x="443" y="509"/>
			<point x="490" y="467"/>
			<point x="473" y="361" type="curve" smooth="yes"/>
		</contour>
	</outline>
</glyph>
<glyph name="esdescender-cy" format="2">
	<advance width="478"/>
	<unicode hex="04AB"/>
	<outline>
		<contour>
			<point x="236" y="9" type="line"/>
			<point x="204" y="9" type="line"/>
			<point x="188" y="-145" type="line"/>
			<point x="204" y="-145" type="line"/>
		</contour>
		<contour>
			<point x="226" y="-6" type="curve" smooth="yes"/>
			<point x="277" y="-6"/>
			<point x="335" y="12"/>
			<point x="391" y="47" type="curve"/>
			<point x="382" y="63" type="line"/>
			<point x="330" y="31"/>
			<point x="277" y="14"/>
			<point x="230" y="14" type="curve" smooth="yes"/>
			<point x="145" y="14"/>
			<point x="81" y="68"/>
			<point x="81" y="198" type="curve" smooth="yes"/>
			<point x="81" y="362"/>
			<point x="184" y="509"/>
			<point x="322" y="509" type="curve" smooth="yes"/>
			<point x="357" y="509"/>
			<point x="394" y="499"/>
			<point x="432" y="479" type="curve"/>
			<point x="428" y="488" type="line"/>
			<point x="424" y="382" type="line"/>
			<point x="442" y="382" type="line"/>
			<point x="460" y="486" type="line"/>
			<point x="414" y="515"/>
			<point x="367" y="528"/>
			<point x="324" y="528" type="curve" smooth="yes"/>
			<point x="177" y="528"/>
			<point x="60" y="378"/>
			<point x="60" y="197" type="curve" smooth="yes"/>
			<point x="60" y="55"/>
			<point x="132" y="-6"/>
		</contour>
	</outline>
</glyph>
<glyph name="Tetse-cy" format="2">
	<advance width="855"/>
	<unicode hex="04B4"/>
	<guideline x="99" y="-160" angle="0"/>
	<outline>
		<contour>
			<point x="717" y="-163" type="line"/>
			<point x="732" y="-163" type="line"/>
			<point x="760" y="19" type="line"/>
			<point x="650" y="19" type="line"/>
			<point x="654" y="8" type="line"/>
			<point x="759" y="671" type="line"/>
			<point x="750" y="663" type="line"/>
			<point x="857" y="677" type="line"/>
			<point x="859" y="692" type="line"/>
			<point x="649" y="687" type="line"/>
			<point x="647" y="672" type="line"/>
			<point x="744" y="663" type="line"/>
			<point x="739" y="671" type="line"/>
			<point x="635" y="14" type="line"/>
			<point x="644" y="19" type="line"/>
			<point x="230" y="19" type="line"/>
			<point x="237" y="14" type="line"/>
			<point x="342" y="678" type="line"/>
			<point x="334" y="673" type="line"/>
			<point x="523" y="673" type="line"/>
			<point x="516" y="680" type="line"/>
			<point x="511" y="547" type="line"/>
			<point x="525" y="547" type="line"/>
			<point x="547" y="692" type="line"/>
			<point x="102" y="692" type="line"/>
			<point x="79" y="547" type="line"/>
			<point x="94" y="547" type="line"/>
			<point x="129" y="680" type="line"/>
			<point x="120" y="673" type="line"/>
			<point x="329" y="673" type="line"/>
			<point x="322" y="678" type="line"/>
			<point x="218" y="21" type="line"/>
			<point x="226" y="29" type="line"/>
			<point x="121" y="15" type="line"/>
			<point x="119" y="0" type="line"/>
			<point x="731" y="0" type="line"/>
			<point x="728" y="3" type="line"/>
		</contour>
	</outline>
</glyph>
<glyph name="Kahook-cy" format="2">
	<advance width="649"/>
	<unicode hex="04C3"/>
	<guideline x="484" y="427" angle="90"/>
	<outline>
		<contour>
			<point x="341" y="365" type="curve"/>
			<point x="340" y="353" type="line"/>
			<point x="583" y="671" type="line"/>
			<point x="571" y="664" type="line"/>
			<point x="676" y="678" type="line"/>
			<point x="679" y="693" type="line"/>
			<point x="467" y="688" type="line"/>
			<point x="464" y="673" type="line"/>
			<point x="565" y="665" type="line"/>
			<point x="561" y="671" type="line"/>
			<point x="322" y="358" type="line"/>
			<point x="335" y="364" type="line"/>
			<point x="189" y="364" type="line"/>
			<point x="195" y="357" type="line"/>
			<point x="244" y="672" type="line"/>
			<point x="236" y="664" type="line"/>
			<point x="341" y="678" type="line"/>
			<point x="344" y="693" type="line"/>
			<point x="132" y="688" type="line"/>
			<point x="129" y="673" type="line"/>
			<point x="230" y="664" type="line"/>
			<point x="225" y="672" type="line"/>
			<point x="122" y="21" type="line"/>
			<point x="130" y="29" type="line"/>
			<point x="25" y="15" type="line"/>
			<point x="23" y="0" type="line"/>
			<point x="234" y="0" type="line"/>
			<point x="236" y="15" type="line"/>
			<point x="136" y="29" type="line"/>
			<point x="141" y="21" type="line"/>
			<point x="193" y="352" type="line"/>
			<point x="186" y="345" type="line"/>
			<point x="337" y="345" type="line"/>
			<point x="325" y="350" type="line"/>
			<point x="427" y="255"/>
			<point x="531" y="111"/>
			<point x="531" y="-21" type="curve" smooth="yes"/>
			<point x="531" y="-104"/>
			<point x="487" y="-173"/>
			<point x="413" y="-220" type="curve"/>
			<point x="423" y="-236" type="line"/>
			<point x="504" y="-182"/>
			<point x="551" y="-111"/>
			<point x="551" y="-19" type="curve" smooth="yes"/>
			<point x="551" y="110"/>
			<point x="455" y="253"/>
		</contour>
	</outline>
</glyph>
<glyph name="chekhakassian-cy" format="2">
	<advance width="540"/>
	<unicode hex="04CC"/>
	<outline>
		<contour>
			<point x="223" y="-145" type="line"/>
			<point x="239" y="-145" type="line"/>
			<point x="277" y="9" type="line"/>
			<point x="266" y="0" type="line"/>
			<point x="464" y="0" type="line"/>
			<point x="466" y="15" type="line"/>
			<point x="373" y="29" type="line"/>
			<point x="380" y="19" type="line"/>
			<point x="459" y="522" type="line"/>
			<point x="440" y="522" type="line"/>
			<point x="416" y="370" type="line" smooth="yes"/>
			<point x="403" y="288"/>
			<point x="307" y="227"/>
			<point x="216" y="227" type="curve" smooth="yes"/>
			<point x="109" y="227"/>
			<point x="119" y="311"/>
			<point x="128" y="371" type="curve" smooth="yes"/>
			<point x="152" y="525" type="line"/>
			<point x="45" y="520" type="line"/>
			<point x="43" y="506" type="line"/>
			<point x="133" y="495" type="line"/>
			<point x="129" y="502" type="line"/>
			<point x="109" y="370" type="line" smooth="yes"/>
			<point x="101" y="317"/>
			<point x="85" y="207"/>
			<point x="212" y="207" type="curve" smooth="yes"/>
			<point x="303" y="207"/>
			<point x="405" y="264"/>
			<point x="424" y="350" type="curve"/>
			<point x="412" y="343" type="line"/>
			<point x="360" y="18" type="line"/>
			<point x="364" y="29" type="line"/>
			<point x="248" y="17" type="line"/>
		</contour>
	</outline>
</glyph>
<glyph name="Schwa-cy" format="2">
	<advance width="705"/>
	<unicode hex="04D8"/>
	<guideline x="73" y="471" angle="90"/>
	<guideline x="651" y="471" angle="90"/>
	<anchor x="421" y="692" name="top"/>
	<outline>
		<contour>
			<point x="299" y="-6" type="curve" smooth="yes"/>
			<point x="507" y="-6"/>
			<point x="637" y="221"/>
			<point x="637" y="432" type="curve" smooth="yes"/>
			<point x="637" y="610"/>
			<point x="545" y="698"/>
			<point x="413" y="698" type="curve" smooth="yes"/>
			<point x="333" y="698"/>
			<point x="238" y="666"/>
			<point x="139" y="600" type="curve"/>
			<point x="148" y="584" type="line"/>
			<point x="245" y="647"/>
			<point x="336" y="677"/>
			<point x="411" y="677" type="curve" smooth="yes"/>
			<point x="535" y="677"/>
			<point x="615" y="596"/>
			<point x="615" y="432" type="curve" smooth="yes"/>
			<point x="615" y="233"/>
			<point x="497" y="14"/>
			<point x="304" y="14" type="curve" smooth="yes"/>
			<point x="191" y="14"/>
			<point x="109" y="89"/>
			<point x="109" y="237" type="curve" smooth="yes"/>
			<point x="109" y="260"/>
			<point x="111" y="285"/>
			<point x="115" y="311" type="curve"/>
			<point x="104" y="305" type="line"/>
			<point x="613" y="305" type="line"/>
			<point x="616" y="324" type="line"/>
			<point x="96" y="325" type="line"/>
			<point x="91" y="298"/>
			<point x="87" y="261"/>
			<point x="87" y="228" type="curve" smooth="yes"/>
			<point x="87" y="74"/>
			<point x="176" y="-6"/>
		</contour>
	</outline>
</glyph>
<glyph name="dzeabkhasian-cy" format="2">
	<advance width="437"/>
	<unicode hex="04E1"/>
	<guideline x="291" y="400" angle="90"/>
	<guideline x="-30" y="398" angle="90"/>
	<outline>
		<contour>
			<point x="2" y="-218"/>
			<point x="63" y="-236"/>
			<point x="119" y="-236" type="curve" smooth="yes"/>
			<point x="256" y="-236"/>
			<point x="360" y="-132"/>
			<point x="360" y="20" type="curve" smooth="yes"/>
			<point x="360" y="196"/>
			<point x="221" y="196"/>
			<point x="184" y="196" type="curve" smooth="yes"/>
			<point x="157" y="196" type="line"/>
			<point x="158" y="187" type="line"/>
			<point x="417" y="506" type="line"/>
			<point x="419" y="522" type="line"/>
			<point x="65" y="522" type="line"/>
			<point x="51" y="415" type="line"/>
			<point x="69" y="415" type="line"/>
			<point x="95" y="513" type="line"/>
			<point x="84" y="503" type="line"/>
			<point x="402" y="503" type="line"/>
			<point x="397" y="511" type="line"/>
			<point x="139" y="192" type="line"/>
			<point x="151" y="197" type="line"/>
			<point x="95" y="192" type="line"/>
			<point x="93" y="177" type="line"/>
			<point x="177" y="177" type="line" smooth="yes"/>
			<point x="216" y="177"/>
			<point x="341" y="177"/>
			<point x="341" y="17" type="curve" smooth="yes"/>
			<point x="341" y="-124"/>
			<point x="245" y="-217"/>
			<point x="123" y="-217" type="curve" smooth="yes"/>
			<point x="70" y="-217"/>
			<point x="11" y="-199"/>
			<point x="-46" y="-161" type="curve"/>
			<point x="-57" y="-180" type="line"/>
		</contour>
	</outline>
</glyph>
<glyph name="Reversedze-cy" format="2">
	<advance width="565"/>
	<unicode hex="0510"/>
	<outline>
		<contour>
			<point x="86" y="48"/>
			<point x="161" y="-6"/>
			<point x="260" y="-6" type="curve" smooth="yes"/>
			<point x="326" y="-6"/>
			<point x="402" y="17"/>
			<point x="474" y="64" type="curve"/>
			<point x="464" y="81" type="line"/>
			<point x="395" y="36"/>
			<point x="323" y="14"/>
			<point x="262" y="14" type="curve" smooth="yes"/>
			<point x="173" y="14"/>
			<point x="107" y="61"/>
			<point x="107" y="164" type="curve" smooth="yes"/>
			<point x="107" y="280"/>
			<point x="193" y="358"/>
			<point x="332" y="358" type="curve" smooth="yes"/>
			<point x="399" y="358" type="line"/>
			<point x="402" y="378" type="line"/>
			<point x="338" y="378" type="line" smooth="yes"/>
			<point x="239" y="378"/>
			<point x="175" y="411"/>
			<point x="175" y="505" type="curve" smooth="yes"/>
			<point x="175" y="618"/>
			<point x="269" y="677"/>
			<point x="383" y="677" type="curve" smooth="yes"/>
			<point x="427" y="677"/>
			<point x="473" y="668"/>
			<point x="517" y="652" type="curve"/>
			<point x="514" y="659" type="line"/>
			<point x="502" y="526" type="line"/>
			<point x="516" y="526" type="line"/>
			<point x="543" y="663" type="line"/>
			<point x="486" y="686"/>
			<point x="430" y="697"/>
			<point x="380" y="697" type="curve" smooth="yes"/>
			<point x="250" y="697"/>
			<point x="154" y="625"/>
			<point x="154" y="501" type="curve" smooth="yes"/>
			<point x="154" y="429"/>
			<point x="189" y="377"/>
			<point x="285" y="364" type="curve"/>
			<point x="284" y="369" type="line"/>
			<point x="167" y="359"/>
			<point x="86" y="280"/>
			<point x="86" y="161" type="curve" smooth="yes"/>
		</contour>
	</outline>
</glyph>
<glyph name="EnLeftHook-cy" format="2">
	<advance width="766"/>
	<unicode hex="0528"/>
	<outline>
		<contour>
			<point x="-27" y="-236" type="curve" smooth="yes"/>
			<point x="90" y="-236"/>
			<point x="107" y="-135"/>
			<point x="113" y="-96" type="curve" smooth="yes"/>
			<point x="184" y="349" type="line"/>
			<point x="176" y="342" type="line"/>
			<point x="606" y="342" type="line"/>
			<point x="600" y="349" type="line"/>
			<point x="548" y="21" type="line"/>
			<point x="556" y="29" type="line"/>
			<point x="451" y="15" type="line"/>
			<point x="449" y="0" type="line"/>
			<point x="661" y="0" type="line"/>
			<point x="663" y="15" type="line"/>
			<point x="562" y="29" type="line"/>
			<point x="568" y="21" type="line"/>
			<point x="671" y="671" type="line"/>
			<point x="662" y="663" type="line"/>
			<point x="769" y="677" type="line"/>
			<point x="771" y="692" type="line"/>
			<point x="557" y="687" type="line"/>
			<point x="555" y="672" type="line"/>
			<point x="656" y="663" type="line"/>
			<point x="651" y="671" type="line"/>
			<point x="600" y="352" type="line"/>
			<point x="609" y="361" type="line"/>
			<point x="179" y="361" type="line"/>
			<point x="184" y="352" type="line"/>
			<point x="235" y="671" type="line"/>
			<point x="227" y="663" type="line"/>
			<point x="332" y="677" type="line"/>
			<point x="334" y="692" type="line"/>
			<point x="121" y="687" type="line"/>
			<point x="119" y="672" type="line"/>
			<point x="221" y="663" type="line"/>
			<point x="215" y="671" type="line"/>
			<point x="93" y="-98" type="line" smooth="yes"/>
			<point x="87" y="-138"/>
			<point x="71" y="-217"/>
			<point x="-29" y="-217" type="curve" smooth="yes"/>
			<point x="-40" y="-217"/>
			<point x="-51" y="-216"/>
			<point x="-63" y="-215" type="curve"/>
			<point x="-66" y="-233" type="line"/>
			<point x="-52" y="-235"/>
			<point x="-39" y="-236"/>
		</contour>
	</outline>
</glyph>
<glyph name="idieresisacute" format="2">
	<advance width="263"/>
	<unicode hex="1E2F"/>
	<outline>
		<contour>
			<point x="80" y="-2" type="line"/>
			<point x="187" y="2" type="line"/>
			<point x="189" y="17" type="line"/>
			<point x="99" y="29" type="line"/>
			<point x="104" y="22" type="line"/>
			<point x="184" y="525" type="line"/>
			<point x="77" y="520" type="line"/>
			<point x="75" y="505" type="line"/>
			<point x="168" y="492" type="line"/>
			<point x="160" y="502" type="line"/>
		</contour>
		<contour>
			<point x="275" y="624" type="curve" smooth="yes"/>
			<point x="289" y="624"/>
			<point x="303" y="637"/>
			<point x="303" y="660" type="curve" smooth="yes"/>
			<point x="303" y="674"/>
			<point x="295" y="683"/>
			<point x="282" y="683" type="curve" smooth="yes"/>
			<point x="268" y="683"/>
			<point x="254" y="671"/>
			<point x="254" y="649" type="curve" smooth="yes"/>
			<point x="254" y="634"/>
			<point x="262" y="624"/>
		</contour>
		<contour>
			<point x="105" y="624" type="curve" smooth="yes"/>
			<point x="119" y="624"/>
			<point x="133" y="637"/>
			<point x="133" y="660" type="curve" smooth="yes"/>
			<point x="133" y="674"/>
			<point x="125" y="683"/>
			<point x="112" y="683" type="curve" smooth="yes"/>
			<point x="97" y="683"/>
			<point x="84" y="671"/>
			<point x="84" y="647" type="curve" smooth="yes"/>
			<point x="84" y="633"/>
			<point x="92" y="624"/>
		</contour>
		<contour>
			<point x="191" y="671" type="line"/>
			<point x="314" y="774" type="line"/>
			<point x="294" y="794" type="line"/>
			<point x="180" y="684" type="line"/>
		</contour>
	</outline>
</glyph>
<glyph name="Germandbls" format="2">
	<advance width="715"/>
	<unicode hex="1E9E"/>
	<outline>
		<contour>
			<point x="396" y="-6" type="curve" smooth="yes"/>
			<point x="548" y="-6"/>
			<point x="648" y="85"/>
			<point x="648" y="221" type="curve" smooth="yes"/>
			<point x="648" y="344"/>
			<point x="566" y="385"/>
			<point x="403" y="396" type="curve"/>
			<point x="404" y="387" type="line"/>
			<point x="645" y="671" type="line"/>
			<point x="648" y="692" type="line"/>
			<point x="248" y="692" type="line"/>
			<point x="130" y="687" type="line"/>
			<point x="128" y="672" type="line"/>
			<point x="230" y="662" type="line"/>
			<point x="224" y="670" type="line"/>
			<point x="121" y="21" type="line"/>
			<point x="129" y="29" type="line"/>
			<point x="24" y="15" type="line"/>
			<point x="22" y="0" type="line"/>
			<point x="138" y="0" type="line"/>
			<point x="245" y="680" type="line"/>
			<point x="237" y="672" type="line"/>
			<point x="632" y="673" type="line"/>
			<point x="633" y="685" type="line"/>
			<point x="388" y="397" type="line"/>
			<point x="385" y="378" type="line"/>
			<point x="545" y="369"/>
			<point x="626" y="334"/>
			<point x="626" y="218" type="curve" smooth="yes"/>
			<point x="626" y="99"/>
			<point x="541" y="14"/>
			<point x="399" y="14" type="curve" smooth="yes"/>
			<point x="361" y="14"/>
			<point x="318" y="20"/>
			<point x="274" y="32" type="curve"/>
			<point x="277" y="24" type="line"/>
			<point x="283" y="137" type="line"/>
			<point x="268" y="137" type="line"/>
			<point x="244" y="19" type="line"/>
			<point x="295" y="3"/>
			<point x="348" y="-6"/>
		</contour>
	</outline>
</glyph>
<glyph name="endash" format="2">
	<advance width="592"/>
	<unicode hex="2013"/>
	<outline>
		<contour>
			<point x="519" y="303" type="line"/>
			<point x="87" y="303" type="line"/>
			<point x="84" y="284" type="line"/>
			<point x="516" y="284" type="line"/>
		</contour>
	</outline>
</glyph>
<glyph name="perthousand" format="2">
	<advance width="1155"/>
	<unicode hex="2030"/>
	<outline>
		<contour>
			<point x="121" y="-6" type="line"/>
			<point x="144" y="-6" type="line"/>
			<point x="701" y="698" type="line"/>
			<point x="678" y="698" type="line"/>
		</contour>
		<contour>
			<point x="238" y="352" type="curve" smooth="yes"/>
			<point x="359" y="352"/>
			<point x="421" y="457"/>
			<point x="421" y="569" type="curve" smooth="yes"/>
			<point x="421" y="652"/>
			<point x="388" y="698"/>
			<point x="305" y="698" type="curve" smooth="yes"/>
			<point x="183" y="698"/>
			<point x="119" y="601"/>
			<point x="119" y="488" type="curve" smooth="yes"/>
			<point x="119" y="401"/>
			<point x="154" y="352"/>
		</contour>
		<contour>
			<point x="239" y="371" type="curve" smooth="yes"/>
			<point x="170" y="371"/>
			<point x="139" y="411"/>
			<point x="139" y="487" type="curve" smooth="yes"/>
			<point x="139" y="587"/>
			<point x="192" y="679"/>
			<point x="303" y="679" type="curve" smooth="yes"/>
			<point x="372" y="679"/>
			<point x="401" y="644"/>
			<point x="401" y="570" type="curve" smooth="yes"/>
			<point x="401" y="471"/>
			<point x="349" y="371"/>
		</contour>
		<contour>
			<point x="519" y="-6" type="curve" smooth="yes"/>
			<point x="640" y="-6"/>
			<point x="702" y="99"/>
			<point x="702" y="211" type="curve" smooth="yes"/>
			<point x="702" y="294"/>
			<point x="669" y="340"/>
			<point x="586" y="340" type="curve" smooth="yes"/>
			<point x="464" y="340"/>
			<point x="400" y="243"/>
			<point x="400" y="130" type="curve" smooth="yes"/>
			<point x="400" y="43"/>
			<point x="435" y="-6"/>
		</contour>
		<contour>
			<point x="520" y="13" type="curve" smooth="yes"/>
			<point x="451" y="13"/>
			<point x="420" y="53"/>
			<point x="420" y="129" type="curve" smooth="yes"/>
			<point x="420" y="229"/>
			<point x="473" y="321"/>
			<point x="584" y="321" type="curve" smooth="yes"/>
			<point x="653" y="321"/>
			<point x="682" y="286"/>
			<point x="682" y="212" type="curve" smooth="yes"/>
			<point x="682" y="113"/>
			<point x="630" y="13"/>
		</contour>
		<contour>
			<point x="880" y="-6" type="curve" smooth="yes"/>
			<point x="1001" y="-6"/>
			<point x="1063" y="99"/>
			<point x="1063" y="211" type="curve" smooth="yes"/>
			<point x="1063" y="294"/>
			<point x="1030" y="340"/>
			<point x="947" y="340" type="curve" smooth="yes"/>
			<point x="825" y="340"/>
			<point x="761" y="243"/>
			<point x="761" y="130" type="curve" smooth="yes"/>
			<point x="761" y="43"/>
			<point x="796" y="-6"/>
		</contour>
		<contour>
			<point x="881" y="13" type="curve" smooth="yes"/>
			<point x="812" y="13"/>
			<point x="781" y="53"/>
			<point x="781" y="129" type="curve" smooth="yes"/>
			<point x="781" y="229"/>
			<point x="834" y="321"/>
			<point x="945" y="321" type="curve" smooth="yes"/>
			<point x="1014" y="321"/>
			<point x="1043" y="286"/>
			<point x="1043" y="212" type="curve" smooth="yes"/>
			<point x="1043" y="113"/>
			<point x="991" y="13"/>
		</contour>
	</outline>
</glyph>
<glyph name="fraction" format="2">
	<advance width="173"/>
	<unicode hex="2044"/>
	<guideline x="-285" y="-4" angle="0"/>
	<guideline x="227" y="696" angle="0"/>
	<outline>
		<contour>
			<point x="-187" y="-4" type="line"/>
			<point x="-166" y="-4" type="line"/>
			<point x="378" y="696" type="line"/>
			<point x="356" y="696" type="line"/>
		</contour>
	</outline>
</glyph>
<glyph name="lira" format="2">
	<advance width="690"/>
	<unicode hex="20A4"/>
	<outline>
		<contour>
			<point x="64" y="0" type="line"/>
			<point x="526" y="0" type="line"/>
			<point x="549" y="142" type="line"/>
			<point x="535" y="142" type="line"/>
			<point x="500" y="12" type="line"/>
			<point x="509" y="19" type="line"/>
			<point x="154" y="22" type="line"/>
			<point x="156" y="15" type="line"/>
			<point x="236" y="60"/>
			<point x="253" y="171"/>
			<point x="259" y="307" type="curve"/>
			<point x="250" y="297" type="line"/>
			<point x="445" y="297" type="line"/>
			<point x="448" y="316" type="line"/>
			<point x="114" y="316" type="line"/>
			<point x="111" y="297" type="line"/>
			<point x="242" y="297" type="line"/>
			<point x="239" y="309" type="line"/>
			<point x="236" y="179"/>
			<point x="215" y="61"/>
			<point x="137" y="21" type="curve"/>
			<point x="161" y="33" type="line"/>
			<point x="66" y="15" type="line"/>
		</contour>
		<contour>
			<point x="127" y="397" type="line"/>
			<point x="461" y="397" type="line"/>
			<point x="464" y="416" type="line"/>
			<point x="256" y="416" type="line"/>
			<point x="261" y="409" type="line"/>
			<point x="262" y="603"/>
			<point x="326" y="678"/>
			<point x="464" y="678" type="curve" smooth="yes"/>
			<point x="505" y="678"/>
			<point x="552" y="672"/>
			<point x="605" y="660" type="curve"/>
			<point x="597" y="673" type="line"/>
			<point x="588" y="543" type="line"/>
			<point x="602" y="543" type="line"/>
			<point x="627" y="675" type="line"/>
			<point x="566" y="690"/>
			<point x="512" y="698"/>
			<point x="465" y="698" type="curve" smooth="yes"/>
			<point x="317" y="698"/>
			<point x="240" y="617"/>
			<point x="240" y="408" type="curve"/>
			<point x="246" y="416" type="line"/>
			<point x="130" y="416" type="line"/>
		</contour>
	</outline>
</glyph>
<glyph name="hryvnia" format="2">
	<advance width="703"/>
	<unicode hex="20B4"/>
	<outline>
		<contour>
			<point x="324" y="-6" type="curve" smooth="yes"/>
			<point x="383" y="-6"/>
			<point x="447" y="8"/>
			<point x="506" y="35" type="curve"/>
			<point x="521" y="169" type="line"/>
			<point x="507" y="169" type="line"/>
			<point x="475" y="39" type="line"/>
			<point x="482" y="47" type="line"/>
			<point x="431" y="26"/>
			<point x="377" y="15"/>
			<point x="327" y="15" type="curve" smooth="yes"/>
			<point x="227" y="15"/>
			<point x="147" y="59"/>
			<point x="162" y="153" type="curve" smooth="yes"/>
			<point x="170" y="202"/>
			<point x="208" y="256"/>
			<point x="281" y="299" type="curve"/>
			<point x="257" y="291" type="line"/>
			<point x="583" y="291" type="line"/>
			<point x="586" y="310" type="line"/>
			<point x="142" y="310" type="line"/>
			<point x="138" y="291" type="line"/>
			<point x="245" y="291" type="line"/>
			<point x="251" y="302" type="line"/>
			<point x="183" y="257"/>
			<point x="147" y="203"/>
			<point x="139" y="153" type="curve" smooth="yes"/>
			<point x="122" y="45"/>
			<point x="212" y="-6"/>
		</contour>
		<contour>
			<point x="154" y="391" type="line"/>
			<point x="599" y="391" type="line"/>
			<point x="602" y="410" type="line"/>
			<point x="460" y="410" type="line"/>
			<point x="457" y="403" type="line"/>
			<point x="517" y="440"/>
			<point x="568" y="493"/>
			<point x="578" y="556" type="curve" smooth="yes"/>
			<point x="593" y="652"/>
			<point x="513" y="698"/>
			<point x="407" y="698" type="curve" smooth="yes"/>
			<point x="353" y="698"/>
			<point x="292" y="686"/>
			<point x="232" y="662" type="curve"/>
			<point x="218" y="527" type="line"/>
			<point x="233" y="527" type="line"/>
			<point x="261" y="653" type="line"/>
			<point x="253" y="648" type="line"/>
			<point x="303" y="668"/>
			<point x="356" y="677"/>
			<point x="403" y="677" type="curve" smooth="yes"/>
			<point x="497" y="677"/>
			<point x="570" y="639"/>
			<point x="557" y="554" type="curve" smooth="yes"/>
			<point x="547" y="492"/>
			<point x="490" y="440"/>
			<point x="422" y="403" type="curve"/>
			<point x="446" y="410" type="line"/>
			<point x="157" y="410" type="line"/>
		</contour>
	</outline>
</glyph>
<glyph name="rupeeIndian" format="2">
	<advance width="635"/>
	<unicode hex="20B9"/>
	<outline>
		<contour>
			<point x="424" y="0" type="line"/>
			<point x="503" y="0" type="line"/>
			<point x="505" y="15" type="line"/>
			<point x="431" y="30" type="line"/>
			<point x="442" y="20" type="line"/>
			<point x="377" y="203" type="line" smooth="yes"/>
			<point x="350" y="278"/>
			<point x="339" y="324"/>
			<point x="271" y="336" type="curve"/>
			<point x="275" y="334" type="line"/>
			<point x="406" y="345"/>
			<point x="495" y="438"/>
			<point x="495" y="550" type="curve" smooth="yes"/>
			<point x="495" y="559"/>
			<point x="494" y="569"/>
			<point x="493" y="578" type="curve"/>
			<point x="485" y="573" type="line"/>
			<point x="588" y="573" type="line"/>
			<point x="591" y="592" type="line"/>
			<point x="152" y="592" type="line"/>
			<point x="149" y="573" type="line"/>
			<point x="481" y="573" type="line"/>
			<point x="471" y="579" type="line"/>
			<point x="473" y="567"/>
			<point x="474" y="556"/>
			<point x="474" y="545" type="curve" smooth="yes"/>
			<point x="474" y="429"/>
			<point x="367" y="347"/>
			<point x="226" y="347" type="curve" smooth="yes"/>
			<point x="113" y="347" type="line"/>
			<point x="110" y="328" type="line"/>
			<point x="200" y="328" type="line" smooth="yes"/>
			<point x="286" y="328"/>
			<point x="318" y="318"/>
			<point x="358" y="199" type="curve" smooth="yes"/>
		</contour>
		<contour>
			<point x="165" y="673" type="line"/>
			<point x="603" y="673" type="line"/>
			<point x="606" y="692" type="line"/>
			<point x="168" y="692" type="line"/>
		</contour>
	</outline>
</glyph>
<glyph name="liraTurkish" format="2">
	<advance width="657"/>
	<unicode hex="20BA"/>
	<guideline x="443" y="514" angle="90"/>
	<outline>
		<contour>
			<point x="88" y="0" type="line"/>
			<point x="202" y="0" type="line" smooth="yes"/>
			<point x="369" y="0"/>
			<point x="540" y="114"/>
			<point x="575" y="335" type="curve"/>
			<point x="555" y="337" type="line"/>
			<point x="521" y="121"/>
			<point x="354" y="19"/>
			<point x="205" y="19" type="curve" smooth="yes"/>
			<point x="200" y="19" type="line"/>
			<point x="205" y="10" type="line"/>
			<point x="264" y="380" type="line"/>
			<point x="253" y="368" type="line"/>
			<point x="512" y="460" type="line"/>
			<point x="515" y="480" type="line"/>
			<point x="111" y="336" type="line"/>
			<point x="108" y="316" type="line"/>
			<point x="249" y="366" type="line"/>
			<point x="243" y="372" type="line"/>
			<point x="187" y="21" type="line"/>
			<point x="197" y="29" type="line"/>
			<point x="90" y="15" type="line"/>
		</contour>
		<contour>
			<point x="125" y="420" type="line"/>
			<point x="529" y="564" type="line"/>
			<point x="532" y="584" type="line"/>
			<point x="273" y="492" type="line"/>
			<point x="281" y="488" type="line"/>
			<point x="313" y="692" type="line"/>
			<point x="293" y="692" type="line"/>
			<point x="260" y="479" type="line"/>
			<point x="270" y="491" type="line"/>
			<point x="128" y="440" type="line"/>
		</contour>
	</outline>
</glyph>
<glyph name="manat" format="2">
	<advance width="956"/>
	<unicode hex="20BC"/>
	<guideline x="459" y="201" angle="261"/>
	<guideline x="479" y="201" angle="261"/>
	<outline>
		<contour>
			<point x="15" y="0" type="line"/>
			<point x="111" y="0" type="line"/>
			<point x="195" y="456"/>
			<point x="396" y="635"/>
			<point x="533" y="642" type="curve"/>
			<point x="530" y="650" type="line"/>
			<point x="447" y="125" type="line"/>
			<point x="467" y="125" type="line"/>
			<point x="550" y="651" type="line"/>
			<point x="546" y="642" type="line"/>
			<point x="672" y="639"/>
			<point x="778" y="500"/>
			<point x="778" y="219" type="curve" smooth="yes"/>
			<point x="778" y="152"/>
			<point x="772" y="80"/>
			<point x="761" y="0" type="curve"/>
			<point x="858" y="0" type="line"/>
			<point x="860" y="15" type="line"/>
			<point x="776" y="24" type="line"/>
			<point x="783" y="11" type="line"/>
			<point x="794" y="89"/>
			<point x="799" y="160"/>
			<point x="799" y="222" type="curve" smooth="yes"/>
			<point x="799" y="545"/>
			<point x="665" y="661"/>
			<point x="544" y="662" type="curve"/>
			<point x="551" y="655" type="line"/>
			<point x="573" y="794" type="line"/>
			<point x="553" y="794" type="line"/>
			<point x="531" y="654" type="line"/>
			<point x="535" y="662" type="line"/>
			<point x="390" y="654"/>
			<point x="183" y="484"/>
			<point x="94" y="18" type="curve"/>
			<point x="105" y="29" type="line"/>
			<point x="17" y="15" type="line"/>
		</contour>
	</outline>
</glyph>
<glyph name="careof" format="2">
	<advance width="994"/>
	<unicode hex="2105"/>
	<outline>
		<contour>
			<point x="245" y="272" type="curve" smooth="yes"/>
			<point x="286" y="272"/>
			<point x="332" y="286"/>
			<point x="377" y="314" type="curve"/>
			<point x="368" y="330" type="line"/>
			<point x="328" y="304"/>
			<point x="286" y="291"/>
			<point x="248" y="291" type="curve" smooth="yes"/>
			<point x="180" y="291"/>
			<point x="129" y="334"/>
			<point x="129" y="435" type="curve" smooth="yes"/>
			<point x="129" y="561"/>
			<point x="212" y="679"/>
			<point x="322" y="679" type="curve" smooth="yes"/>
			<point x="350" y="679"/>
			<point x="379" y="671"/>
			<point x="410" y="655" type="curve"/>
			<point x="405" y="666" type="line"/>
			<point x="403" y="581" type="line"/>
			<point x="418" y="581" type="line"/>
			<point x="432" y="664" type="line"/>
			<point x="395" y="688"/>
			<point x="358" y="698"/>
			<point x="323" y="698" type="curve" smooth="yes"/>
			<point x="204" y="698"/>
			<point x="109" y="578"/>
			<point x="109" y="434" type="curve" smooth="yes"/>
			<point x="109" y="320"/>
			<point x="168" y="272"/>
		</contour>
		<contour>
			<point x="689" y="-6" type="curve" smooth="yes"/>
			<point x="818" y="-6"/>
			<point x="913" y="121"/>
			<point x="913" y="253" type="curve" smooth="yes"/>
			<point x="913" y="369"/>
			<point x="840" y="420"/>
			<point x="757" y="420" type="curve" smooth="yes"/>
			<point x="628" y="420"/>
			<point x="536" y="295"/>
			<point x="536" y="163" type="curve" smooth="yes"/>
			<point x="536" y="47"/>
			<point x="605" y="-6"/>
		</contour>
		<contour>
			<point x="690" y="13" type="curve" smooth="yes"/>
			<point x="617" y="13"/>
			<point x="556" y="59"/>
			<point x="556" y="163" type="curve" smooth="yes"/>
			<point x="556" y="281"/>
			<point x="637" y="401"/>
			<point x="756" y="401" type="curve" smooth="yes"/>
			<point x="831" y="401"/>
			<point x="893" y="354"/>
			<point x="893" y="252" type="curve" smooth="yes"/>
			<point x="893" y="133"/>
			<point x="809" y="13"/>
		</contour>
		<contour>
			<point x="201" y="-4" type="line"/>
			<point x="223" y="-4" type="line"/>
			<point x="767" y="696" type="line"/>
			<point x="744" y="696" type="line"/>
		</contour>
	</outline>
</glyph>
<glyph name="estimated" format="2">
	<advance width="752"/>
	<unicode hex="212E"/>
	<outline>
		<contour>
			<point x="386" y="3" type="curve" smooth="yes"/>
			<point x="481" y="3"/>
			<point x="563" y="48"/>
			<point x="615" y="115" type="curve"/>
			<point x="607" y="121" type="line"/>
			<point x="557" y="56"/>
			<point x="478" y="13"/>
			<point x="387" y="13" type="curve" smooth="yes"/>
			<point x="324" y="13"/>
			<point x="264" y="37"/>
			<point x="217" y="74" type="curve"/>
			<point x="222" y="64" type="line"/>
			<point x="222" y="505" type="line"/>
			<point x="217" y="494" type="line"/>
			<point x="264" y="532"/>
			<point x="323" y="554"/>
			<point x="387" y="554" type="curve" smooth="yes"/>
			<point x="451" y="554"/>
			<point x="510" y="530"/>
			<point x="557" y="493" type="curve"/>
			<point x="552" y="506" type="line"/>
			<point x="552" y="286" type="line"/>
			<point x="561" y="293" type="line"/>
			<point x="209" y="292" type="line"/>
			<point x="209" y="283" type="line"/>
			<point x="670" y="284" type="line"/>
			<point x="670" y="437"/>
			<point x="542" y="564"/>
			<point x="388" y="564" type="curve" smooth="yes"/>
			<point x="233" y="564"/>
			<point x="103" y="436"/>
			<point x="103" y="283" type="curve" smooth="yes"/>
			<point x="103" y="129"/>
			<point x="232" y="3"/>
		</contour>
	</outline>
</glyph>
<glyph name="infinity" format="2">
	<advance width="1019"/>
	<unicode hex="221E"/>
	<outline>
		<contour>
			<point x="269" y="165" type="curve" smooth="yes"/>
			<point x="467" y="165"/>
			<point x="579" y="501"/>
			<point x="771" y="501" type="curve" smooth="yes"/>
			<point x="840" y="501"/>
			<point x="889" y="457"/>
			<point x="889" y="374" type="curve" smooth="yes"/>
			<point x="889" y="272"/>
			<point x="815" y="181"/>
			<point x="714" y="184" type="curve" smooth="yes"/>
			<point x="632" y="186"/>
			<point x="580" y="249"/>
			<point x="532" y="348" type="curve"/>
			<point x="515" y="338" type="line"/>
			<point x="567" y="230"/>
			<point x="626" y="165"/>
			<point x="716" y="165" type="curve" smooth="yes"/>
			<point x="826" y="165"/>
			<point x="909" y="261"/>
			<point x="909" y="374" type="curve" smooth="yes"/>
			<point x="909" y="466"/>
			<point x="854" y="520"/>
			<point x="772" y="520" type="curve" smooth="yes"/>
			<point x="569" y="520"/>
			<point x="454" y="184"/>
			<point x="269" y="184" type="curve" smooth="yes"/>
			<point x="201" y="184"/>
			<point x="155" y="230"/>
			<point x="155" y="311" type="curve" smooth="yes"/>
			<point x="155" y="412"/>
			<point x="227" y="501"/>
			<point x="326" y="501" type="curve" smooth="yes"/>
			<point x="411" y="501"/>
			<point x="465" y="435"/>
			<point x="513" y="337" type="curve"/>
			<point x="530" y="347" type="line"/>
			<point x="477" y="455"/>
			<point x="417" y="520"/>
			<point x="328" y="520" type="curve" smooth="yes"/>
			<point x="218" y="520"/>
			<point x="135" y="422"/>
			<point x="135" y="310" type="curve" smooth="yes"/>
			<point x="135" y="218"/>
			<point x="191" y="165"/>
		</contour>
	</outline>
</glyph>
<glyph name="notequal" format="2">
	<advance width="724"/>
	<unicode hex="2260"/>
	<outline>
		<contour>
			<point x="547" y="604" type="line"/>
			<point x="190" y="103" type="line"/>
			<point x="204" y="93" type="line"/>
			<point x="561" y="594" type="line"/>
		</contour>
		<contour>
			<point x="600" y="445" type="line"/>
			<point x="183" y="445" type="line"/>
			<point x="180" y="426" type="line"/>
			<point x="597" y="426" type="line"/>
		</contour>
		<contour>
			<point x="572" y="271" type="line"/>
			<point x="155" y="271" type="line"/>
			<point x="152" y="252" type="line"/>
			<point x="569" y="252" type="line"/>
		</contour>
	</outline>
</glyph>
<glyph name="integraltp" format="2">
	<advance width="326"/>
	<unicode hex="2320"/>
	<outline>
		<contour>
			<point x="42" y="-231" type="line"/>
			<point x="61" y="-231" type="line"/>
			<point x="204" y="672" type="line" smooth="yes"/>
			<point x="220" y="770"/>
			<point x="263" y="805"/>
			<point x="323" y="805" type="curve" smooth="yes"/>
			<point x="347" y="805"/>
			<point x="373" y="799"/>
			<point x="402" y="790" type="curve"/>
			<point x="409" y="809" type="line"/>
			<point x="379" y="818"/>
			<point x="352" y="824"/>
			<point x="325" y="824" type="curve" smooth="yes"/>
			<point x="256" y="824"/>
			<point x="203" y="784"/>
			<point x="185" y="674" type="curve" smooth="yes"/>
		</contour>
	</outline>
</glyph>
<glyph name="upBlackTriangle" format="2">
	<advance width="637"/>
	<unicode hex="25B2"/>
	<outline>
		<contour>
			<point x="358" y="540" type="line"/>
			<point x="78" y="149" type="line"/>
			<point x="513" y="148" type="line"/>
		</contour>
	</outline>
</glyph>
<glyph name="lozenge" format="2">
	<advance width="564"/>
	<unicode hex="25CA"/>
	<outline>
		<contour>
			<point x="360" y="692" type="line"/>
			<point x="341" y="692" type="line"/>
			<point x="78" y="348" type="line"/>
			<point x="232" y="0" type="line"/>
			<point x="251" y="0" type="line"/>
			<point x="515" y="348" type="line"/>
		</contour>
		<contour>
			<point x="345" y="683" type="line"/>
			<point x="498" y="340" type="line"/>
			<point x="500" y="356" type="line"/>
			<point x="238" y="8" type="line"/>
			<point x="247" y="8" type="line"/>
			<point x="95" y="356" type="line"/>
			<point x="93" y="340" type="line"/>
			<point x="355" y="683" type="line"/>
		</contour>
	</outline>
</glyph>
<glyph name="A.ogonekAccent" format="2">
	<advance width="662"/>
	<guideline x="1209" y="-200" angle="90"/>
	<guideline x="1188" y="-200" angle="90"/>
	<anchor x="288" y="0" name="bottom"/>
	<anchor x="532" y="0" name="ogonek"/>
	<anchor x="406" y="692" name="top"/>
	<outline>
		<contour>
			<point x="533" y="22" type="line"/>
			<point x="415" y="693" type="line"/>
			<point x="395" y="691" type="line"/>
			<point x="52" y="22" type="line"/>
			<point x="61" y="29" type="line"/>
			<point x="-32" y="15" type="line"/>
			<point x="-35" y="0" type="line"/>
			<point x="181" y="0" type="line"/>
			<point x="184" y="15" type="line"/>
			<point x="69" y="29" type="line"/>
			<point x="73" y="22" type="line"/>
			<point x="170" y="213" type="line"/>
			<point x="160" y="206" type="line"/>
			<point x="486" y="206" type="line"/>
			<point x="479" y="213" type="line"/>
			<point x="516" y="0" type="line"/>
			<point x="614" y="0" type="line"/>
			<point x="616" y="15" type="line"/>
			<point x="526" y="29" type="line"/>
		</contour>
		<contour>
			<point x="173" y="219" type="line"/>
			<point x="404" y="672" type="line"/>
			<point x="400" y="672" type="line"/>
			<point x="478" y="219" type="line"/>
			<point x="483" y="225" type="line"/>
			<point x="169" y="225" type="line"/>
		</contour>
	</outline>
</glyph>
<glyph name="Ef-cy.loclBGR" format="2">
	<advance width="766"/>
	<outline>
		<contour>
			<point x="558" y="697" type="line"/>
			<point x="560" y="712" type="line"/>
			<point x="347" y="707" type="line"/>
			<point x="345" y="692" type="line"/>
			<point x="447" y="683" type="line"/>
			<point x="441" y="691" type="line"/>
			<point x="326" y="-35" type="line"/>
			<point x="335" y="-27" type="line"/>
			<point x="229" y="-41" type="line"/>
			<point x="227" y="-56" type="line"/>
			<point x="439" y="-56" type="line"/>
			<point x="441" y="-41" type="line"/>
			<point x="340" y="-27" type="line"/>
			<point x="346" y="-35" type="line"/>
			<point x="461" y="691" type="line"/>
			<point x="452" y="683" type="line"/>
		</contour>
		<contour>
			<point x="339" y="69" type="curve" smooth="yes"/>
			<point x="568" y="69"/>
			<point x="717" y="195"/>
			<point x="717" y="382" type="curve" smooth="yes"/>
			<point x="717" y="551"/>
			<point x="596" y="604"/>
			<point x="446" y="604" type="curve" smooth="yes"/>
			<point x="216" y="604"/>
			<point x="73" y="479"/>
			<point x="73" y="291" type="curve" smooth="yes"/>
			<point x="73" y="124"/>
			<point x="187" y="69"/>
		</contour>
		<contour>
			<point x="340" y="89" type="curve" smooth="yes"/>
			<point x="193" y="89"/>
			<point x="94" y="140"/>
			<point x="94" y="294" type="curve" smooth="yes"/>
			<point x="94" y="473"/>
			<point x="229" y="584"/>
			<point x="446" y="584" type="curve" smooth="yes"/>
			<point x="588" y="584"/>
			<point x="695" y="536"/>
			<point x="695" y="379" type="curve" smooth="yes"/>
			<point x="695" y="200"/>
			<point x="556" y="89"/>
		</contour>
	</outline>
</glyph>
<glyph name="a.sc" format="2">
	<advance width="582"/>
	<anchor x="247" y="0" name="bottom"/>
	<anchor x="545" y="0" name="ogonek"/>
	<anchor x="345" y="568" name="top"/>
	<outline>
		<contour>
			<point x="468" y="20" type="line"/>
			<point x="356" y="570" type="line"/>
			<point x="335" y="568" type="line"/>
			<point x="34" y="20" type="line"/>
			<point x="46" y="26" type="line"/>
			<point x="-45" y="14" type="line"/>
			<point x="-47" y="0" type="line"/>
			<point x="151" y="0" type="line"/>
			<point x="153" y="14" type="line"/>
			<point x="53" y="26" type="line"/>
			<point x="55" y="20" type="line"/>
			<point x="139" y="174" type="line"/>
			<point x="128" y="168" type="line"/>
			<point x="422" y="168" type="line"/>
			<point x="417" y="177" type="line"/>
			<point x="449" y="20" type="line"/>
			<point x="451" y="26" type="line"/>
			<point x="345" y="14" type="line"/>
			<point x="343" y="0" type="line"/>
			<point x="545" y="0" type="line"/>
			<point x="548" y="14" type="line"/>
			<point x="460" y="26" type="line"/>
		</contour>
		<contour>
			<point x="143" y="181" type="line"/>
			<point x="348" y="557" type="line"/>
			<point x="341" y="556" type="line"/>
			<point x="417" y="180" type="line"/>
			<point x="417" y="187" type="line"/>
			<point x="139" y="187" type="line"/>
		</contour>
	</outline>
</glyph>
<glyph name="acute.case.loclPLK" format="2">
	<advance width="251"/>
	<guideline x="290" y="747" angle="0"/>
	<guideline x="379" y="868" angle="0"/>
	<anchor x="162" y="692" name="_top"/>
	<anchor x="204" y="870" name="top"/>
	<outline>
		<contour>
			<point x="143" y="733" type="line"/>
			<point x="273" y="870" type="line"/>
			<point x="250" y="889" type="line"/>
			<point x="130" y="744" type="line"/>
		</contour>
	</outline>
</glyph>
<glyph name="acutecomb.case" format="2">
	<advance width="379"/>
	<guideline x="379" y="747" angle="0"/>
	<guideline x="468" y="868" angle="0"/>
	<guideline x="322" y="834" angle="0"/>
	<guideline x="279" y="775" angle="0"/>
	<guideline x="188" y="818" angle="261"/>
	<guideline x="368" y="818" angle="261"/>
	<guideline x="278" y="818" angle="261"/>
	<anchor x="258" y="692" name="_top"/>
	<anchor x="281" y="840" name="top"/>
	<outline>
		<contour>
			<point x="186" y="747" type="line"/>
			<point x="371" y="840" type="line"/>
			<point x="358" y="868" type="line"/>
			<point x="178" y="761" type="line"/>
		</contour>
	</outline>
</glyph>
<glyph name="asterisk.alt" format="2">
	<advance width="475"/>
	<outline>
		<contour>
			<point x="264" y="620" type="line"/>
			<point x="274" y="631" type="line"/>
			<point x="299" y="762" type="line"/>
			<point x="272" y="762" type="line"/>
			<point x="257" y="631" type="line"/>
		</contour>
		<contour>
			<point x="260" y="617" type="line"/>
			<point x="256" y="631" type="line"/>
			<point x="158" y="703" type="line"/>
			<point x="142" y="678" type="line"/>
			<point x="245" y="616" type="line"/>
		</contour>
		<contour>
			<point x="259" y="613" type="line"/>
			<point x="245" y="616" type="line"/>
			<point x="122" y="553" type="line"/>
			<point x="131" y="529" type="line"/>
			<point x="252" y="601" type="line"/>
		</contour>
		<contour>
			<point x="261" y="611" type="line"/>
			<point x="251" y="601" type="line"/>
			<point x="226" y="470" type="line"/>
			<point x="253" y="470" type="line"/>
			<point x="269" y="601" type="line"/>
		</contour>
		<contour>
			<point x="266" y="613" type="line"/>
			<point x="269" y="601" type="line"/>
			<point x="367" y="529" type="line"/>
			<point x="383" y="553" type="line"/>
			<point x="279" y="616" type="line"/>
		</contour>
		<contour>
			<point x="265" y="617" type="line"/>
			<point x="279" y="616" type="line"/>
			<point x="403" y="678" type="line"/>
			<point x="394" y="703" type="line"/>
			<point x="273" y="631" type="line"/>
		</contour>
	</outline>
</glyph>
<glyph name="brevecomb-cy" format="2">
	<advance width="414"/>
	<guideline x="149" y="637" angle="0"/>
	<guideline x="248" y="770" angle="0"/>
	<guideline x="212" y="724" angle="0"/>
	<guideline x="157" y="649" angle="0"/>
	<guideline x="379" y="674" angle="261"/>
	<guideline x="272" y="674" angle="261"/>
	<guideline x="165" y="674" angle="261"/>
	<anchor x="248" y="522" name="_top"/>
	<outline>
		<contour>
			<point x="271" y="649" type="curve" smooth="yes"/>
			<point x="328" y="649"/>
			<point x="377" y="675"/>
			<point x="389" y="737" type="curve"/>
			<point x="367" y="737" type="line"/>
			<point x="357" y="687"/>
			<point x="320" y="667"/>
			<point x="275" y="667" type="curve" smooth="yes"/>
			<point x="228" y="667"/>
			<point x="195" y="688"/>
			<point x="199" y="737" type="curve"/>
			<point x="175" y="737" type="line"/>
			<point x="171" y="676"/>
			<point x="213" y="649"/>
		</contour>
	</outline>
</glyph>
<glyph name="dieresiscaroncomb" format="2">
	<advance width="470"/>
	<guideline x="291" y="724" angle="0"/>
	<guideline x="291" y="675" angle="0"/>
	<guideline x="279" y="762" angle="0"/>
	<guideline x="278" y="625" angle="0"/>
	<guideline x="283" y="561" angle="261"/>
	<guideline x="403" y="561" angle="261"/>
	<guideline x="163" y="561" angle="261"/>
	<guideline x="935" y="561" angle="261"/>
	<guideline x="694" y="561" angle="261"/>
	<guideline x="353" y="561" angle="261"/>
	<guideline x="213" y="561" angle="261"/>
	<anchor x="277" y="522" name="_top"/>
	<outline>
		<contour>
			<point x="389" y="625" type="curve" smooth="yes"/>
			<point x="406" y="625"/>
			<point x="418" y="641"/>
			<point x="418" y="660" type="curve" smooth="yes"/>
			<point x="418" y="675"/>
			<point x="410" y="684"/>
			<point x="397" y="684" type="curve" smooth="yes"/>
			<point x="381" y="684"/>
			<point x="368" y="669"/>
			<point x="368" y="650" type="curve" smooth="yes"/>
			<point x="368" y="634"/>
			<point x="377" y="625"/>
		</contour>
		<contour>
			<point x="198" y="625" type="curve" smooth="yes"/>
			<point x="215" y="625"/>
			<point x="227" y="641"/>
			<point x="227" y="660" type="curve" smooth="yes"/>
			<point x="227" y="675"/>
			<point x="219" y="684"/>
			<point x="206" y="684" type="curve" smooth="yes"/>
			<point x="190" y="684"/>
			<point x="177" y="669"/>
			<point x="177" y="650" type="curve" smooth="yes"/>
			<point x="177" y="634"/>
			<point x="186" y="625"/>
		</contour>
		<contour>
			<point x="443" y="795" type="line"/>
			<point x="302" y="700" type="line"/>
			<point x="310" y="700" type="line"/>
			<point x="195" y="795" type="line"/>
			<point x="182" y="782" type="line"/>
			<point x="295" y="675" type="line"/>
			<point x="310" y="675" type="line"/>
			<point x="452" y="782" type="line"/>
		</contour>
	</outline>
</glyph>
<glyph name="e.sc" format="2">
	<advance width="557"/>
	<guideline x="159" y="231" angle="261"/>
	<guideline x="139" y="234" angle="261"/>
	<guideline x="295" y="234" angle="261"/>
	<anchor x="258" y="0" name="bottom"/>
	<anchor x="439" y="0" name="ogonek"/>
	<anchor x="348" y="568" name="top"/>
	<anchor x="77" y="567" name="topleft"/>
	<outline>
		<contour>
			<point x="443" y="117" type="line"/>
			<point x="413" y="12" type="line"/>
			<point x="422" y="19" type="line"/>
			<point x="117" y="19" type="line"/>
			<point x="124" y="12" type="line"/>
			<point x="170" y="300" type="line"/>
			<point x="160" y="292" type="line"/>
			<point x="415" y="292" type="line"/>
			<point x="418" y="311" type="line"/>
			<point x="163" y="311" type="line"/>
			<point x="171" y="305" type="line"/>
			<point x="211" y="558" type="line"/>
			<point x="200" y="549" type="line"/>
			<point x="494" y="549" type="line"/>
			<point x="488" y="556" type="line"/>
			<point x="485" y="455" type="line"/>
			<point x="499" y="455" type="line"/>
			<point x="517" y="568" type="line"/>
			<point x="211" y="568" type="line"/>
			<point x="102" y="564" type="line"/>
			<point x="100" y="550" type="line"/>
			<point x="192" y="541" type="line"/>
			<point x="189" y="549" type="line"/>
			<point x="105" y="19" type="line"/>
			<point x="111" y="26" type="line"/>
			<point x="15" y="14" type="line"/>
			<point x="13" y="0" type="line"/>
			<point x="439" y="0" type="line"/>
			<point x="457" y="117" type="line"/>
		</contour>
	</outline>
</glyph>
<glyph name="en-cy.loclBGR" format="2">
	<advance width="611"/>
	<anchor x="534" y="0" name="bottomright"/>
	<outline>
		<contour>
			<point x="82" y="0" type="line"/>
			<point x="101" y="0" type="line"/>
			<point x="144" y="272" type="line"/>
			<point x="135" y="265" type="line"/>
			<point x="479" y="265" type="line"/>
			<point x="471" y="272" type="line"/>
			<point x="429" y="0" type="line"/>
			<point x="534" y="0" type="line"/>
			<point x="536" y="15" type="line"/>
			<point x="446" y="29" type="line"/>
			<point x="451" y="21" type="line"/>
			<point x="531" y="525" type="line"/>
			<point x="424" y="520" type="line"/>
			<point x="422" y="506" type="line"/>
			<point x="512" y="495" type="line"/>
			<point x="508" y="502" type="line"/>
			<point x="472" y="278" type="line"/>
			<point x="482" y="284" type="line"/>
			<point x="138" y="284" type="line"/>
			<point x="145" y="278" type="line"/>
			<point x="184" y="525" type="line"/>
			<point x="78" y="520" type="line"/>
			<point x="75" y="506" type="line"/>
			<point x="166" y="495" type="line"/>
			<point x="161" y="502" type="line"/>
		</contour>
	</outline>
</glyph>
<glyph name="exclam.sc" format="2">
	<advance width="249"/>
	<guideline x="-155" y="148" angle="90"/>
	<guideline x="76" y="143" angle="0"/>
	<outline>
		<contour>
			<point x="97" y="143" type="line"/>
			<point x="115" y="145" type="line"/>
			<point x="183" y="568" type="line"/>
			<point x="160" y="568" type="line"/>
		</contour>
		<contour>
			<point x="84" y="0" type="curve" smooth="yes"/>
			<point x="98" y="0"/>
			<point x="112" y="11"/>
			<point x="112" y="29" type="curve" smooth="yes"/>
			<point x="112" y="45"/>
			<point x="102" y="52"/>
			<point x="91" y="52" type="curve" smooth="yes"/>
			<point x="77" y="52"/>
			<point x="63" y="41"/>
			<point x="63" y="23" type="curve" smooth="yes"/>
			<point x="63" y="10"/>
			<point x="70" y="0"/>
		</contour>
	</outline>
</glyph>
<glyph name="f_j" format="2">
	<advance width="512"/>
	<guideline x="442" y="585" angle="90"/>
	<outline>
		<contour>
			<point x="-58" y="-236" type="curve" smooth="yes"/>
			<point x="65" y="-236"/>
			<point x="80" y="-133"/>
			<point x="89" y="-76" type="curve" smooth="yes"/>
			<point x="181" y="504" type="line"/>
			<point x="173" y="499" type="line"/>
			<point x="438" y="501" type="line"/>
			<point x="427" y="508" type="line"/>
			<point x="335" y="-77" type="line" smooth="yes"/>
			<point x="318" y="-182"/>
			<point x="287" y="-217"/>
			<point x="204" y="-217" type="curve" smooth="yes"/>
			<point x="196" y="-217"/>
			<point x="186" y="-217"/>
			<point x="176" y="-216" type="curve"/>
			<point x="173" y="-234" type="line"/>
			<point x="185" y="-235"/>
			<point x="195" y="-236"/>
			<point x="208" y="-236" type="curve" smooth="yes"/>
			<point x="299" y="-236"/>
			<point x="337" y="-187"/>
			<point x="355" y="-75" type="curve" smooth="yes"/>
			<point x="450" y="525" type="line"/>
			<point x="176" y="518" type="line"/>
			<point x="182" y="510" type="line"/>
			<point x="198" y="612" type="line" smooth="yes"/>
			<point x="213" y="707"/>
			<point x="268" y="749"/>
			<point x="340" y="749" type="curve" smooth="yes"/>
			<point x="363" y="749"/>
			<point x="389" y="745"/>
			<point x="416" y="736" type="curve"/>
			<point x="389" y="732" type="line"/>
			<point x="402" y="768" type="line"/>
			<point x="421" y="756" type="line"/>
			<point x="395" y="764"/>
			<point x="368" y="768"/>
			<point x="344" y="768" type="curve" smooth="yes"/>
			<point x="263" y="768"/>
			<point x="195" y="723"/>
			<point x="178" y="613" type="curve" smooth="yes"/>
			<point x="162" y="511" type="line"/>
			<point x="170" y="518" type="line"/>
			<point x="76" y="513" type="line"/>
			<point x="74" y="499" type="line"/>
			<point x="167" y="499" type="line"/>
			<point x="161" y="505" type="line"/>
			<point x="69" y="-77" type="line" smooth="yes"/>
			<point x="59" y="-140"/>
			<point x="46" y="-217"/>
			<point x="-64" y="-217" type="curve" smooth="yes"/>
			<point x="-77" y="-217"/>
			<point x="-87" y="-216"/>
			<point x="-90" y="-216" type="curve"/>
			<point x="-93" y="-234" type="line"/>
			<point x="-81" y="-235"/>
			<point x="-70" y="-236"/>
		</contour>
		<contour>
			<point x="453" y="663" type="curve" smooth="yes"/>
			<point x="469" y="663"/>
			<point x="483" y="675"/>
			<point x="483" y="697" type="curve" smooth="yes"/>
			<point x="483" y="713"/>
			<point x="475" y="722"/>
			<point x="461" y="722" type="curve" smooth="yes"/>
			<point x="445" y="722"/>
			<point x="431" y="708"/>
			<point x="431" y="687" type="curve" smooth="yes"/>
			<point x="431" y="670"/>
			<point x="441" y="663"/>
		</contour>
	</outline>
</glyph>
<glyph name="five.dnom" format="2">
	<advance width="332"/>
	<outline>
		<contour>
			<point x="114" y="-4" type="curve" smooth="yes"/>
			<point x="206" y="-4"/>
			<point x="269" y="64"/>
			<point x="269" y="144" type="curve" smooth="yes"/>
			<point x="269" y="243"/>
			<point x="172" y="243"/>
			<point x="122" y="243" type="curve" smooth="yes"/>
			<point x="82" y="243" type="line"/>
			<point x="87" y="237" type="line"/>
			<point x="119" y="403" type="line"/>
			<point x="113" y="398" type="line"/>
			<point x="294" y="398" type="line"/>
			<point x="297" y="416" type="line"/>
			<point x="103" y="416" type="line"/>
			<point x="65" y="226" type="line"/>
			<point x="108" y="226" type="line" smooth="yes"/>
			<point x="162" y="226"/>
			<point x="250" y="226"/>
			<point x="250" y="140" type="curve" smooth="yes"/>
			<point x="250" y="74"/>
			<point x="198" y="14"/>
			<point x="116" y="14" type="curve" smooth="yes"/>
			<point x="86" y="14"/>
			<point x="52" y="22"/>
			<point x="21" y="37" type="curve"/>
			<point x="13" y="22" type="line"/>
			<point x="46" y="5"/>
			<point x="80" y="-4"/>
		</contour>
	</outline>
</glyph>
<glyph name="g.sc" format="2">
	<advance width="658"/>
	<guideline x="533" y="231" angle="261"/>
	<guideline x="513" y="234" angle="261"/>
	<anchor x="292" y="0" name="bottom"/>
	<anchor x="391" y="568" name="top"/>
	<outline>
		<contour>
			<point x="291" y="-6" type="curve" smooth="yes"/>
			<point x="351" y="-6"/>
			<point x="422" y="7"/>
			<point x="502" y="34" type="curve"/>
			<point x="534" y="241" type="line"/>
			<point x="525" y="234" type="line"/>
			<point x="607" y="245" type="line"/>
			<point x="610" y="260" type="line"/>
			<point x="423" y="255" type="line"/>
			<point x="420" y="241" type="line"/>
			<point x="518" y="234" type="line"/>
			<point x="514" y="241" type="line"/>
			<point x="482" y="39" type="line"/>
			<point x="487" y="48" type="line"/>
			<point x="414" y="25"/>
			<point x="348" y="13"/>
			<point x="294" y="13" type="curve" smooth="yes"/>
			<point x="164" y="13"/>
			<point x="87" y="93"/>
			<point x="87" y="222" type="curve" smooth="yes"/>
			<point x="87" y="405"/>
			<point x="202" y="555"/>
			<point x="386" y="555" type="curve" smooth="yes"/>
			<point x="439" y="555"/>
			<point x="503" y="540"/>
			<point x="555" y="521" type="curve"/>
			<point x="550" y="528" type="line"/>
			<point x="543" y="418" type="line"/>
			<point x="559" y="418" type="line"/>
			<point x="579" y="533" type="line"/>
			<point x="517" y="561"/>
			<point x="451" y="574"/>
			<point x="394" y="574" type="curve" smooth="yes"/>
			<point x="193" y="574"/>
			<point x="66" y="423"/>
			<point x="66" y="220" type="curve" smooth="yes"/>
			<point x="66" y="80"/>
			<point x="149" y="-6"/>
		</contour>
	</outline>
</glyph>
<glyph name="germandbls.sc" format="2">
	<advance width="625"/>
	<guideline x="157" y="231" angle="261"/>
	<guideline x="137" y="234" angle="261"/>
	<guideline x="48" y="234" angle="261"/>
	<outline>
		<contour>
			<point x="337" y="-5" type="curve" smooth="yes"/>
			<point x="471" y="-5"/>
			<point x="559" y="62"/>
			<point x="559" y="177" type="curve" smooth="yes"/>
			<point x="559" y="279"/>
			<point x="491" y="315"/>
			<point x="347" y="325" type="curve"/>
			<point x="348" y="317" type="line"/>
			<point x="553" y="548" type="line"/>
			<point x="555" y="568" type="line"/>
			<point x="212" y="568" type="line"/>
			<point x="105" y="564" type="line"/>
			<point x="103" y="550" type="line"/>
			<point x="194" y="541" type="line"/>
			<point x="188" y="548" type="line"/>
			<point x="104" y="19" type="line"/>
			<point x="113" y="26" type="line"/>
			<point x="18" y="14" type="line"/>
			<point x="15" y="0" type="line"/>
			<point x="121" y="0" type="line"/>
			<point x="209" y="556" type="line"/>
			<point x="202" y="549" type="line"/>
			<point x="541" y="550" type="line"/>
			<point x="540" y="560" type="line"/>
			<point x="331" y="326" type="line"/>
			<point x="328" y="309" type="line"/>
			<point x="469" y="302"/>
			<point x="538" y="271"/>
			<point x="538" y="176" type="curve" smooth="yes"/>
			<point x="538" y="75"/>
			<point x="461" y="14"/>
			<point x="339" y="14" type="curve" smooth="yes"/>
			<point x="308" y="14"/>
			<point x="272" y="18"/>
			<point x="236" y="25" type="curve"/>
			<point x="238" y="18" type="line"/>
			<point x="244" y="108" type="line"/>
			<point x="230" y="108" type="line"/>
			<point x="209" y="12" type="line"/>
			<point x="253" y="1"/>
			<point x="297" y="-5"/>
		</contour>
	</outline>
</glyph>
<glyph name="hbar.sc" format="2">
	<advance width="711"/>
	<guideline x="625" y="60" angle="261"/>
	<guideline x="160" y="231" angle="261"/>
	<guideline x="140" y="234" angle="261"/>
	<guideline x="51" y="234" angle="261"/>
	<outline>
		<contour>
			<point x="81" y="415" type="line"/>
			<point x="681" y="415" type="line"/>
			<point x="683" y="434" type="line"/>
			<point x="83" y="434" type="line"/>
		</contour>
		<contour>
			<point x="15" y="0" type="line"/>
			<point x="224" y="0" type="line"/>
			<point x="226" y="14" type="line"/>
			<point x="122" y="26" type="line"/>
			<point x="127" y="19" type="line"/>
			<point x="169" y="286" type="line"/>
			<point x="161" y="279" type="line"/>
			<point x="555" y="279" type="line"/>
			<point x="551" y="286" type="line"/>
			<point x="509" y="19" type="line"/>
			<point x="515" y="26" type="line"/>
			<point x="409" y="14" type="line"/>
			<point x="406" y="0" type="line"/>
			<point x="615" y="0" type="line"/>
			<point x="617" y="14" type="line"/>
			<point x="523" y="26" type="line"/>
			<point x="529" y="17" type="line"/>
			<point x="613" y="548" type="line"/>
			<point x="604" y="542" type="line"/>
			<point x="703" y="554" type="line"/>
			<point x="705" y="568" type="line"/>
			<point x="496" y="564" type="line"/>
			<point x="494" y="550" type="line"/>
			<point x="597" y="543" type="line"/>
			<point x="593" y="549" type="line"/>
			<point x="552" y="291" type="line"/>
			<point x="558" y="298" type="line"/>
			<point x="165" y="298" type="line"/>
			<point x="170" y="291" type="line"/>
			<point x="211" y="549" type="line"/>
			<point x="203" y="542" type="line"/>
			<point x="312" y="554" type="line"/>
			<point x="314" y="568" type="line"/>
			<point x="104" y="564" type="line"/>
			<point x="102" y="550" type="line"/>
			<point x="196" y="542" type="line"/>
			<point x="190" y="549" type="line"/>
			<point x="106" y="19" type="line"/>
			<point x="115" y="26" type="line"/>
			<point x="17" y="14" type="line"/>
		</contour>
	</outline>
</glyph>
<glyph name="idotless-cy" format="2">
	<advance width="263"/>
	<guideline x="461" y="621" angle="261"/>
	<guideline x="213" y="344" angle="0"/>
	<guideline x="137" y="231" angle="261"/>
	<guideline x="117" y="234" angle="261"/>
	<guideline x="31" y="234" angle="261"/>
	<guideline x="223" y="231" angle="261"/>
	<anchor x="90" y="0" name="bottom"/>
	<anchor x="150" y="0" name="ogonek"/>
	<anchor x="173" y="522" name="top"/>
	<outline>
		<contour>
			<point x="80" y="-2" type="line"/>
			<point x="187" y="2" type="line"/>
			<point x="189" y="17" type="line"/>
			<point x="96" y="29" type="line"/>
			<point x="103" y="19" type="line"/>
			<point x="183" y="522" type="line"/>
			<point x="163" y="522" type="line"/>
		</contour>
	</outline>
</glyph>
<glyph name="lslash.sc" format="2">
	<advance width="484"/>
	<guideline x="36" y="60" angle="261"/>
	<outline>
		<contour>
			<point x="27" y="0" type="line"/>
			<point x="422" y="0" type="line"/>
			<point x="441" y="121" type="line"/>
			<point x="426" y="121" type="line"/>
			<point x="395" y="12" type="line"/>
			<point x="404" y="18" type="line"/>
			<point x="131" y="18" type="line"/>
			<point x="137" y="8" type="line"/>
			<point x="223" y="549" type="line"/>
			<point x="213" y="541" type="line"/>
			<point x="321" y="554" type="line"/>
			<point x="323" y="568" type="line"/>
			<point x="116" y="564" type="line"/>
			<point x="114" y="550" type="line"/>
			<point x="206" y="541" type="line"/>
			<point x="203" y="548" type="line"/>
			<point x="118" y="14" type="line"/>
			<point x="125" y="26" type="line"/>
			<point x="29" y="14" type="line"/>
		</contour>
		<contour>
			<point x="65" y="190" type="line"/>
			<point x="369" y="365" type="line"/>
			<point x="363" y="380" type="line"/>
			<point x="57" y="205" type="line"/>
		</contour>
	</outline>
</glyph>
<glyph name="n.sc" format="2">
	<advance width="713"/>
	<guideline x="158" y="231" angle="261"/>
	<guideline x="139" y="234" angle="261"/>
	<guideline x="50" y="234" angle="261"/>
	<guideline x="576" y="230" angle="261"/>
	<guideline x="557" y="233" angle="261"/>
	<guideline x="435" y="726" angle="261"/>
	<anchor x="320" y="0" name="bottom"/>
	<anchor x="411" y="568" name="top"/>
	<outline>
		<contour>
			<point x="510" y="564" type="line"/>
			<point x="508" y="550" type="line"/>
			<point x="611" y="543" type="line"/>
			<point x="607" y="550" type="line"/>
			<point x="524" y="23" type="line"/>
			<point x="531" y="23" type="line"/>
			<point x="215" y="568" type="line"/>
			<point x="102" y="564" type="line"/>
			<point x="100" y="550" type="line"/>
			<point x="193" y="542" type="line"/>
			<point x="189" y="549" type="line"/>
			<point x="105" y="19" type="line"/>
			<point x="112" y="26" type="line"/>
			<point x="15" y="14" type="line"/>
			<point x="13" y="0" type="line"/>
			<point x="220" y="0" type="line"/>
			<point x="222" y="14" type="line"/>
			<point x="119" y="26" type="line"/>
			<point x="124" y="18" type="line"/>
			<point x="209" y="551" type="line"/>
			<point x="200" y="551" type="line"/>
			<point x="519" y="0" type="line"/>
			<point x="540" y="0" type="line"/>
			<point x="627" y="549" type="line"/>
			<point x="619" y="542" type="line"/>
			<point x="716" y="554" type="line"/>
			<point x="718" y="568" type="line"/>
		</contour>
	</outline>
</glyph>
<glyph name="naira.bolder" format="2">
	<advance width="969"/>
	<guideline x="183" y="454" angle="81"/>
	<guideline x="857" y="454" angle="81"/>
	<outline>
		<contour>
			<point x="688" y="0" type="line"/>
			<point x="708" y="0" type="line"/>
			<point x="756" y="300" type="line"/>
			<point x="749" y="295" type="line"/>
			<point x="832" y="295" type="line"/>
			<point x="835" y="314" type="line"/>
			<point x="738" y="314" type="line"/>
			<point x="693" y="30" type="line"/>
			<point x="697" y="31" type="line"/>
			<point x="340" y="692" type="line"/>
			<point x="214" y="687" type="line"/>
			<point x="212" y="672" type="line"/>
			<point x="317" y="663" type="line"/>
			<point x="311" y="671" type="line"/>
			<point x="270" y="409" type="line"/>
			<point x="277" y="414" type="line"/>
			<point x="177" y="414" type="line"/>
			<point x="174" y="395" type="line"/>
			<point x="288" y="395" type="line"/>
			<point x="331" y="670" type="line"/>
			<point x="327" y="669" type="line"/>
		</contour>
		<contour>
			<point x="105" y="0" type="line"/>
			<point x="325" y="0" type="line"/>
			<point x="328" y="15" type="line"/>
			<point x="223" y="29" type="line"/>
			<point x="229" y="21" type="line"/>
			<point x="275" y="314" type="line"/>
			<point x="161" y="314" type="line"/>
			<point x="158" y="295" type="line"/>
			<point x="258" y="295" type="line"/>
			<point x="253" y="301" type="line"/>
			<point x="209" y="21" type="line"/>
			<point x="217" y="29" type="line"/>
			<point x="108" y="15" type="line"/>
		</contour>
		<contour>
			<point x="751" y="395" type="line"/>
			<point x="848" y="395" type="line"/>
			<point x="851" y="414" type="line"/>
			<point x="768" y="414" type="line"/>
			<point x="773" y="408" type="line"/>
			<point x="814" y="671" type="line"/>
			<point x="806" y="663" type="line"/>
			<point x="915" y="677" type="line"/>
			<point x="918" y="692" type="line"/>
			<point x="697" y="687" type="line"/>
			<point x="695" y="672" type="line"/>
			<point x="801" y="665" type="line"/>
			<point x="795" y="672" type="line"/>
		</contour>
	</outline>
</glyph>
<glyph name="ogonekcomb.case.alt" format="2">
	<advance width="294"/>
	<guideline x="-48" y="172" angle="90"/>
	<anchor x="206" y="0" name="_ogonek"/>
	<outline>
		<contour>
			<point x="137" y="-216" type="curve" smooth="yes"/>
			<point x="151" y="-216"/>
			<point x="167" y="-214"/>
			<point x="184" y="-211" type="curve"/>
			<point x="183" y="-193" type="line"/>
			<point x="169" y="-196"/>
			<point x="156" y="-197"/>
			<point x="145" y="-197" type="curve" smooth="yes"/>
			<point x="91" y="-197"/>
			<point x="64" y="-172"/>
			<point x="64" y="-138" type="curve" smooth="yes"/>
			<point x="64" y="-93"/>
			<point x="112" y="-36"/>
			<point x="206" y="0" type="curve"/>
			<point x="199" y="14" type="line"/>
			<point x="97" y="-22"/>
			<point x="43" y="-88"/>
			<point x="43" y="-143" type="curve" smooth="yes"/>
			<point x="43" y="-184"/>
			<point x="74" y="-216"/>
		</contour>
	</outline>
</glyph>
<glyph name="one.osf" format="2">
	<advance width="384"/>
	<outline>
		<contour>
			<point x="197" y="23" type="line"/>
			<point x="276" y="525" type="line"/>
			<point x="262" y="525" type="line"/>
			<point x="59" y="406" type="line"/>
			<point x="65" y="391" type="line"/>
			<point x="259" y="499" type="line"/>
			<point x="254" y="503" type="line"/>
			<point x="178" y="23" type="line"/>
			<point x="186" y="31" type="line"/>
			<point x="28" y="17" type="line"/>
			<point x="26" y="0" type="line"/>
			<point x="319" y="0" type="line"/>
			<point x="321" y="17" type="line"/>
			<point x="192" y="31" type="line"/>
		</contour>
	</outline>
</glyph>
<glyph name="one.tf" format="2">
	<advance width="600"/>
	<outline>
		<contour>
			<point x="282" y="23" type="line"/>
			<point x="388" y="695" type="line"/>
			<point x="374" y="695" type="line"/>
			<point x="165" y="576" type="line"/>
			<point x="171" y="561" type="line"/>
			<point x="371" y="669" type="line"/>
			<point x="366" y="673" type="line"/>
			<point x="263" y="23" type="line"/>
			<point x="271" y="31" type="line"/>
			<point x="107" y="17" type="line"/>
			<point x="105" y="0" type="line"/>
			<point x="409" y="0" type="line"/>
			<point x="411" y="17" type="line"/>
			<point x="277" y="31" type="line"/>
		</contour>
	</outline>
</glyph>
<glyph name="p.sc" format="2">
	<advance width="495"/>
	<guideline x="159" y="231" angle="261"/>
	<guideline x="139" y="234" angle="261"/>
	<guideline x="50" y="234" angle="261"/>
	<anchor x="115" y="0" name="bottom"/>
	<anchor x="296.624" y="568" name="top"/>
	<outline>
		<contour>
			<point x="236" y="233" type="line" smooth="yes"/>
			<point x="379" y="233"/>
			<point x="484" y="311"/>
			<point x="484" y="433" type="curve" smooth="yes"/>
			<point x="484" y="522"/>
			<point x="429" y="568"/>
			<point x="320" y="568" type="curve" smooth="yes"/>
			<point x="213" y="568" type="line"/>
			<point x="102" y="564" type="line"/>
			<point x="100" y="550" type="line"/>
			<point x="194" y="542" type="line"/>
			<point x="189" y="549" type="line"/>
			<point x="105" y="19" type="line"/>
			<point x="113" y="26" type="line"/>
			<point x="15" y="14" type="line"/>
			<point x="13" y="0" type="line"/>
			<point x="231" y="0" type="line"/>
			<point x="233" y="14" type="line"/>
			<point x="120" y="26" type="line"/>
			<point x="125" y="19" type="line"/>
			<point x="160" y="239" type="line"/>
			<point x="152" y="233" type="line"/>
		</contour>
		<contour>
			<point x="316" y="549" type="line" smooth="yes"/>
			<point x="415" y="549"/>
			<point x="463" y="509"/>
			<point x="463" y="432" type="curve" smooth="yes"/>
			<point x="463" y="325"/>
			<point x="369" y="252"/>
			<point x="238" y="252" type="curve" smooth="yes"/>
			<point x="156" y="252" type="line"/>
			<point x="161" y="245" type="line"/>
			<point x="210" y="556" type="line"/>
			<point x="202" y="549" type="line"/>
		</contour>
	</outline>
</glyph>
<glyph name="parenleft.case" format="2">
	<advance width="276"/>
	<guideline x="-352" y="-103" angle="0"/>
	<guideline x="299" y="788" angle="0"/>
	<outline>
		<contour>
			<point x="289" y="777" type="curve"/>
			<point x="277" y="788" type="line"/>
			<point x="133" y="629"/>
			<point x="39" y="442"/>
			<point x="39" y="243" type="curve" smooth="yes"/>
			<point x="39" y="126"/>
			<point x="72" y="8"/>
			<point x="138" y="-103" type="curve"/>
			<point x="152" y="-94" type="line"/>
			<point x="89" y="18"/>
			<point x="59" y="133"/>
			<point x="59" y="246" type="curve" smooth="yes"/>
			<point x="59" y="438"/>
			<point x="149" y="616"/>
		</contour>
	</outline>
</glyph>
<glyph name="peso.bolder" format="2">
	<advance width="739"/>
	<outline>
		<contour>
			<point x="578" y="439" type="line"/>
			<point x="541" y="353"/>
			<point x="450" y="304"/>
			<point x="342" y="304" type="curve" smooth="yes"/>
			<point x="240" y="304" type="line"/>
			<point x="246" y="297" type="line"/>
			<point x="268" y="439" type="line"/>
			<point x="160" y="439" type="line"/>
			<point x="157" y="420" type="line"/>
			<point x="254" y="420" type="line"/>
			<point x="246" y="426" type="line"/>
			<point x="182" y="19" type="line"/>
			<point x="192" y="29" type="line"/>
			<point x="85" y="15" type="line"/>
			<point x="83" y="0" type="line"/>
			<point x="319" y="0" type="line"/>
			<point x="321" y="15" type="line"/>
			<point x="194" y="29" type="line"/>
			<point x="202" y="21" type="line"/>
			<point x="245" y="292" type="line"/>
			<point x="237" y="285" type="line"/>
			<point x="339" y="285" type="line" smooth="yes"/>
			<point x="461" y="285"/>
			<point x="550" y="337"/>
			<point x="593" y="423" type="curve"/>
			<point x="581" y="420" type="line"/>
			<point x="688" y="420" type="line"/>
			<point x="691" y="439" type="line"/>
		</contour>
		<contour>
			<point x="598" y="520" type="curve"/>
			<point x="704" y="520" type="line"/>
			<point x="707" y="539" type="line"/>
			<point x="609" y="539" type="line"/>
			<point x="618" y="532" type="line"/>
			<point x="618" y="634"/>
			<point x="563" y="692"/>
			<point x="438" y="692" type="curve" smooth="yes"/>
			<point x="309" y="692" type="line"/>
			<point x="191" y="687" type="line"/>
			<point x="189" y="672" type="line"/>
			<point x="291" y="663" type="line"/>
			<point x="285" y="671" type="line"/>
			<point x="263" y="533" type="line"/>
			<point x="273" y="539" type="line"/>
			<point x="176" y="539" type="line"/>
			<point x="173" y="520" type="line"/>
			<point x="281" y="520" type="line"/>
			<point x="306" y="680" type="line"/>
			<point x="298" y="673" type="line"/>
			<point x="434" y="673" type="line" smooth="yes"/>
			<point x="545" y="673"/>
			<point x="597" y="627"/>
			<point x="598" y="524" type="curve" smooth="yes"/>
			<point x="598" y="523"/>
			<point x="598" y="521"/>
		</contour>
	</outline>
</glyph>
<glyph name="question.sc" format="2">
	<advance width="338"/>
	<guideline x="76" y="143" angle="0"/>
	<outline>
		<contour>
			<point x="96" y="145" type="line"/>
			<point x="98" y="164"/>
			<point x="100" y="178"/>
			<point x="101" y="184" type="curve" smooth="yes"/>
			<point x="123" y="315"/>
			<point x="330" y="323"/>
			<point x="330" y="472" type="curve" smooth="yes"/>
			<point x="330" y="547"/>
			<point x="278" y="574"/>
			<point x="208" y="574" type="curve" smooth="yes"/>
			<point x="171" y="574"/>
			<point x="128" y="566"/>
			<point x="86" y="551" type="curve"/>
			<point x="91" y="534" type="line"/>
			<point x="131" y="547"/>
			<point x="172" y="555"/>
			<point x="207" y="555" type="curve" smooth="yes"/>
			<point x="266" y="555"/>
			<point x="309" y="533"/>
			<point x="309" y="471" type="curve" smooth="yes"/>
			<point x="309" y="334"/>
			<point x="100" y="329"/>
			<point x="81" y="181" type="curve" smooth="yes"/>
			<point x="80" y="173"/>
			<point x="77" y="146"/>
			<point x="77" y="143" type="curve"/>
		</contour>
		<contour>
			<point x="78" y="0" type="curve" smooth="yes"/>
			<point x="92" y="0"/>
			<point x="106" y="11"/>
			<point x="106" y="29" type="curve" smooth="yes"/>
			<point x="106" y="45"/>
			<point x="96" y="52"/>
			<point x="85" y="52" type="curve" smooth="yes"/>
			<point x="71" y="52"/>
			<point x="57" y="41"/>
			<point x="57" y="23" type="curve" smooth="yes"/>
			<point x="57" y="10"/>
			<point x="64" y="0"/>
		</contour>
	</outline>
</glyph>
<glyph name="s.sc" format="2">
	<advance width="526"/>
	<guideline x="340" y="726" angle="261"/>
	<anchor x="222" y="0" name="bottom"/>
	<anchor x="313" y="568" name="top"/>
	<outline>
		<contour>
			<point x="197" y="-6" type="curve" smooth="yes"/>
			<point x="320" y="-6"/>
			<point x="432" y="61"/>
			<point x="432" y="166" type="curve" smooth="yes"/>
			<point x="432" y="336"/>
			<point x="135" y="263"/>
			<point x="135" y="418" type="curve" smooth="yes"/>
			<point x="135" y="503"/>
			<point x="225" y="556"/>
			<point x="326" y="556" type="curve" smooth="yes"/>
			<point x="369" y="556"/>
			<point x="414" y="546"/>
			<point x="455" y="527" type="curve"/>
			<point x="451" y="534" type="line"/>
			<point x="440" y="426" type="line"/>
			<point x="456" y="426" type="line"/>
			<point x="478" y="538" type="line"/>
			<point x="432" y="561"/>
			<point x="379" y="574"/>
			<point x="327" y="574" type="curve" smooth="yes"/>
			<point x="215" y="574"/>
			<point x="114" y="515"/>
			<point x="114" y="416" type="curve" smooth="yes"/>
			<point x="114" y="244"/>
			<point x="411" y="313"/>
			<point x="411" y="161" type="curve" smooth="yes"/>
			<point x="411" y="71"/>
			<point x="306" y="13"/>
			<point x="196" y="13" type="curve" smooth="yes"/>
			<point x="153" y="13"/>
			<point x="108" y="22"/>
			<point x="70" y="41" type="curve"/>
			<point x="73" y="33" type="line"/>
			<point x="81" y="149" type="line"/>
			<point x="66" y="149" type="line"/>
			<point x="43" y="30" type="line"/>
			<point x="91" y="6"/>
			<point x="145" y="-6"/>
		</contour>
	</outline>
</glyph>
<glyph name="schwa.sc" format="2">
	<advance width="606"/>
	<anchor x="258" y="0" name="bottom"/>
	<anchor x="348" y="568" name="top"/>
	<outline>
		<contour>
			<point x="249" y="-6" type="curve" smooth="yes"/>
			<point x="431" y="-6"/>
			<point x="545" y="174"/>
			<point x="545" y="353" type="curve" smooth="yes"/>
			<point x="545" y="503"/>
			<point x="465" y="574"/>
			<point x="350" y="574" type="curve" smooth="yes"/>
			<point x="279" y="574"/>
			<point x="197" y="547"/>
			<point x="109" y="493" type="curve"/>
			<point x="119" y="477" type="line"/>
			<point x="199" y="527"/>
			<point x="277" y="554"/>
			<point x="344" y="554" type="curve" smooth="yes"/>
			<point x="449" y="554"/>
			<point x="524" y="489"/>
			<point x="524" y="349" type="curve" smooth="yes"/>
			<point x="524" y="184"/>
			<point x="420" y="13"/>
			<point x="251" y="13" type="curve" smooth="yes"/>
			<point x="138" y="13"/>
			<point x="88" y="89"/>
			<point x="88" y="183" type="curve" smooth="yes"/>
			<point x="88" y="206"/>
			<point x="91" y="230"/>
			<point x="95" y="252" type="curve"/>
			<point x="85" y="246" type="line"/>
			<point x="523" y="247" type="line"/>
			<point x="526" y="266" type="line"/>
			<point x="76" y="267" type="line"/>
			<point x="71" y="239"/>
			<point x="67" y="218"/>
			<point x="67" y="188" type="curve" smooth="yes"/>
			<point x="67" y="65"/>
			<point x="134" y="-6"/>
		</contour>
	</outline>
</glyph>
<glyph name="seven.tf" format="2">
	<advance width="600"/>
	<outline>
		<contour>
			<point x="560" y="674" type="line"/>
			<point x="563" y="692" type="line"/>
			<point x="144" y="692" type="line"/>
			<point x="123" y="559" type="line"/>
			<point x="138" y="559" type="line"/>
			<point x="174" y="679" type="line"/>
			<point x="165" y="672" type="line"/>
			<point x="546" y="672" type="line"/>
			<point x="541" y="678" type="line"/>
			<point x="139" y="0" type="line"/>
			<point x="162" y="0" type="line"/>
		</contour>
	</outline>
</glyph>
<glyph name="t.sc" format="2">
	<advance width="471"/>
	<guideline x="242" y="231" angle="261"/>
	<guideline x="222" y="234" angle="261"/>
	<guideline x="133" y="234" angle="261"/>
	<anchor x="194" y="0" name="bottom"/>
	<anchor x="240" y="284" name="center"/>
	<anchor x="285" y="568" name="top"/>
	<outline>
		<contour>
			<point x="84" y="0" type="line"/>
			<point x="307" y="0" type="line"/>
			<point x="310" y="14" type="line"/>
			<point x="203" y="26" type="line"/>
			<point x="208" y="17" type="line"/>
			<point x="293" y="556" type="line"/>
			<point x="286" y="549" type="line"/>
			<point x="468" y="549" type="line"/>
			<point x="463" y="556" type="line"/>
			<point x="459" y="444" type="line"/>
			<point x="473" y="444" type="line"/>
			<point x="492" y="568" type="line"/>
			<point x="76" y="568" type="line"/>
			<point x="56" y="444" type="line"/>
			<point x="71" y="444" type="line"/>
			<point x="102" y="556" type="line"/>
			<point x="93" y="549" type="line"/>
			<point x="279" y="549" type="line"/>
			<point x="273" y="556" type="line"/>
			<point x="188" y="18" type="line"/>
			<point x="197" y="26" type="line"/>
			<point x="86" y="14" type="line"/>
		</contour>
	</outline>
</glyph>
<glyph name="tbar.sc" format="2">
	<advance width="471"/>
	<outline>
		<contour>
			<point x="84" y="0" type="line"/>
			<point x="307" y="0" type="line"/>
			<point x="310" y="14" type="line"/>
			<point x="203" y="26" type="line"/>
			<point x="208" y="17" type="line"/>
			<point x="293" y="556" type="line"/>
			<point x="286" y="549" type="line"/>
			<point x="468" y="549" type="line"/>
			<point x="463" y="556" type="line"/>
			<point x="459" y="444" type="line"/>
			<point x="473" y="444" type="line"/>
			<point x="492" y="568" type="line"/>
			<point x="76" y="568" type="line"/>
			<point x="56" y="444" type="line"/>
			<point x="71" y="444" type="line"/>
			<point x="102" y="556" type="line"/>
			<point x="93" y="549" type="line"/>
			<point x="279" y="549" type="line"/>
			<point x="273" y="556" type="line"/>
			<point x="188" y="18" type="line"/>
			<point x="197" y="26" type="line"/>
			<point x="86" y="14" type="line"/>
		</contour>
		<contour>
			<point x="111" y="280" type="line"/>
			<point x="367" y="280" type="line"/>
			<point x="370" y="299" type="line"/>
			<point x="114" y="299" type="line"/>
		</contour>
	</outline>
</glyph>
<glyph name="tilde.i" format="2">
	<advance width="263"/>
	<anchor x="199" y="692" name="top"/>
	<outline>
		<contour>
			<point x="252" y="657" type="curve" smooth="yes"/>
			<point x="282" y="657"/>
			<point x="300" y="675"/>
			<point x="327" y="720" type="curve"/>
			<point x="313" y="729" type="line"/>
			<point x="289" y="693"/>
			<point x="277" y="678"/>
			<point x="254" y="678" type="curve" smooth="yes"/>
			<point x="211" y="678"/>
			<point x="195" y="730"/>
			<point x="144" y="730" type="curve" smooth="yes"/>
			<point x="115" y="730"/>
			<point x="98" y="713"/>
			<point x="71" y="668" type="curve"/>
			<point x="85" y="659" type="line"/>
			<point x="108" y="694"/>
			<point x="120" y="709"/>
			<point x="143" y="709" type="curve" smooth="yes"/>
			<point x="187" y="709"/>
			<point x="201" y="657"/>
		</contour>
	</outline>
</glyph>
<glyph name="two.dnom" format="2">
	<advance width="325"/>
	<outline>
		<contour>
			<point x="-5" y="0" type="line"/>
			<point x="241" y="0" type="line"/>
			<point x="244" y="19" type="line"/>
			<point x="19" y="19" type="line"/>
			<point x="20" y="15" type="line"/>
			<point x="195" y="173"/>
			<point x="283" y="253"/>
			<point x="283" y="340" type="curve" smooth="yes"/>
			<point x="283" y="397"/>
			<point x="238" y="421"/>
			<point x="177" y="421" type="curve" smooth="yes"/>
			<point x="142" y="421"/>
			<point x="102" y="412"/>
			<point x="61" y="397" type="curve"/>
			<point x="52" y="315" type="line"/>
			<point x="64" y="315" type="line"/>
			<point x="81" y="391" type="line"/>
			<point x="78" y="385" type="line"/>
			<point x="112" y="397"/>
			<point x="146" y="403"/>
			<point x="176" y="403" type="curve" smooth="yes"/>
			<point x="226" y="403"/>
			<point x="263" y="385"/>
			<point x="263" y="337" type="curve" smooth="yes"/>
			<point x="263" y="258"/>
			<point x="171" y="172"/>
			<point x="-3" y="19" type="curve"/>
		</contour>
	</outline>
</glyph>
<glyph name="u.sc" format="2">
	<advance width="660"/>
	<guideline x="137" y="228" angle="261"/>
	<guideline x="117" y="231" angle="261"/>
	<guideline x="28" y="234" angle="261"/>
	<guideline x="533" y="228" angle="261"/>
	<guideline x="513" y="231" angle="261"/>
	<anchor x="288" y="0" name="bottom"/>
	<anchor x="357" y="0" name="ogonek"/>
	<anchor x="378" y="568" name="top"/>
	<anchor x="602" y="567" name="topright"/>
	<outline>
		<contour>
			<point x="463" y="564" type="line"/>
			<point x="461" y="550" type="line"/>
			<point x="569" y="543" type="line"/>
			<point x="563" y="549" type="line"/>
			<point x="509" y="207" type="line" smooth="yes"/>
			<point x="489" y="79"/>
			<point x="433" y="13"/>
			<point x="285" y="13" type="curve" smooth="yes"/>
			<point x="173" y="13"/>
			<point x="127" y="51"/>
			<point x="127" y="139" type="curve" smooth="yes"/>
			<point x="127" y="156"/>
			<point x="129" y="176"/>
			<point x="132" y="197" type="curve" smooth="yes"/>
			<point x="188" y="550" type="line"/>
			<point x="179" y="542" type="line"/>
			<point x="290" y="554" type="line"/>
			<point x="292" y="568" type="line"/>
			<point x="80" y="564" type="line"/>
			<point x="78" y="550" type="line"/>
			<point x="172" y="542" type="line"/>
			<point x="168" y="550" type="line"/>
			<point x="112" y="199" type="line" smooth="yes"/>
			<point x="108" y="177"/>
			<point x="107" y="157"/>
			<point x="107" y="138" type="curve" smooth="yes"/>
			<point x="107" y="42"/>
			<point x="158" y="-6"/>
			<point x="286" y="-6" type="curve" smooth="yes"/>
			<point x="447" y="-6"/>
			<point x="507" y="69"/>
			<point x="529" y="205" type="curve" smooth="yes"/>
			<point x="584" y="550" type="line"/>
			<point x="575" y="542" type="line"/>
			<point x="673" y="554" type="line"/>
			<point x="675" y="568" type="line"/>
		</contour>
	</outline>
</glyph>
<glyph name="ve-cy.loclBGR" format="2">
	<advance width="547"/>
	<outline>
		<contour>
			<point x="245" y="-6" type="curve" smooth="yes"/>
			<point x="350" y="-6"/>
			<point x="444" y="60"/>
			<point x="468" y="208" type="curve" smooth="yes"/>
			<point x="490" y="352"/>
			<point x="418" y="403"/>
			<point x="303" y="405" type="curve"/>
			<point x="303" y="395" type="line"/>
			<point x="389" y="400"/>
			<point x="475" y="462"/>
			<point x="496" y="591" type="curve" smooth="yes"/>
			<point x="515" y="711"/>
			<point x="457" y="770"/>
			<point x="366" y="770" type="curve" smooth="yes"/>
			<point x="263" y="770"/>
			<point x="165" y="695"/>
			<point x="139" y="530" type="curve" smooth="yes"/>
			<point x="91" y="228" type="line" smooth="yes"/>
			<point x="65" y="60"/>
			<point x="140" y="-6"/>
		</contour>
		<contour>
			<point x="248" y="13" type="curve" smooth="yes"/>
			<point x="153" y="13"/>
			<point x="87" y="75"/>
			<point x="111" y="230" type="curve" smooth="yes"/>
			<point x="137" y="398" type="line"/>
			<point x="129" y="390" type="line"/>
			<point x="273" y="390" type="line" smooth="yes"/>
			<point x="405" y="390"/>
			<point x="469" y="342"/>
			<point x="447" y="208" type="curve" smooth="yes"/>
			<point x="426" y="74"/>
			<point x="343" y="13"/>
		</contour>
		<contour>
			<point x="139" y="403" type="line"/>
			<point x="159" y="531" type="line" smooth="yes"/>
			<point x="182" y="679"/>
			<point x="270" y="751"/>
			<point x="364" y="751" type="curve" smooth="yes"/>
			<point x="445" y="751"/>
			<point x="492" y="698"/>
			<point x="475" y="587" type="curve" smooth="yes"/>
			<point x="452" y="445"/>
			<point x="352" y="409"/>
			<point x="275" y="409" type="curve" smooth="yes"/>
			<point x="133" y="409" type="line"/>
		</contour>
	</outline>
</glyph>
<glyph name="w.sc" format="2">
	<advance width="874"/>
	<anchor x="396" y="0" name="bottom"/>
	<anchor x="485" y="568" name="top"/>
	<outline>
		<contour>
			<point x="725" y="564" type="line"/>
			<point x="723" y="550" type="line"/>
			<point x="827" y="543" type="line"/>
			<point x="825" y="548" type="line"/>
			<point x="581" y="20" type="line"/>
			<point x="584" y="19" type="line"/>
			<point x="495" y="568" type="line"/>
			<point x="479" y="565" type="line"/>
			<point x="208" y="20" type="line"/>
			<point x="211" y="20" type="line"/>
			<point x="144" y="549" type="line"/>
			<point x="140" y="542" type="line"/>
			<point x="248" y="554" type="line"/>
			<point x="250" y="568" type="line"/>
			<point x="46" y="564" type="line"/>
			<point x="44" y="550" type="line"/>
			<point x="133" y="542" type="line"/>
			<point x="125" y="549" type="line"/>
			<point x="194" y="-2" type="line"/>
			<point x="216" y="-2" type="line"/>
			<point x="485" y="539" type="line"/>
			<point x="481" y="539" type="line"/>
			<point x="569" y="-2" type="line"/>
			<point x="590" y="-2" type="line"/>
			<point x="844" y="549" type="line"/>
			<point x="834" y="542" type="line"/>
			<point x="923" y="554" type="line"/>
			<point x="925" y="568" type="line"/>
		</contour>
	</outline>
</glyph>
<glyph name="won.bolder" format="2">
	<advance width="1131"/>
	<outline>
		<contour>
			<point x="303" y="-2" type="line"/>
			<point x="325" y="-2" type="line"/>
			<point x="634" y="662" type="line"/>
			<point x="630" y="662" type="line"/>
			<point x="720" y="-2" type="line"/>
			<point x="741" y="-2" type="line"/>
			<point x="879" y="320" type="line"/>
			<point x="864" y="310" type="line"/>
			<point x="1016" y="310" type="line"/>
			<point x="1019" y="329" type="line"/>
			<point x="864" y="329" type="line"/>
			<point x="733" y="24" type="line"/>
			<point x="737" y="24" type="line"/>
			<point x="645" y="692" type="line"/>
			<point x="627" y="689" type="line"/>
			<point x="317" y="22" type="line"/>
			<point x="320" y="21" type="line"/>
			<point x="290" y="329" type="line"/>
			<point x="132" y="329" type="line"/>
			<point x="129" y="310" type="line"/>
			<point x="285" y="310" type="line"/>
			<point x="272" y="318" type="line"/>
		</contour>
		<contour>
			<point x="145" y="410" type="line"/>
			<point x="282" y="410" type="line"/>
			<point x="257" y="671" type="line"/>
			<point x="251" y="663" type="line"/>
			<point x="373" y="677" type="line"/>
			<point x="375" y="692" type="line"/>
			<point x="148" y="687" type="line"/>
			<point x="145" y="672" type="line"/>
			<point x="245" y="663" type="line"/>
			<point x="237" y="671" type="line"/>
			<point x="262" y="418" type="line"/>
			<point x="275" y="429" type="line"/>
			<point x="148" y="429" type="line"/>
		</contour>
		<contour>
			<point x="899" y="410" type="line"/>
			<point x="1031" y="410" type="line"/>
			<point x="1034" y="429" type="line"/>
			<point x="917" y="429" type="line"/>
			<point x="922" y="419" type="line"/>
			<point x="1030" y="670" type="line"/>
			<point x="1019" y="663" type="line"/>
			<point x="1120" y="677" type="line"/>
			<point x="1123" y="692" type="line"/>
			<point x="900" y="687" type="line"/>
			<point x="898" y="672" type="line"/>
			<point x="1014" y="664" type="line"/>
			<point x="1010" y="670" type="line"/>
		</contour>
	</outline>
</glyph>
<glyph name="z.sc" format="2">
	<advance width="498"/>
	<anchor x="202" y="0" name="bottom"/>
	<anchor x="303" y="568" name="top"/>
	<outline>
		<contour>
			<point x="7" y="0" type="line"/>
			<point x="397" y="0" type="line"/>
			<point x="419" y="117" type="line"/>
			<point x="405" y="117" type="line"/>
			<point x="376" y="13" type="line"/>
			<point x="384" y="19" type="line"/>
			<point x="30" y="19" type="line"/>
			<point x="34" y="14" type="line"/>
			<point x="485" y="552" type="line"/>
			<point x="488" y="568" type="line"/>
			<point x="117" y="568" type="line"/>
			<point x="99" y="455" type="line"/>
			<point x="114" y="455" type="line"/>
			<point x="142" y="555" type="line"/>
			<point x="134" y="549" type="line"/>
			<point x="466" y="549" type="line"/>
			<point x="463" y="554" type="line"/>
			<point x="9" y="15" type="line"/>
		</contour>
	</outline>
</glyph>
<glyph name="zero.zero" format="2">
	<advance width="638"/>
	<outline>
		<contour>
			<point x="271" y="-6" type="curve" smooth="yes"/>
			<point x="480" y="-6"/>
			<point x="574" y="247"/>
			<point x="574" y="486" type="curve" smooth="yes"/>
			<point x="574" y="632"/>
			<point x="514" y="698"/>
			<point x="397" y="698" type="curve" smooth="yes"/>
			<point x="185" y="698"/>
			<point x="90" y="460"/>
			<point x="90" y="220" type="curve" smooth="yes"/>
			<point x="90" y="69"/>
			<point x="153" y="-6"/>
		</contour>
		<contour>
			<point x="275" y="14" type="curve" smooth="yes"/>
			<point x="170" y="14"/>
			<point x="112" y="79"/>
			<point x="112" y="223" type="curve" smooth="yes"/>
			<point x="112" y="446"/>
			<point x="194" y="678"/>
			<point x="394" y="678" type="curve" smooth="yes"/>
			<point x="493" y="678"/>
			<point x="553" y="628"/>
			<point x="553" y="485" type="curve" smooth="yes"/>
			<point x="553" y="263"/>
			<point x="469" y="14"/>
		</contour>
		<contour>
			<point x="159" y="42" type="line"/>
			<point x="517" y="646" type="line"/>
			<point x="502" y="657" type="line"/>
			<point x="146" y="57" type="line"/>
		</contour>
	</outline>
</glyph>
